M48
; DRILL file {KiCad (5.1.10)-1} date 04/15/22 10:12:14
; FORMAT={-:-/ absolute / inch / decimal}
; #@! TF.CreationDate,2022-04-15T10:12:14-07:00
; #@! TF.GenerationSoftware,Kicad,Pcbnew,(5.1.10)-1
; #@! TF.FileFunction,Plated,1,2,PTH
FMAT,2
INCH
T1C0.0315
T2C0.0394
%
G90
G05
T1
X5.55Y-3.5
X5.55Y-3.6
X5.55Y-3.7
X5.55Y-3.8
T2
X5.0Y-1.6
X5.0Y-1.7
X5.0Y-1.8
X5.0Y-2.1
X5.0Y-2.2
X5.0Y-2.3
X5.1Y-1.6
X5.1Y-1.7
X5.1Y-1.8
X5.16Y-1.13
X5.16Y-1.23
X5.26Y-1.13
X5.26Y-1.23
X5.36Y-1.13
X5.36Y-1.23
X5.4Y-1.5
X5.4Y-1.6
X5.4Y-1.7
X5.4Y-1.8
X5.4Y-1.9
X5.4Y-2.0
X5.4Y-2.2
X5.4Y-2.3
X5.4Y-2.4
X5.46Y-1.13
X5.46Y-1.23
X5.5Y-1.5
X5.5Y-1.6
X5.5Y-1.7
X5.5Y-1.8
X5.5Y-1.9
X5.5Y-2.0
X5.5Y-2.2
X5.5Y-2.3
X5.5Y-2.4
X5.56Y-1.13
X5.56Y-1.23
X5.66Y-1.13
X5.66Y-1.23
X5.75Y-3.7
X5.75Y-3.8
X5.76Y-1.13
X5.76Y-1.23
X5.85Y-3.7
X5.85Y-3.8
X5.86Y-1.13
X5.86Y-1.23
X5.96Y-1.13
X5.96Y-1.23
X6.0Y-1.65
X6.0Y-1.85
X6.0Y-2.4
X6.0Y-2.5
X6.0Y-2.6
X6.0Y-2.7
X6.0Y-2.8
X6.0Y-2.9
X6.0Y-3.0
X6.0Y-3.1
X6.0Y-3.2
X6.0Y-3.3
X6.06Y-1.13
X6.06Y-1.23
X6.1Y-2.4
X6.1Y-2.5
X6.1Y-2.6
X6.1Y-2.7
X6.1Y-2.8
X6.1Y-2.9
X6.1Y-3.0
X6.1Y-3.1
X6.1Y-3.2
X6.1Y-3.3
X6.16Y-1.13
X6.16Y-1.23
X6.25Y-3.65
X6.25Y-3.85
X6.26Y-1.13
X6.26Y-1.23
X6.3543Y-1.65
X6.3543Y-1.85
X6.36Y-1.13
X6.36Y-1.23
X6.46Y-1.13
X6.46Y-1.23
X6.56Y-1.13
X6.56Y-1.23
X6.6043Y-3.65
X6.6043Y-3.85
X6.65Y-2.4
X6.65Y-2.5
X6.65Y-2.6
X6.65Y-2.7
X6.65Y-2.8
X6.65Y-2.9
X6.65Y-3.0
X6.65Y-3.1
X6.65Y-3.2
X6.65Y-3.3
X6.66Y-1.13
X6.66Y-1.23
X6.75Y-1.8
X6.75Y-1.9
X6.75Y-2.4
X6.75Y-2.5
X6.75Y-2.6
X6.75Y-2.7
X6.75Y-2.8
X6.75Y-2.9
X6.75Y-3.0
X6.75Y-3.1
X6.75Y-3.2
X6.75Y-3.3
T0
M30
