%TF.GenerationSoftware,KiCad,Pcbnew,(5.1.10)-1*%
%TF.CreationDate,2022-04-15T10:12:12-07:00*%
%TF.ProjectId,SensorSuiteBoard,53656e73-6f72-4537-9569-7465426f6172,1.0*%
%TF.SameCoordinates,Original*%
%TF.FileFunction,Copper,L1,Top*%
%TF.FilePolarity,Positive*%
%FSLAX46Y46*%
G04 Gerber Fmt 4.6, Leading zero omitted, Abs format (unit mm)*
G04 Created by KiCad (PCBNEW (5.1.10)-1) date 2022-04-15 10:12:12*
%MOMM*%
%LPD*%
G01*
G04 APERTURE LIST*
%TA.AperFunction,ComponentPad*%
%ADD10O,1.700000X1.700000*%
%TD*%
%TA.AperFunction,ComponentPad*%
%ADD11R,1.700000X1.700000*%
%TD*%
%TA.AperFunction,ComponentPad*%
%ADD12C,2.000000*%
%TD*%
%TA.AperFunction,ComponentPad*%
%ADD13O,1.600000X1.600000*%
%TD*%
%TA.AperFunction,ComponentPad*%
%ADD14R,1.600000X1.600000*%
%TD*%
%TA.AperFunction,Conductor*%
%ADD15C,0.406400*%
%TD*%
%TA.AperFunction,Conductor*%
%ADD16C,0.304800*%
%TD*%
%TA.AperFunction,Conductor*%
%ADD17C,0.250000*%
%TD*%
%TA.AperFunction,Conductor*%
%ADD18C,0.254000*%
%TD*%
%TA.AperFunction,Conductor*%
%ADD19C,0.100000*%
%TD*%
G04 APERTURE END LIST*
D10*
%TO.P,J3,10*%
%TO.N,Net-(J3-Pad10)*%
X171450000Y-83820000D03*
%TO.P,J3,9*%
%TO.N,Net-(J3-Pad9)*%
X171450000Y-81280000D03*
%TO.P,J3,8*%
%TO.N,Net-(J3-Pad8)*%
X171450000Y-78740000D03*
%TO.P,J3,7*%
%TO.N,Net-(J3-Pad7)*%
X171450000Y-76200000D03*
%TO.P,J3,6*%
%TO.N,Net-(J3-Pad6)*%
X171450000Y-73660000D03*
%TO.P,J3,5*%
%TO.N,Net-(J3-Pad5)*%
X171450000Y-71120000D03*
%TO.P,J3,4*%
%TO.N,Net-(J3-Pad4)*%
X171450000Y-68580000D03*
%TO.P,J3,3*%
%TO.N,Net-(J3-Pad3)*%
X171450000Y-66040000D03*
%TO.P,J3,2*%
%TO.N,GND*%
X171450000Y-63500000D03*
D11*
%TO.P,J3,1*%
%TO.N,+5V*%
X171450000Y-60960000D03*
%TD*%
D10*
%TO.P,J8,32*%
%TO.N,Net-(J8-Pad32)*%
X131064000Y-31242000D03*
%TO.P,J8,31*%
%TO.N,Net-(J8-Pad31)*%
X131064000Y-28702000D03*
%TO.P,J8,30*%
%TO.N,Net-(J8-Pad30)*%
X133604000Y-31242000D03*
%TO.P,J8,29*%
%TO.N,Net-(J8-Pad29)*%
X133604000Y-28702000D03*
%TO.P,J8,28*%
%TO.N,Net-(J8-Pad28)*%
X136144000Y-31242000D03*
%TO.P,J8,27*%
%TO.N,Net-(J8-Pad27)*%
X136144000Y-28702000D03*
%TO.P,J8,26*%
%TO.N,Net-(J8-Pad26)*%
X138684000Y-31242000D03*
%TO.P,J8,25*%
%TO.N,+3V3*%
X138684000Y-28702000D03*
%TO.P,J8,24*%
%TO.N,GND*%
X141224000Y-31242000D03*
%TO.P,J8,23*%
%TO.N,Net-(J8-Pad23)*%
X141224000Y-28702000D03*
%TO.P,J8,22*%
%TO.N,Net-(J8-Pad22)*%
X143764000Y-31242000D03*
%TO.P,J8,21*%
%TO.N,Net-(J8-Pad21)*%
X143764000Y-28702000D03*
%TO.P,J8,20*%
%TO.N,Net-(J8-Pad20)*%
X146304000Y-31242000D03*
%TO.P,J8,19*%
%TO.N,Net-(J8-Pad19)*%
X146304000Y-28702000D03*
%TO.P,J8,18*%
%TO.N,Net-(J8-Pad18)*%
X148844000Y-31242000D03*
%TO.P,J8,17*%
%TO.N,Net-(J8-Pad17)*%
X148844000Y-28702000D03*
%TO.P,J8,16*%
%TO.N,Net-(J8-Pad16)*%
X151384000Y-31242000D03*
%TO.P,J8,15*%
%TO.N,Net-(J8-Pad15)*%
X151384000Y-28702000D03*
%TO.P,J8,14*%
%TO.N,Net-(J8-Pad14)*%
X153924000Y-31242000D03*
%TO.P,J8,13*%
%TO.N,Net-(J8-Pad13)*%
X153924000Y-28702000D03*
%TO.P,J8,12*%
%TO.N,Net-(J8-Pad12)*%
X156464000Y-31242000D03*
%TO.P,J8,11*%
%TO.N,Net-(J8-Pad11)*%
X156464000Y-28702000D03*
%TO.P,J8,10*%
%TO.N,Net-(J8-Pad10)*%
X159004000Y-31242000D03*
%TO.P,J8,9*%
%TO.N,Net-(J8-Pad9)*%
X159004000Y-28702000D03*
%TO.P,J8,8*%
%TO.N,Net-(J8-Pad8)*%
X161544000Y-31242000D03*
%TO.P,J8,7*%
%TO.N,Net-(J8-Pad7)*%
X161544000Y-28702000D03*
%TO.P,J8,6*%
%TO.N,+3V3*%
X164084000Y-31242000D03*
%TO.P,J8,5*%
%TO.N,/P6_0*%
X164084000Y-28702000D03*
%TO.P,J8,4*%
%TO.N,Net-(J8-Pad4)*%
X166624000Y-31242000D03*
%TO.P,J8,3*%
%TO.N,/P6_1*%
X166624000Y-28702000D03*
%TO.P,J8,2*%
%TO.N,Net-(J8-Pad2)*%
X169164000Y-31242000D03*
D11*
%TO.P,J8,1*%
%TO.N,GND*%
X169164000Y-28702000D03*
%TD*%
D10*
%TO.P,J7,6*%
%TO.N,Net-(J7-Pad6)*%
X129540000Y-45720000D03*
%TO.P,J7,5*%
%TO.N,Net-(J7-Pad5)*%
X127000000Y-45720000D03*
%TO.P,J7,4*%
%TO.N,Net-(J7-Pad4)*%
X129540000Y-43180000D03*
%TO.P,J7,3*%
%TO.N,Net-(J7-Pad3)*%
X127000000Y-43180000D03*
%TO.P,J7,2*%
%TO.N,Net-(J7-Pad2)*%
X129540000Y-40640000D03*
D11*
%TO.P,J7,1*%
%TO.N,Net-(J7-Pad1)*%
X127000000Y-40640000D03*
%TD*%
D10*
%TO.P,J5,3*%
%TO.N,Net-(J5-Pad3)*%
X127000000Y-58420000D03*
%TO.P,J5,2*%
%TO.N,Net-(J5-Pad2)*%
X127000000Y-55880000D03*
D11*
%TO.P,J5,1*%
%TO.N,Net-(J5-Pad1)*%
X127000000Y-53340000D03*
%TD*%
%TO.P,J70,1*%
%TO.N,+3V3*%
X139700000Y-38100000D03*
D10*
%TO.P,J70,2*%
%TO.N,GND*%
X139700000Y-40640000D03*
%TO.P,J70,3*%
%TO.N,Net-(J70-Pad3)*%
X139700000Y-43180000D03*
%TO.P,J70,4*%
%TO.N,Net-(J70-Pad4)*%
X139700000Y-45720000D03*
%TO.P,J70,5*%
%TO.N,Net-(J70-Pad5)*%
X139700000Y-48260000D03*
%TO.P,J70,6*%
%TO.N,Net-(J70-Pad6)*%
X139700000Y-50800000D03*
%TD*%
%TO.P,J71,6*%
%TO.N,Net-(J7-Pad6)*%
X137160000Y-50800000D03*
%TO.P,J71,5*%
%TO.N,Net-(J7-Pad5)*%
X137160000Y-48260000D03*
%TO.P,J71,4*%
%TO.N,Net-(J7-Pad4)*%
X137160000Y-45720000D03*
%TO.P,J71,3*%
%TO.N,Net-(J7-Pad3)*%
X137160000Y-43180000D03*
%TO.P,J71,2*%
%TO.N,Net-(J7-Pad2)*%
X137160000Y-40640000D03*
D11*
%TO.P,J71,1*%
%TO.N,Net-(J7-Pad1)*%
X137160000Y-38100000D03*
%TD*%
%TO.P,J50,1*%
%TO.N,/P4_3*%
X139700000Y-55880000D03*
D10*
%TO.P,J50,2*%
%TO.N,+3V3*%
X139700000Y-58420000D03*
%TO.P,J50,3*%
%TO.N,GND*%
X139700000Y-60960000D03*
%TD*%
%TO.P,J51,3*%
%TO.N,Net-(J5-Pad3)*%
X137160000Y-60960000D03*
%TO.P,J51,2*%
%TO.N,Net-(J5-Pad2)*%
X137160000Y-58420000D03*
D11*
%TO.P,J51,1*%
%TO.N,Net-(J5-Pad1)*%
X137160000Y-55880000D03*
%TD*%
D10*
%TO.P,J60,2*%
%TO.N,GND*%
X148590000Y-93980000D03*
D11*
%TO.P,J60,1*%
%TO.N,+3V3*%
X148590000Y-96520000D03*
%TD*%
%TO.P,J61,1*%
%TO.N,Net-(J61-Pad1)*%
X146050000Y-96520000D03*
D10*
%TO.P,J61,2*%
%TO.N,Net-(J61-Pad2)*%
X146050000Y-93980000D03*
%TD*%
D12*
%TO.P,R1,2*%
%TO.N,+3V3*%
X167750000Y-97790000D03*
%TO.P,R1,1*%
%TO.N,/P7_1*%
X158750000Y-97790000D03*
%TD*%
%TO.P,R2,1*%
%TO.N,/P7_0*%
X158750000Y-92710000D03*
%TO.P,R2,2*%
%TO.N,+3V3*%
X167750000Y-92710000D03*
%TD*%
%TO.P,R3,2*%
%TO.N,/P2_6*%
X161400000Y-41910000D03*
%TO.P,R3,1*%
%TO.N,Net-(J70-Pad3)*%
X152400000Y-41910000D03*
%TD*%
%TO.P,R4,1*%
%TO.N,Net-(J70-Pad4)*%
X152400000Y-46990000D03*
%TO.P,R4,2*%
%TO.N,/P2_5*%
X161400000Y-46990000D03*
%TD*%
D13*
%TO.P,U6,4*%
%TO.N,/P7_0*%
X140970000Y-88900000D03*
%TO.P,U6,3*%
%TO.N,/P7_1*%
X140970000Y-91440000D03*
%TO.P,U6,2*%
%TO.N,Net-(J61-Pad2)*%
X140970000Y-93980000D03*
D14*
%TO.P,U6,1*%
%TO.N,Net-(J61-Pad1)*%
X140970000Y-96520000D03*
%TD*%
D11*
%TO.P,J1,1*%
%TO.N,+3V3*%
X168910000Y-60960000D03*
D10*
%TO.P,J1,2*%
%TO.N,Net-(J1-Pad2)*%
X168910000Y-63500000D03*
%TO.P,J1,3*%
%TO.N,/P6_1*%
X168910000Y-66040000D03*
%TO.P,J1,4*%
%TO.N,/P6_0*%
X168910000Y-68580000D03*
%TO.P,J1,5*%
%TO.N,Net-(J1-Pad5)*%
X168910000Y-71120000D03*
%TO.P,J1,6*%
%TO.N,Net-(J1-Pad6)*%
X168910000Y-73660000D03*
%TO.P,J1,7*%
%TO.N,Net-(J1-Pad7)*%
X168910000Y-76200000D03*
%TO.P,J1,8*%
%TO.N,Net-(J1-Pad8)*%
X168910000Y-78740000D03*
%TO.P,J1,9*%
%TO.N,/P7_1*%
X168910000Y-81280000D03*
%TO.P,J1,10*%
%TO.N,/P7_0*%
X168910000Y-83820000D03*
%TD*%
D11*
%TO.P,J2,1*%
%TO.N,Net-(J2-Pad1)*%
X152400000Y-60960000D03*
D10*
%TO.P,J2,2*%
%TO.N,Net-(J2-Pad2)*%
X152400000Y-63500000D03*
%TO.P,J2,3*%
%TO.N,Net-(J2-Pad3)*%
X152400000Y-66040000D03*
%TO.P,J2,4*%
%TO.N,Net-(J2-Pad4)*%
X152400000Y-68580000D03*
%TO.P,J2,5*%
%TO.N,Net-(J2-Pad5)*%
X152400000Y-71120000D03*
%TO.P,J2,6*%
%TO.N,/P2_6*%
X152400000Y-73660000D03*
%TO.P,J2,7*%
%TO.N,/P2_5*%
X152400000Y-76200000D03*
%TO.P,J2,8*%
%TO.N,/P4_3*%
X152400000Y-78740000D03*
%TO.P,J2,9*%
%TO.N,Net-(J2-Pad9)*%
X152400000Y-81280000D03*
%TO.P,J2,10*%
%TO.N,Net-(J2-Pad10)*%
X152400000Y-83820000D03*
%TD*%
%TO.P,J4,10*%
%TO.N,Net-(J4-Pad10)*%
X154940000Y-83820000D03*
%TO.P,J4,9*%
%TO.N,Net-(J4-Pad9)*%
X154940000Y-81280000D03*
%TO.P,J4,8*%
%TO.N,Net-(J4-Pad8)*%
X154940000Y-78740000D03*
%TO.P,J4,7*%
%TO.N,Net-(J4-Pad7)*%
X154940000Y-76200000D03*
%TO.P,J4,6*%
%TO.N,Net-(J4-Pad6)*%
X154940000Y-73660000D03*
%TO.P,J4,5*%
%TO.N,Net-(J4-Pad5)*%
X154940000Y-71120000D03*
%TO.P,J4,4*%
%TO.N,Net-(J4-Pad4)*%
X154940000Y-68580000D03*
%TO.P,J4,3*%
%TO.N,Net-(J4-Pad3)*%
X154940000Y-66040000D03*
%TO.P,J4,2*%
%TO.N,Net-(J4-Pad2)*%
X154940000Y-63500000D03*
D11*
%TO.P,J4,1*%
%TO.N,Net-(J4-Pad1)*%
X154940000Y-60960000D03*
%TD*%
D10*
%TO.P,J9,2*%
%TO.N,GND*%
X171450000Y-45720000D03*
D11*
%TO.P,J9,1*%
%TO.N,+5V*%
X171450000Y-48260000D03*
%TD*%
D15*
%TO.N,+5V*%
X171450000Y-60960000D02*
X171450000Y-50800000D01*
X171450000Y-50800000D02*
X171450000Y-48260000D01*
D16*
%TO.N,/P7_0*%
X140970000Y-88900000D02*
X154940000Y-88900000D01*
X154940000Y-88900000D02*
X158750000Y-92710000D01*
X168910000Y-84580446D02*
X168910000Y-83820000D01*
D17*
X168910000Y-86360000D02*
X162560000Y-92710000D01*
X168910000Y-83820000D02*
X168910000Y-86360000D01*
X162560000Y-92710000D02*
X158750000Y-92710000D01*
D16*
%TO.N,/P7_1*%
X160020000Y-97790000D02*
X170180000Y-87630000D01*
X158750000Y-97790000D02*
X160020000Y-97790000D01*
X158750000Y-97790000D02*
X152400000Y-91440000D01*
X152400000Y-91440000D02*
X140970000Y-91440000D01*
D17*
X170180000Y-82550000D02*
X168910000Y-81280000D01*
X170180000Y-87630000D02*
X170180000Y-82550000D01*
%TO.N,/P6_0*%
X165259001Y-64929001D02*
X168910000Y-68580000D01*
X165259001Y-29877001D02*
X165259001Y-64929001D01*
X164084000Y-28702000D02*
X165259001Y-29877001D01*
%TO.N,/P6_1*%
X166624000Y-63754000D02*
X168910000Y-66040000D01*
X166624000Y-36830000D02*
X166624000Y-63754000D01*
X170688000Y-32766000D02*
X166624000Y-36830000D01*
X169671002Y-26924000D02*
X170688000Y-27940998D01*
X166624000Y-26924000D02*
X169671002Y-26924000D01*
X170688000Y-27940998D02*
X170688000Y-32766000D01*
X166624000Y-28702000D02*
X166624000Y-26924000D01*
D16*
%TO.N,/P2_6*%
X161400000Y-41910000D02*
X156320000Y-46990000D01*
D17*
X149860000Y-71120000D02*
X152400000Y-73660000D01*
X156320000Y-46990000D02*
X156320000Y-52722000D01*
X149860000Y-59182000D02*
X149860000Y-62484000D01*
X149860000Y-62484000D02*
X149860000Y-71120000D01*
X156320000Y-52722000D02*
X149860000Y-59182000D01*
X149860000Y-62230000D02*
X149860000Y-62484000D01*
D16*
%TO.N,/P2_5*%
X158750000Y-49640000D02*
X161400000Y-46990000D01*
D17*
X153575001Y-75024999D02*
X152400000Y-76200000D01*
X155314003Y-75024999D02*
X153575001Y-75024999D01*
X158750000Y-71589002D02*
X155314003Y-75024999D01*
X158750000Y-49640000D02*
X158750000Y-71589002D01*
%TO.N,/P4_3*%
X147320000Y-58420000D02*
X144780000Y-55880000D01*
X144780000Y-55880000D02*
X139700000Y-55880000D01*
X147320000Y-73660000D02*
X152400000Y-78740000D01*
X147320000Y-58420000D02*
X147320000Y-73660000D01*
D15*
%TO.N,Net-(J5-Pad3)*%
X129540000Y-60960000D02*
X137160000Y-60960000D01*
X127000000Y-58420000D02*
X129540000Y-60960000D01*
%TO.N,Net-(J5-Pad2)*%
X129540000Y-58420000D02*
X127000000Y-55880000D01*
X137160000Y-58420000D02*
X129540000Y-58420000D01*
D16*
%TO.N,Net-(J5-Pad1)*%
X137160000Y-55880000D02*
X134620000Y-53340000D01*
X134620000Y-53340000D02*
X127000000Y-53340000D01*
D15*
%TO.N,Net-(J61-Pad1)*%
X146050000Y-96520000D02*
X140970000Y-96520000D01*
%TO.N,Net-(J61-Pad2)*%
X146050000Y-93980000D02*
X140970000Y-93980000D01*
D17*
%TO.N,Net-(J7-Pad6)*%
X134620000Y-50800000D02*
X129540000Y-45720000D01*
X137160000Y-50800000D02*
X134620000Y-50800000D01*
%TO.N,Net-(J7-Pad5)*%
X133444999Y-44544999D02*
X137160000Y-48260000D01*
X128175001Y-44544999D02*
X133444999Y-44544999D01*
X127000000Y-45720000D02*
X128175001Y-44544999D01*
%TO.N,Net-(J7-Pad4)*%
X134620000Y-43180000D02*
X129540000Y-43180000D01*
X137160000Y-45720000D02*
X134620000Y-43180000D01*
%TO.N,Net-(J7-Pad3)*%
X135984999Y-42004999D02*
X137160000Y-43180000D01*
X128175001Y-42004999D02*
X135984999Y-42004999D01*
X127000000Y-43180000D02*
X128175001Y-42004999D01*
D15*
%TO.N,Net-(J7-Pad2)*%
X137160000Y-40640000D02*
X129540000Y-40640000D01*
%TO.N,Net-(J7-Pad1)*%
X129540000Y-38100000D02*
X137160000Y-38100000D01*
X127000000Y-40640000D02*
X129540000Y-38100000D01*
D16*
%TO.N,Net-(J70-Pad3)*%
X152400000Y-41910000D02*
X143510000Y-41910000D01*
X142240000Y-43180000D02*
X139700000Y-43180000D01*
X143510000Y-41910000D02*
X142240000Y-43180000D01*
%TO.N,Net-(J70-Pad4)*%
X152400000Y-46990000D02*
X143510000Y-46990000D01*
X143510000Y-46990000D02*
X142240000Y-45720000D01*
X142240000Y-45720000D02*
X139700000Y-45720000D01*
%TD*%
D18*
%TO.N,+3V3*%
X178664000Y-105004000D02*
X121310000Y-105004000D01*
X121310000Y-101365098D01*
X122075000Y-101365098D01*
X122075000Y-101834902D01*
X122166654Y-102295679D01*
X122346440Y-102729721D01*
X122607450Y-103120349D01*
X122939651Y-103452550D01*
X123330279Y-103713560D01*
X123764321Y-103893346D01*
X124225098Y-103985000D01*
X124694902Y-103985000D01*
X125155679Y-103893346D01*
X125589721Y-103713560D01*
X125980349Y-103452550D01*
X126312550Y-103120349D01*
X126573560Y-102729721D01*
X126753346Y-102295679D01*
X126845000Y-101834902D01*
X126845000Y-101365098D01*
X172875000Y-101365098D01*
X172875000Y-101834902D01*
X172966654Y-102295679D01*
X173146440Y-102729721D01*
X173407450Y-103120349D01*
X173739651Y-103452550D01*
X174130279Y-103713560D01*
X174564321Y-103893346D01*
X175025098Y-103985000D01*
X175494902Y-103985000D01*
X175955679Y-103893346D01*
X176389721Y-103713560D01*
X176780349Y-103452550D01*
X177112550Y-103120349D01*
X177373560Y-102729721D01*
X177553346Y-102295679D01*
X177645000Y-101834902D01*
X177645000Y-101365098D01*
X177553346Y-100904321D01*
X177373560Y-100470279D01*
X177112550Y-100079651D01*
X176780349Y-99747450D01*
X176389721Y-99486440D01*
X175955679Y-99306654D01*
X175494902Y-99215000D01*
X175025098Y-99215000D01*
X174564321Y-99306654D01*
X174130279Y-99486440D01*
X173739651Y-99747450D01*
X173407450Y-100079651D01*
X173146440Y-100470279D01*
X172966654Y-100904321D01*
X172875000Y-101365098D01*
X126845000Y-101365098D01*
X126753346Y-100904321D01*
X126573560Y-100470279D01*
X126312550Y-100079651D01*
X125980349Y-99747450D01*
X125589721Y-99486440D01*
X125155679Y-99306654D01*
X124694902Y-99215000D01*
X124225098Y-99215000D01*
X123764321Y-99306654D01*
X123330279Y-99486440D01*
X122939651Y-99747450D01*
X122607450Y-100079651D01*
X122346440Y-100470279D01*
X122166654Y-100904321D01*
X122075000Y-101365098D01*
X121310000Y-101365098D01*
X121310000Y-52490000D01*
X125511928Y-52490000D01*
X125511928Y-54190000D01*
X125524188Y-54314482D01*
X125560498Y-54434180D01*
X125619463Y-54544494D01*
X125698815Y-54641185D01*
X125795506Y-54720537D01*
X125905820Y-54779502D01*
X125978380Y-54801513D01*
X125846525Y-54933368D01*
X125684010Y-55176589D01*
X125572068Y-55446842D01*
X125515000Y-55733740D01*
X125515000Y-56026260D01*
X125572068Y-56313158D01*
X125684010Y-56583411D01*
X125846525Y-56826632D01*
X126053368Y-57033475D01*
X126227760Y-57150000D01*
X126053368Y-57266525D01*
X125846525Y-57473368D01*
X125684010Y-57716589D01*
X125572068Y-57986842D01*
X125515000Y-58273740D01*
X125515000Y-58566260D01*
X125572068Y-58853158D01*
X125684010Y-59123411D01*
X125846525Y-59366632D01*
X126053368Y-59573475D01*
X126296589Y-59735990D01*
X126566842Y-59847932D01*
X126853740Y-59905000D01*
X127146260Y-59905000D01*
X127274165Y-59879558D01*
X128918194Y-61523588D01*
X128944436Y-61555564D01*
X128976412Y-61581806D01*
X128976414Y-61581808D01*
X129072068Y-61660309D01*
X129217683Y-61738142D01*
X129375684Y-61786071D01*
X129498830Y-61798200D01*
X129498839Y-61798200D01*
X129539999Y-61802254D01*
X129581159Y-61798200D01*
X135934073Y-61798200D01*
X136006525Y-61906632D01*
X136213368Y-62113475D01*
X136456589Y-62275990D01*
X136726842Y-62387932D01*
X137013740Y-62445000D01*
X137306260Y-62445000D01*
X137593158Y-62387932D01*
X137863411Y-62275990D01*
X138106632Y-62113475D01*
X138313475Y-61906632D01*
X138430000Y-61732240D01*
X138546525Y-61906632D01*
X138753368Y-62113475D01*
X138996589Y-62275990D01*
X139266842Y-62387932D01*
X139553740Y-62445000D01*
X139846260Y-62445000D01*
X140133158Y-62387932D01*
X140403411Y-62275990D01*
X140646632Y-62113475D01*
X140853475Y-61906632D01*
X141015990Y-61663411D01*
X141127932Y-61393158D01*
X141185000Y-61106260D01*
X141185000Y-60813740D01*
X141127932Y-60526842D01*
X141015990Y-60256589D01*
X140853475Y-60013368D01*
X140646632Y-59806525D01*
X140464466Y-59684805D01*
X140581355Y-59615178D01*
X140797588Y-59420269D01*
X140971641Y-59186920D01*
X141096825Y-58924099D01*
X141141476Y-58776890D01*
X141020155Y-58547000D01*
X139827000Y-58547000D01*
X139827000Y-58567000D01*
X139573000Y-58567000D01*
X139573000Y-58547000D01*
X139553000Y-58547000D01*
X139553000Y-58293000D01*
X139573000Y-58293000D01*
X139573000Y-58273000D01*
X139827000Y-58273000D01*
X139827000Y-58293000D01*
X141020155Y-58293000D01*
X141141476Y-58063110D01*
X141096825Y-57915901D01*
X140971641Y-57653080D01*
X140797588Y-57419731D01*
X140713534Y-57343966D01*
X140794180Y-57319502D01*
X140904494Y-57260537D01*
X141001185Y-57181185D01*
X141080537Y-57084494D01*
X141139502Y-56974180D01*
X141175812Y-56854482D01*
X141188072Y-56730000D01*
X141188072Y-56640000D01*
X144465199Y-56640000D01*
X146560000Y-58734803D01*
X146560001Y-73622667D01*
X146556324Y-73660000D01*
X146570998Y-73808985D01*
X146614454Y-73952246D01*
X146685026Y-74084276D01*
X146756201Y-74171002D01*
X146780000Y-74200001D01*
X146808998Y-74223799D01*
X150958790Y-78373592D01*
X150915000Y-78593740D01*
X150915000Y-78886260D01*
X150972068Y-79173158D01*
X151084010Y-79443411D01*
X151246525Y-79686632D01*
X151453368Y-79893475D01*
X151627760Y-80010000D01*
X151453368Y-80126525D01*
X151246525Y-80333368D01*
X151084010Y-80576589D01*
X150972068Y-80846842D01*
X150915000Y-81133740D01*
X150915000Y-81426260D01*
X150972068Y-81713158D01*
X151084010Y-81983411D01*
X151246525Y-82226632D01*
X151453368Y-82433475D01*
X151627760Y-82550000D01*
X151453368Y-82666525D01*
X151246525Y-82873368D01*
X151084010Y-83116589D01*
X150972068Y-83386842D01*
X150915000Y-83673740D01*
X150915000Y-83966260D01*
X150972068Y-84253158D01*
X151084010Y-84523411D01*
X151246525Y-84766632D01*
X151453368Y-84973475D01*
X151696589Y-85135990D01*
X151966842Y-85247932D01*
X152253740Y-85305000D01*
X152546260Y-85305000D01*
X152833158Y-85247932D01*
X153103411Y-85135990D01*
X153346632Y-84973475D01*
X153553475Y-84766632D01*
X153670000Y-84592240D01*
X153786525Y-84766632D01*
X153993368Y-84973475D01*
X154236589Y-85135990D01*
X154506842Y-85247932D01*
X154793740Y-85305000D01*
X155086260Y-85305000D01*
X155373158Y-85247932D01*
X155643411Y-85135990D01*
X155886632Y-84973475D01*
X156093475Y-84766632D01*
X156255990Y-84523411D01*
X156367932Y-84253158D01*
X156425000Y-83966260D01*
X156425000Y-83673740D01*
X156367932Y-83386842D01*
X156255990Y-83116589D01*
X156093475Y-82873368D01*
X155886632Y-82666525D01*
X155712240Y-82550000D01*
X155886632Y-82433475D01*
X156093475Y-82226632D01*
X156255990Y-81983411D01*
X156367932Y-81713158D01*
X156425000Y-81426260D01*
X156425000Y-81133740D01*
X156367932Y-80846842D01*
X156255990Y-80576589D01*
X156093475Y-80333368D01*
X155886632Y-80126525D01*
X155712240Y-80010000D01*
X155886632Y-79893475D01*
X156093475Y-79686632D01*
X156255990Y-79443411D01*
X156367932Y-79173158D01*
X156425000Y-78886260D01*
X156425000Y-78593740D01*
X156367932Y-78306842D01*
X156255990Y-78036589D01*
X156093475Y-77793368D01*
X155886632Y-77586525D01*
X155712240Y-77470000D01*
X155886632Y-77353475D01*
X156093475Y-77146632D01*
X156255990Y-76903411D01*
X156367932Y-76633158D01*
X156425000Y-76346260D01*
X156425000Y-76053740D01*
X156367932Y-75766842D01*
X156255990Y-75496589D01*
X156120295Y-75293508D01*
X159261003Y-72152801D01*
X159290001Y-72129003D01*
X159384974Y-72013278D01*
X159455546Y-71881249D01*
X159499003Y-71737988D01*
X159510000Y-71626335D01*
X159513677Y-71589002D01*
X159510000Y-71551669D01*
X159510000Y-49993550D01*
X160938347Y-48565203D01*
X161238967Y-48625000D01*
X161561033Y-48625000D01*
X161876912Y-48562168D01*
X162174463Y-48438918D01*
X162442252Y-48259987D01*
X162669987Y-48032252D01*
X162848918Y-47764463D01*
X162972168Y-47466912D01*
X163035000Y-47151033D01*
X163035000Y-46828967D01*
X162972168Y-46513088D01*
X162848918Y-46215537D01*
X162669987Y-45947748D01*
X162442252Y-45720013D01*
X162174463Y-45541082D01*
X161876912Y-45417832D01*
X161561033Y-45355000D01*
X161238967Y-45355000D01*
X160923088Y-45417832D01*
X160625537Y-45541082D01*
X160357748Y-45720013D01*
X160130013Y-45947748D01*
X159951082Y-46215537D01*
X159827832Y-46513088D01*
X159765000Y-46828967D01*
X159765000Y-47151033D01*
X159824797Y-47451653D01*
X158165879Y-49110571D01*
X158092135Y-49200428D01*
X158019018Y-49337218D01*
X157973995Y-49485643D01*
X157958792Y-49640000D01*
X157973995Y-49794357D01*
X157990000Y-49847120D01*
X157990001Y-71274199D01*
X156271110Y-72993091D01*
X156255990Y-72956589D01*
X156093475Y-72713368D01*
X155886632Y-72506525D01*
X155712240Y-72390000D01*
X155886632Y-72273475D01*
X156093475Y-72066632D01*
X156255990Y-71823411D01*
X156367932Y-71553158D01*
X156425000Y-71266260D01*
X156425000Y-70973740D01*
X156367932Y-70686842D01*
X156255990Y-70416589D01*
X156093475Y-70173368D01*
X155886632Y-69966525D01*
X155712240Y-69850000D01*
X155886632Y-69733475D01*
X156093475Y-69526632D01*
X156255990Y-69283411D01*
X156367932Y-69013158D01*
X156425000Y-68726260D01*
X156425000Y-68433740D01*
X156367932Y-68146842D01*
X156255990Y-67876589D01*
X156093475Y-67633368D01*
X155886632Y-67426525D01*
X155712240Y-67310000D01*
X155886632Y-67193475D01*
X156093475Y-66986632D01*
X156255990Y-66743411D01*
X156367932Y-66473158D01*
X156425000Y-66186260D01*
X156425000Y-65893740D01*
X156367932Y-65606842D01*
X156255990Y-65336589D01*
X156093475Y-65093368D01*
X155886632Y-64886525D01*
X155712240Y-64770000D01*
X155886632Y-64653475D01*
X156093475Y-64446632D01*
X156255990Y-64203411D01*
X156367932Y-63933158D01*
X156425000Y-63646260D01*
X156425000Y-63353740D01*
X156367932Y-63066842D01*
X156255990Y-62796589D01*
X156093475Y-62553368D01*
X155961620Y-62421513D01*
X156034180Y-62399502D01*
X156144494Y-62340537D01*
X156241185Y-62261185D01*
X156320537Y-62164494D01*
X156379502Y-62054180D01*
X156415812Y-61934482D01*
X156428072Y-61810000D01*
X156428072Y-60110000D01*
X156415812Y-59985518D01*
X156379502Y-59865820D01*
X156320537Y-59755506D01*
X156241185Y-59658815D01*
X156144494Y-59579463D01*
X156034180Y-59520498D01*
X155914482Y-59484188D01*
X155790000Y-59471928D01*
X154090000Y-59471928D01*
X153965518Y-59484188D01*
X153845820Y-59520498D01*
X153735506Y-59579463D01*
X153670000Y-59633222D01*
X153604494Y-59579463D01*
X153494180Y-59520498D01*
X153374482Y-59484188D01*
X153250000Y-59471928D01*
X151550000Y-59471928D01*
X151425518Y-59484188D01*
X151305820Y-59520498D01*
X151195506Y-59579463D01*
X151098815Y-59658815D01*
X151019463Y-59755506D01*
X150960498Y-59865820D01*
X150924188Y-59985518D01*
X150911928Y-60110000D01*
X150911928Y-61810000D01*
X150924188Y-61934482D01*
X150960498Y-62054180D01*
X151019463Y-62164494D01*
X151098815Y-62261185D01*
X151195506Y-62340537D01*
X151305820Y-62399502D01*
X151378380Y-62421513D01*
X151246525Y-62553368D01*
X151084010Y-62796589D01*
X150972068Y-63066842D01*
X150915000Y-63353740D01*
X150915000Y-63646260D01*
X150972068Y-63933158D01*
X151084010Y-64203411D01*
X151246525Y-64446632D01*
X151453368Y-64653475D01*
X151627760Y-64770000D01*
X151453368Y-64886525D01*
X151246525Y-65093368D01*
X151084010Y-65336589D01*
X150972068Y-65606842D01*
X150915000Y-65893740D01*
X150915000Y-66186260D01*
X150972068Y-66473158D01*
X151084010Y-66743411D01*
X151246525Y-66986632D01*
X151453368Y-67193475D01*
X151627760Y-67310000D01*
X151453368Y-67426525D01*
X151246525Y-67633368D01*
X151084010Y-67876589D01*
X150972068Y-68146842D01*
X150915000Y-68433740D01*
X150915000Y-68726260D01*
X150972068Y-69013158D01*
X151084010Y-69283411D01*
X151246525Y-69526632D01*
X151453368Y-69733475D01*
X151627760Y-69850000D01*
X151453368Y-69966525D01*
X151246525Y-70173368D01*
X151084010Y-70416589D01*
X150972068Y-70686842D01*
X150915000Y-70973740D01*
X150915000Y-71100199D01*
X150620000Y-70805199D01*
X150620000Y-59496801D01*
X156831003Y-53285799D01*
X156860001Y-53262001D01*
X156954974Y-53146276D01*
X157025546Y-53014247D01*
X157069003Y-52870986D01*
X157080000Y-52759333D01*
X157083677Y-52722000D01*
X157080000Y-52684667D01*
X157080000Y-47343550D01*
X160938348Y-43485203D01*
X161238967Y-43545000D01*
X161561033Y-43545000D01*
X161876912Y-43482168D01*
X162174463Y-43358918D01*
X162442252Y-43179987D01*
X162669987Y-42952252D01*
X162848918Y-42684463D01*
X162972168Y-42386912D01*
X163035000Y-42071033D01*
X163035000Y-41748967D01*
X162972168Y-41433088D01*
X162848918Y-41135537D01*
X162669987Y-40867748D01*
X162442252Y-40640013D01*
X162174463Y-40461082D01*
X161876912Y-40337832D01*
X161561033Y-40275000D01*
X161238967Y-40275000D01*
X160923088Y-40337832D01*
X160625537Y-40461082D01*
X160357748Y-40640013D01*
X160130013Y-40867748D01*
X159951082Y-41135537D01*
X159827832Y-41433088D01*
X159765000Y-41748967D01*
X159765000Y-42071033D01*
X159824797Y-42371652D01*
X155735879Y-46460571D01*
X155662135Y-46550428D01*
X155589018Y-46687218D01*
X155543995Y-46835643D01*
X155528792Y-46990000D01*
X155543995Y-47144357D01*
X155560000Y-47197120D01*
X155560001Y-52407197D01*
X149349003Y-58618196D01*
X149319999Y-58641999D01*
X149264871Y-58709174D01*
X149225026Y-58757724D01*
X149178763Y-58844275D01*
X149154454Y-58889754D01*
X149110997Y-59033015D01*
X149100000Y-59144668D01*
X149100000Y-59144678D01*
X149096324Y-59182000D01*
X149100000Y-59219323D01*
X149100001Y-62192659D01*
X149100000Y-62192668D01*
X149100000Y-62446668D01*
X149100001Y-71082668D01*
X149096324Y-71120000D01*
X149110998Y-71268985D01*
X149154454Y-71412246D01*
X149225026Y-71544276D01*
X149292371Y-71626335D01*
X149320000Y-71660001D01*
X149348998Y-71683799D01*
X150958790Y-73293593D01*
X150915000Y-73513740D01*
X150915000Y-73806260D01*
X150972068Y-74093158D01*
X151084010Y-74363411D01*
X151246525Y-74606632D01*
X151453368Y-74813475D01*
X151627760Y-74930000D01*
X151453368Y-75046525D01*
X151246525Y-75253368D01*
X151084010Y-75496589D01*
X150972068Y-75766842D01*
X150915000Y-76053740D01*
X150915000Y-76180198D01*
X148080000Y-73345199D01*
X148080000Y-58457322D01*
X148083676Y-58419999D01*
X148080000Y-58382676D01*
X148080000Y-58382667D01*
X148069003Y-58271014D01*
X148025546Y-58127753D01*
X147954974Y-57995724D01*
X147941811Y-57979685D01*
X147883799Y-57908996D01*
X147883795Y-57908992D01*
X147860001Y-57879999D01*
X147831009Y-57856206D01*
X145343804Y-55369003D01*
X145320001Y-55339999D01*
X145204276Y-55245026D01*
X145072247Y-55174454D01*
X144928986Y-55130997D01*
X144817333Y-55120000D01*
X144817322Y-55120000D01*
X144780000Y-55116324D01*
X144742678Y-55120000D01*
X141188072Y-55120000D01*
X141188072Y-55030000D01*
X141175812Y-54905518D01*
X141139502Y-54785820D01*
X141080537Y-54675506D01*
X141001185Y-54578815D01*
X140904494Y-54499463D01*
X140794180Y-54440498D01*
X140674482Y-54404188D01*
X140550000Y-54391928D01*
X138850000Y-54391928D01*
X138725518Y-54404188D01*
X138605820Y-54440498D01*
X138495506Y-54499463D01*
X138430000Y-54553222D01*
X138364494Y-54499463D01*
X138254180Y-54440498D01*
X138134482Y-54404188D01*
X138010000Y-54391928D01*
X136785479Y-54391928D01*
X135204128Y-52810578D01*
X135179469Y-52780531D01*
X135059572Y-52682134D01*
X134922783Y-52609018D01*
X134774357Y-52563994D01*
X134658673Y-52552600D01*
X134658663Y-52552600D01*
X134620000Y-52548792D01*
X134581337Y-52552600D01*
X128488072Y-52552600D01*
X128488072Y-52490000D01*
X128475812Y-52365518D01*
X128439502Y-52245820D01*
X128380537Y-52135506D01*
X128301185Y-52038815D01*
X128204494Y-51959463D01*
X128094180Y-51900498D01*
X127974482Y-51864188D01*
X127850000Y-51851928D01*
X126150000Y-51851928D01*
X126025518Y-51864188D01*
X125905820Y-51900498D01*
X125795506Y-51959463D01*
X125698815Y-52038815D01*
X125619463Y-52135506D01*
X125560498Y-52245820D01*
X125524188Y-52365518D01*
X125511928Y-52490000D01*
X121310000Y-52490000D01*
X121310000Y-39790000D01*
X125511928Y-39790000D01*
X125511928Y-41490000D01*
X125524188Y-41614482D01*
X125560498Y-41734180D01*
X125619463Y-41844494D01*
X125698815Y-41941185D01*
X125795506Y-42020537D01*
X125905820Y-42079502D01*
X125978380Y-42101513D01*
X125846525Y-42233368D01*
X125684010Y-42476589D01*
X125572068Y-42746842D01*
X125515000Y-43033740D01*
X125515000Y-43326260D01*
X125572068Y-43613158D01*
X125684010Y-43883411D01*
X125846525Y-44126632D01*
X126053368Y-44333475D01*
X126227760Y-44450000D01*
X126053368Y-44566525D01*
X125846525Y-44773368D01*
X125684010Y-45016589D01*
X125572068Y-45286842D01*
X125515000Y-45573740D01*
X125515000Y-45866260D01*
X125572068Y-46153158D01*
X125684010Y-46423411D01*
X125846525Y-46666632D01*
X126053368Y-46873475D01*
X126296589Y-47035990D01*
X126566842Y-47147932D01*
X126853740Y-47205000D01*
X127146260Y-47205000D01*
X127433158Y-47147932D01*
X127703411Y-47035990D01*
X127946632Y-46873475D01*
X128153475Y-46666632D01*
X128270000Y-46492240D01*
X128386525Y-46666632D01*
X128593368Y-46873475D01*
X128836589Y-47035990D01*
X129106842Y-47147932D01*
X129393740Y-47205000D01*
X129686260Y-47205000D01*
X129906408Y-47161209D01*
X134056201Y-51311003D01*
X134079999Y-51340001D01*
X134108997Y-51363799D01*
X134195723Y-51434974D01*
X134317955Y-51500309D01*
X134327753Y-51505546D01*
X134471014Y-51549003D01*
X134582667Y-51560000D01*
X134582677Y-51560000D01*
X134620000Y-51563676D01*
X134657323Y-51560000D01*
X135881822Y-51560000D01*
X136006525Y-51746632D01*
X136213368Y-51953475D01*
X136456589Y-52115990D01*
X136726842Y-52227932D01*
X137013740Y-52285000D01*
X137306260Y-52285000D01*
X137593158Y-52227932D01*
X137863411Y-52115990D01*
X138106632Y-51953475D01*
X138313475Y-51746632D01*
X138430000Y-51572240D01*
X138546525Y-51746632D01*
X138753368Y-51953475D01*
X138996589Y-52115990D01*
X139266842Y-52227932D01*
X139553740Y-52285000D01*
X139846260Y-52285000D01*
X140133158Y-52227932D01*
X140403411Y-52115990D01*
X140646632Y-51953475D01*
X140853475Y-51746632D01*
X141015990Y-51503411D01*
X141127932Y-51233158D01*
X141185000Y-50946260D01*
X141185000Y-50653740D01*
X141127932Y-50366842D01*
X141015990Y-50096589D01*
X140853475Y-49853368D01*
X140646632Y-49646525D01*
X140472240Y-49530000D01*
X140646632Y-49413475D01*
X140853475Y-49206632D01*
X141015990Y-48963411D01*
X141127932Y-48693158D01*
X141185000Y-48406260D01*
X141185000Y-48113740D01*
X141127932Y-47826842D01*
X141015990Y-47556589D01*
X140853475Y-47313368D01*
X140646632Y-47106525D01*
X140472240Y-46990000D01*
X140646632Y-46873475D01*
X140853475Y-46666632D01*
X140959870Y-46507400D01*
X141913850Y-46507400D01*
X142925881Y-47519433D01*
X142950531Y-47549469D01*
X142980567Y-47574119D01*
X142980569Y-47574121D01*
X143044055Y-47626222D01*
X143070428Y-47647866D01*
X143207217Y-47720982D01*
X143355643Y-47766006D01*
X143471327Y-47777400D01*
X143471336Y-47777400D01*
X143509999Y-47781208D01*
X143548662Y-47777400D01*
X150959726Y-47777400D01*
X151130013Y-48032252D01*
X151357748Y-48259987D01*
X151625537Y-48438918D01*
X151923088Y-48562168D01*
X152238967Y-48625000D01*
X152561033Y-48625000D01*
X152876912Y-48562168D01*
X153174463Y-48438918D01*
X153442252Y-48259987D01*
X153669987Y-48032252D01*
X153848918Y-47764463D01*
X153972168Y-47466912D01*
X154035000Y-47151033D01*
X154035000Y-46828967D01*
X153972168Y-46513088D01*
X153848918Y-46215537D01*
X153669987Y-45947748D01*
X153442252Y-45720013D01*
X153174463Y-45541082D01*
X152876912Y-45417832D01*
X152561033Y-45355000D01*
X152238967Y-45355000D01*
X151923088Y-45417832D01*
X151625537Y-45541082D01*
X151357748Y-45720013D01*
X151130013Y-45947748D01*
X150959726Y-46202600D01*
X143836152Y-46202600D01*
X142824127Y-45190577D01*
X142799469Y-45160531D01*
X142679572Y-45062134D01*
X142542783Y-44989018D01*
X142394357Y-44943994D01*
X142278673Y-44932600D01*
X142278663Y-44932600D01*
X142240000Y-44928792D01*
X142201337Y-44932600D01*
X140959870Y-44932600D01*
X140853475Y-44773368D01*
X140646632Y-44566525D01*
X140472240Y-44450000D01*
X140646632Y-44333475D01*
X140853475Y-44126632D01*
X140959870Y-43967400D01*
X142201337Y-43967400D01*
X142240000Y-43971208D01*
X142278663Y-43967400D01*
X142278673Y-43967400D01*
X142394357Y-43956006D01*
X142542783Y-43910982D01*
X142679572Y-43837866D01*
X142799469Y-43739469D01*
X142824127Y-43709423D01*
X143836152Y-42697400D01*
X150959726Y-42697400D01*
X151130013Y-42952252D01*
X151357748Y-43179987D01*
X151625537Y-43358918D01*
X151923088Y-43482168D01*
X152238967Y-43545000D01*
X152561033Y-43545000D01*
X152876912Y-43482168D01*
X153174463Y-43358918D01*
X153442252Y-43179987D01*
X153669987Y-42952252D01*
X153848918Y-42684463D01*
X153972168Y-42386912D01*
X154035000Y-42071033D01*
X154035000Y-41748967D01*
X153972168Y-41433088D01*
X153848918Y-41135537D01*
X153669987Y-40867748D01*
X153442252Y-40640013D01*
X153174463Y-40461082D01*
X152876912Y-40337832D01*
X152561033Y-40275000D01*
X152238967Y-40275000D01*
X151923088Y-40337832D01*
X151625537Y-40461082D01*
X151357748Y-40640013D01*
X151130013Y-40867748D01*
X150959726Y-41122600D01*
X143548662Y-41122600D01*
X143509999Y-41118792D01*
X143471336Y-41122600D01*
X143471327Y-41122600D01*
X143355643Y-41133994D01*
X143207217Y-41179018D01*
X143070428Y-41252134D01*
X143070426Y-41252135D01*
X143070427Y-41252135D01*
X142980569Y-41325879D01*
X142980567Y-41325881D01*
X142950531Y-41350531D01*
X142925881Y-41380567D01*
X141913850Y-42392600D01*
X140959870Y-42392600D01*
X140853475Y-42233368D01*
X140646632Y-42026525D01*
X140472240Y-41910000D01*
X140646632Y-41793475D01*
X140853475Y-41586632D01*
X141015990Y-41343411D01*
X141127932Y-41073158D01*
X141185000Y-40786260D01*
X141185000Y-40493740D01*
X141127932Y-40206842D01*
X141015990Y-39936589D01*
X140853475Y-39693368D01*
X140721620Y-39561513D01*
X140794180Y-39539502D01*
X140904494Y-39480537D01*
X141001185Y-39401185D01*
X141080537Y-39304494D01*
X141139502Y-39194180D01*
X141175812Y-39074482D01*
X141188072Y-38950000D01*
X141185000Y-38385750D01*
X141026250Y-38227000D01*
X139827000Y-38227000D01*
X139827000Y-38247000D01*
X139573000Y-38247000D01*
X139573000Y-38227000D01*
X139553000Y-38227000D01*
X139553000Y-37973000D01*
X139573000Y-37973000D01*
X139573000Y-36773750D01*
X139827000Y-36773750D01*
X139827000Y-37973000D01*
X141026250Y-37973000D01*
X141185000Y-37814250D01*
X141188072Y-37250000D01*
X141175812Y-37125518D01*
X141139502Y-37005820D01*
X141080537Y-36895506D01*
X141001185Y-36798815D01*
X140904494Y-36719463D01*
X140794180Y-36660498D01*
X140674482Y-36624188D01*
X140550000Y-36611928D01*
X139985750Y-36615000D01*
X139827000Y-36773750D01*
X139573000Y-36773750D01*
X139414250Y-36615000D01*
X138850000Y-36611928D01*
X138725518Y-36624188D01*
X138605820Y-36660498D01*
X138495506Y-36719463D01*
X138430000Y-36773222D01*
X138364494Y-36719463D01*
X138254180Y-36660498D01*
X138134482Y-36624188D01*
X138010000Y-36611928D01*
X136310000Y-36611928D01*
X136185518Y-36624188D01*
X136065820Y-36660498D01*
X135955506Y-36719463D01*
X135858815Y-36798815D01*
X135779463Y-36895506D01*
X135720498Y-37005820D01*
X135684188Y-37125518D01*
X135671928Y-37250000D01*
X135671928Y-37261800D01*
X129581159Y-37261800D01*
X129539999Y-37257746D01*
X129498839Y-37261800D01*
X129498830Y-37261800D01*
X129375684Y-37273929D01*
X129217683Y-37321858D01*
X129127614Y-37370001D01*
X129072068Y-37399691D01*
X128992521Y-37464974D01*
X128944436Y-37504436D01*
X128918194Y-37536412D01*
X127302679Y-39151928D01*
X126150000Y-39151928D01*
X126025518Y-39164188D01*
X125905820Y-39200498D01*
X125795506Y-39259463D01*
X125698815Y-39338815D01*
X125619463Y-39435506D01*
X125560498Y-39545820D01*
X125524188Y-39665518D01*
X125511928Y-39790000D01*
X121310000Y-39790000D01*
X121310000Y-28555740D01*
X129579000Y-28555740D01*
X129579000Y-28848260D01*
X129636068Y-29135158D01*
X129748010Y-29405411D01*
X129910525Y-29648632D01*
X130117368Y-29855475D01*
X130291760Y-29972000D01*
X130117368Y-30088525D01*
X129910525Y-30295368D01*
X129748010Y-30538589D01*
X129636068Y-30808842D01*
X129579000Y-31095740D01*
X129579000Y-31388260D01*
X129636068Y-31675158D01*
X129748010Y-31945411D01*
X129910525Y-32188632D01*
X130117368Y-32395475D01*
X130360589Y-32557990D01*
X130630842Y-32669932D01*
X130917740Y-32727000D01*
X131210260Y-32727000D01*
X131497158Y-32669932D01*
X131767411Y-32557990D01*
X132010632Y-32395475D01*
X132217475Y-32188632D01*
X132334000Y-32014240D01*
X132450525Y-32188632D01*
X132657368Y-32395475D01*
X132900589Y-32557990D01*
X133170842Y-32669932D01*
X133457740Y-32727000D01*
X133750260Y-32727000D01*
X134037158Y-32669932D01*
X134307411Y-32557990D01*
X134550632Y-32395475D01*
X134757475Y-32188632D01*
X134874000Y-32014240D01*
X134990525Y-32188632D01*
X135197368Y-32395475D01*
X135440589Y-32557990D01*
X135710842Y-32669932D01*
X135997740Y-32727000D01*
X136290260Y-32727000D01*
X136577158Y-32669932D01*
X136847411Y-32557990D01*
X137090632Y-32395475D01*
X137297475Y-32188632D01*
X137414000Y-32014240D01*
X137530525Y-32188632D01*
X137737368Y-32395475D01*
X137980589Y-32557990D01*
X138250842Y-32669932D01*
X138537740Y-32727000D01*
X138830260Y-32727000D01*
X139117158Y-32669932D01*
X139387411Y-32557990D01*
X139630632Y-32395475D01*
X139837475Y-32188632D01*
X139954000Y-32014240D01*
X140070525Y-32188632D01*
X140277368Y-32395475D01*
X140520589Y-32557990D01*
X140790842Y-32669932D01*
X141077740Y-32727000D01*
X141370260Y-32727000D01*
X141657158Y-32669932D01*
X141927411Y-32557990D01*
X142170632Y-32395475D01*
X142377475Y-32188632D01*
X142494000Y-32014240D01*
X142610525Y-32188632D01*
X142817368Y-32395475D01*
X143060589Y-32557990D01*
X143330842Y-32669932D01*
X143617740Y-32727000D01*
X143910260Y-32727000D01*
X144197158Y-32669932D01*
X144467411Y-32557990D01*
X144710632Y-32395475D01*
X144917475Y-32188632D01*
X145034000Y-32014240D01*
X145150525Y-32188632D01*
X145357368Y-32395475D01*
X145600589Y-32557990D01*
X145870842Y-32669932D01*
X146157740Y-32727000D01*
X146450260Y-32727000D01*
X146737158Y-32669932D01*
X147007411Y-32557990D01*
X147250632Y-32395475D01*
X147457475Y-32188632D01*
X147574000Y-32014240D01*
X147690525Y-32188632D01*
X147897368Y-32395475D01*
X148140589Y-32557990D01*
X148410842Y-32669932D01*
X148697740Y-32727000D01*
X148990260Y-32727000D01*
X149277158Y-32669932D01*
X149547411Y-32557990D01*
X149790632Y-32395475D01*
X149997475Y-32188632D01*
X150114000Y-32014240D01*
X150230525Y-32188632D01*
X150437368Y-32395475D01*
X150680589Y-32557990D01*
X150950842Y-32669932D01*
X151237740Y-32727000D01*
X151530260Y-32727000D01*
X151817158Y-32669932D01*
X152087411Y-32557990D01*
X152330632Y-32395475D01*
X152537475Y-32188632D01*
X152654000Y-32014240D01*
X152770525Y-32188632D01*
X152977368Y-32395475D01*
X153220589Y-32557990D01*
X153490842Y-32669932D01*
X153777740Y-32727000D01*
X154070260Y-32727000D01*
X154357158Y-32669932D01*
X154627411Y-32557990D01*
X154870632Y-32395475D01*
X155077475Y-32188632D01*
X155194000Y-32014240D01*
X155310525Y-32188632D01*
X155517368Y-32395475D01*
X155760589Y-32557990D01*
X156030842Y-32669932D01*
X156317740Y-32727000D01*
X156610260Y-32727000D01*
X156897158Y-32669932D01*
X157167411Y-32557990D01*
X157410632Y-32395475D01*
X157617475Y-32188632D01*
X157734000Y-32014240D01*
X157850525Y-32188632D01*
X158057368Y-32395475D01*
X158300589Y-32557990D01*
X158570842Y-32669932D01*
X158857740Y-32727000D01*
X159150260Y-32727000D01*
X159437158Y-32669932D01*
X159707411Y-32557990D01*
X159950632Y-32395475D01*
X160157475Y-32188632D01*
X160274000Y-32014240D01*
X160390525Y-32188632D01*
X160597368Y-32395475D01*
X160840589Y-32557990D01*
X161110842Y-32669932D01*
X161397740Y-32727000D01*
X161690260Y-32727000D01*
X161977158Y-32669932D01*
X162247411Y-32557990D01*
X162490632Y-32395475D01*
X162697475Y-32188632D01*
X162819195Y-32006466D01*
X162888822Y-32123355D01*
X163083731Y-32339588D01*
X163317080Y-32513641D01*
X163579901Y-32638825D01*
X163727110Y-32683476D01*
X163957000Y-32562155D01*
X163957000Y-31369000D01*
X163937000Y-31369000D01*
X163937000Y-31115000D01*
X163957000Y-31115000D01*
X163957000Y-31095000D01*
X164211000Y-31095000D01*
X164211000Y-31115000D01*
X164231000Y-31115000D01*
X164231000Y-31369000D01*
X164211000Y-31369000D01*
X164211000Y-32562155D01*
X164440890Y-32683476D01*
X164499001Y-32665850D01*
X164499002Y-64891668D01*
X164495325Y-64929001D01*
X164499002Y-64966334D01*
X164500841Y-64985000D01*
X164509999Y-65077986D01*
X164553455Y-65221247D01*
X164624027Y-65353277D01*
X164695202Y-65440003D01*
X164719001Y-65469002D01*
X164747999Y-65492800D01*
X167468790Y-68213592D01*
X167425000Y-68433740D01*
X167425000Y-68726260D01*
X167482068Y-69013158D01*
X167594010Y-69283411D01*
X167756525Y-69526632D01*
X167963368Y-69733475D01*
X168137760Y-69850000D01*
X167963368Y-69966525D01*
X167756525Y-70173368D01*
X167594010Y-70416589D01*
X167482068Y-70686842D01*
X167425000Y-70973740D01*
X167425000Y-71266260D01*
X167482068Y-71553158D01*
X167594010Y-71823411D01*
X167756525Y-72066632D01*
X167963368Y-72273475D01*
X168137760Y-72390000D01*
X167963368Y-72506525D01*
X167756525Y-72713368D01*
X167594010Y-72956589D01*
X167482068Y-73226842D01*
X167425000Y-73513740D01*
X167425000Y-73806260D01*
X167482068Y-74093158D01*
X167594010Y-74363411D01*
X167756525Y-74606632D01*
X167963368Y-74813475D01*
X168137760Y-74930000D01*
X167963368Y-75046525D01*
X167756525Y-75253368D01*
X167594010Y-75496589D01*
X167482068Y-75766842D01*
X167425000Y-76053740D01*
X167425000Y-76346260D01*
X167482068Y-76633158D01*
X167594010Y-76903411D01*
X167756525Y-77146632D01*
X167963368Y-77353475D01*
X168137760Y-77470000D01*
X167963368Y-77586525D01*
X167756525Y-77793368D01*
X167594010Y-78036589D01*
X167482068Y-78306842D01*
X167425000Y-78593740D01*
X167425000Y-78886260D01*
X167482068Y-79173158D01*
X167594010Y-79443411D01*
X167756525Y-79686632D01*
X167963368Y-79893475D01*
X168137760Y-80010000D01*
X167963368Y-80126525D01*
X167756525Y-80333368D01*
X167594010Y-80576589D01*
X167482068Y-80846842D01*
X167425000Y-81133740D01*
X167425000Y-81426260D01*
X167482068Y-81713158D01*
X167594010Y-81983411D01*
X167756525Y-82226632D01*
X167963368Y-82433475D01*
X168137760Y-82550000D01*
X167963368Y-82666525D01*
X167756525Y-82873368D01*
X167594010Y-83116589D01*
X167482068Y-83386842D01*
X167425000Y-83673740D01*
X167425000Y-83966260D01*
X167482068Y-84253158D01*
X167594010Y-84523411D01*
X167756525Y-84766632D01*
X167963368Y-84973475D01*
X168150001Y-85098179D01*
X168150001Y-86045197D01*
X162245199Y-91950000D01*
X160204909Y-91950000D01*
X160198918Y-91935537D01*
X160019987Y-91667748D01*
X159792252Y-91440013D01*
X159524463Y-91261082D01*
X159226912Y-91137832D01*
X158911033Y-91075000D01*
X158588967Y-91075000D01*
X158288348Y-91134797D01*
X155524128Y-88370578D01*
X155499469Y-88340531D01*
X155379572Y-88242134D01*
X155242783Y-88169018D01*
X155094357Y-88123994D01*
X154978673Y-88112600D01*
X154978663Y-88112600D01*
X154940000Y-88108792D01*
X154901337Y-88112600D01*
X142169735Y-88112600D01*
X142084637Y-87985241D01*
X141884759Y-87785363D01*
X141649727Y-87628320D01*
X141388574Y-87520147D01*
X141111335Y-87465000D01*
X140828665Y-87465000D01*
X140551426Y-87520147D01*
X140290273Y-87628320D01*
X140055241Y-87785363D01*
X139855363Y-87985241D01*
X139698320Y-88220273D01*
X139590147Y-88481426D01*
X139535000Y-88758665D01*
X139535000Y-89041335D01*
X139590147Y-89318574D01*
X139698320Y-89579727D01*
X139855363Y-89814759D01*
X140055241Y-90014637D01*
X140287759Y-90170000D01*
X140055241Y-90325363D01*
X139855363Y-90525241D01*
X139698320Y-90760273D01*
X139590147Y-91021426D01*
X139535000Y-91298665D01*
X139535000Y-91581335D01*
X139590147Y-91858574D01*
X139698320Y-92119727D01*
X139855363Y-92354759D01*
X140055241Y-92554637D01*
X140287759Y-92710000D01*
X140055241Y-92865363D01*
X139855363Y-93065241D01*
X139698320Y-93300273D01*
X139590147Y-93561426D01*
X139535000Y-93838665D01*
X139535000Y-94121335D01*
X139590147Y-94398574D01*
X139698320Y-94659727D01*
X139855363Y-94894759D01*
X140053961Y-95093357D01*
X140045518Y-95094188D01*
X139925820Y-95130498D01*
X139815506Y-95189463D01*
X139718815Y-95268815D01*
X139639463Y-95365506D01*
X139580498Y-95475820D01*
X139544188Y-95595518D01*
X139531928Y-95720000D01*
X139531928Y-97320000D01*
X139544188Y-97444482D01*
X139580498Y-97564180D01*
X139639463Y-97674494D01*
X139718815Y-97771185D01*
X139815506Y-97850537D01*
X139925820Y-97909502D01*
X140045518Y-97945812D01*
X140170000Y-97958072D01*
X141770000Y-97958072D01*
X141894482Y-97945812D01*
X142014180Y-97909502D01*
X142124494Y-97850537D01*
X142221185Y-97771185D01*
X142300537Y-97674494D01*
X142359502Y-97564180D01*
X142395812Y-97444482D01*
X142404310Y-97358200D01*
X144561928Y-97358200D01*
X144561928Y-97370000D01*
X144574188Y-97494482D01*
X144610498Y-97614180D01*
X144669463Y-97724494D01*
X144748815Y-97821185D01*
X144845506Y-97900537D01*
X144955820Y-97959502D01*
X145075518Y-97995812D01*
X145200000Y-98008072D01*
X146900000Y-98008072D01*
X147024482Y-97995812D01*
X147144180Y-97959502D01*
X147254494Y-97900537D01*
X147320000Y-97846778D01*
X147385506Y-97900537D01*
X147495820Y-97959502D01*
X147615518Y-97995812D01*
X147740000Y-98008072D01*
X148304250Y-98005000D01*
X148463000Y-97846250D01*
X148463000Y-96647000D01*
X148717000Y-96647000D01*
X148717000Y-97846250D01*
X148875750Y-98005000D01*
X149440000Y-98008072D01*
X149564482Y-97995812D01*
X149684180Y-97959502D01*
X149794494Y-97900537D01*
X149891185Y-97821185D01*
X149970537Y-97724494D01*
X150029502Y-97614180D01*
X150065812Y-97494482D01*
X150078072Y-97370000D01*
X150075000Y-96805750D01*
X149916250Y-96647000D01*
X148717000Y-96647000D01*
X148463000Y-96647000D01*
X148443000Y-96647000D01*
X148443000Y-96393000D01*
X148463000Y-96393000D01*
X148463000Y-96373000D01*
X148717000Y-96373000D01*
X148717000Y-96393000D01*
X149916250Y-96393000D01*
X150075000Y-96234250D01*
X150078072Y-95670000D01*
X150065812Y-95545518D01*
X150029502Y-95425820D01*
X149970537Y-95315506D01*
X149891185Y-95218815D01*
X149794494Y-95139463D01*
X149684180Y-95080498D01*
X149611620Y-95058487D01*
X149743475Y-94926632D01*
X149905990Y-94683411D01*
X150017932Y-94413158D01*
X150075000Y-94126260D01*
X150075000Y-93833740D01*
X150017932Y-93546842D01*
X149905990Y-93276589D01*
X149743475Y-93033368D01*
X149536632Y-92826525D01*
X149293411Y-92664010D01*
X149023158Y-92552068D01*
X148736260Y-92495000D01*
X148443740Y-92495000D01*
X148156842Y-92552068D01*
X147886589Y-92664010D01*
X147643368Y-92826525D01*
X147436525Y-93033368D01*
X147320000Y-93207760D01*
X147203475Y-93033368D01*
X146996632Y-92826525D01*
X146753411Y-92664010D01*
X146483158Y-92552068D01*
X146196260Y-92495000D01*
X145903740Y-92495000D01*
X145616842Y-92552068D01*
X145346589Y-92664010D01*
X145103368Y-92826525D01*
X144896525Y-93033368D01*
X144824073Y-93141800D01*
X142135792Y-93141800D01*
X142084637Y-93065241D01*
X141884759Y-92865363D01*
X141652241Y-92710000D01*
X141884759Y-92554637D01*
X142084637Y-92354759D01*
X142169735Y-92227400D01*
X152073850Y-92227400D01*
X157174797Y-97328348D01*
X157115000Y-97628967D01*
X157115000Y-97951033D01*
X157177832Y-98266912D01*
X157301082Y-98564463D01*
X157480013Y-98832252D01*
X157707748Y-99059987D01*
X157975537Y-99238918D01*
X158273088Y-99362168D01*
X158588967Y-99425000D01*
X158911033Y-99425000D01*
X159226912Y-99362168D01*
X159524463Y-99238918D01*
X159792252Y-99059987D01*
X159926826Y-98925413D01*
X166794192Y-98925413D01*
X166889956Y-99189814D01*
X167179571Y-99330704D01*
X167491108Y-99412384D01*
X167812595Y-99431718D01*
X168131675Y-99387961D01*
X168436088Y-99282795D01*
X168610044Y-99189814D01*
X168705808Y-98925413D01*
X167750000Y-97969605D01*
X166794192Y-98925413D01*
X159926826Y-98925413D01*
X160019987Y-98832252D01*
X160198918Y-98564463D01*
X160201717Y-98557707D01*
X160322783Y-98520982D01*
X160459572Y-98447866D01*
X160579469Y-98349469D01*
X160604128Y-98319422D01*
X161070955Y-97852595D01*
X166108282Y-97852595D01*
X166152039Y-98171675D01*
X166257205Y-98476088D01*
X166350186Y-98650044D01*
X166614587Y-98745808D01*
X167570395Y-97790000D01*
X167929605Y-97790000D01*
X168885413Y-98745808D01*
X169149814Y-98650044D01*
X169290704Y-98360429D01*
X169372384Y-98048892D01*
X169391718Y-97727405D01*
X169347961Y-97408325D01*
X169242795Y-97103912D01*
X169149814Y-96929956D01*
X168885413Y-96834192D01*
X167929605Y-97790000D01*
X167570395Y-97790000D01*
X166614587Y-96834192D01*
X166350186Y-96929956D01*
X166209296Y-97219571D01*
X166127616Y-97531108D01*
X166108282Y-97852595D01*
X161070955Y-97852595D01*
X162268963Y-96654587D01*
X166794192Y-96654587D01*
X167750000Y-97610395D01*
X168705808Y-96654587D01*
X168610044Y-96390186D01*
X168320429Y-96249296D01*
X168008892Y-96167616D01*
X167687405Y-96148282D01*
X167368325Y-96192039D01*
X167063912Y-96297205D01*
X166889956Y-96390186D01*
X166794192Y-96654587D01*
X162268963Y-96654587D01*
X165078137Y-93845413D01*
X166794192Y-93845413D01*
X166889956Y-94109814D01*
X167179571Y-94250704D01*
X167491108Y-94332384D01*
X167812595Y-94351718D01*
X168131675Y-94307961D01*
X168436088Y-94202795D01*
X168610044Y-94109814D01*
X168705808Y-93845413D01*
X167750000Y-92889605D01*
X166794192Y-93845413D01*
X165078137Y-93845413D01*
X166113428Y-92810122D01*
X166152039Y-93091675D01*
X166257205Y-93396088D01*
X166350186Y-93570044D01*
X166614587Y-93665808D01*
X167570395Y-92710000D01*
X167929605Y-92710000D01*
X168885413Y-93665808D01*
X169149814Y-93570044D01*
X169290704Y-93280429D01*
X169372384Y-92968892D01*
X169391718Y-92647405D01*
X169347961Y-92328325D01*
X169242795Y-92023912D01*
X169149814Y-91849956D01*
X168885413Y-91754192D01*
X167929605Y-92710000D01*
X167570395Y-92710000D01*
X167556253Y-92695858D01*
X167735858Y-92516253D01*
X167750000Y-92530395D01*
X168705808Y-91574587D01*
X168610044Y-91310186D01*
X168320429Y-91169296D01*
X168008892Y-91087616D01*
X167845746Y-91077805D01*
X170764121Y-88159430D01*
X170837866Y-88069573D01*
X170910982Y-87932783D01*
X170956005Y-87784358D01*
X170971208Y-87630000D01*
X170956005Y-87475643D01*
X170940000Y-87422880D01*
X170940000Y-85216103D01*
X171016842Y-85247932D01*
X171303740Y-85305000D01*
X171596260Y-85305000D01*
X171883158Y-85247932D01*
X172153411Y-85135990D01*
X172396632Y-84973475D01*
X172603475Y-84766632D01*
X172765990Y-84523411D01*
X172877932Y-84253158D01*
X172935000Y-83966260D01*
X172935000Y-83673740D01*
X172877932Y-83386842D01*
X172765990Y-83116589D01*
X172603475Y-82873368D01*
X172396632Y-82666525D01*
X172222240Y-82550000D01*
X172396632Y-82433475D01*
X172603475Y-82226632D01*
X172765990Y-81983411D01*
X172877932Y-81713158D01*
X172935000Y-81426260D01*
X172935000Y-81133740D01*
X172877932Y-80846842D01*
X172765990Y-80576589D01*
X172603475Y-80333368D01*
X172396632Y-80126525D01*
X172222240Y-80010000D01*
X172396632Y-79893475D01*
X172603475Y-79686632D01*
X172765990Y-79443411D01*
X172877932Y-79173158D01*
X172935000Y-78886260D01*
X172935000Y-78593740D01*
X172877932Y-78306842D01*
X172765990Y-78036589D01*
X172603475Y-77793368D01*
X172396632Y-77586525D01*
X172222240Y-77470000D01*
X172396632Y-77353475D01*
X172603475Y-77146632D01*
X172765990Y-76903411D01*
X172877932Y-76633158D01*
X172935000Y-76346260D01*
X172935000Y-76053740D01*
X172877932Y-75766842D01*
X172765990Y-75496589D01*
X172603475Y-75253368D01*
X172396632Y-75046525D01*
X172222240Y-74930000D01*
X172396632Y-74813475D01*
X172603475Y-74606632D01*
X172765990Y-74363411D01*
X172877932Y-74093158D01*
X172935000Y-73806260D01*
X172935000Y-73513740D01*
X172877932Y-73226842D01*
X172765990Y-72956589D01*
X172603475Y-72713368D01*
X172396632Y-72506525D01*
X172222240Y-72390000D01*
X172396632Y-72273475D01*
X172603475Y-72066632D01*
X172765990Y-71823411D01*
X172877932Y-71553158D01*
X172935000Y-71266260D01*
X172935000Y-70973740D01*
X172877932Y-70686842D01*
X172765990Y-70416589D01*
X172603475Y-70173368D01*
X172396632Y-69966525D01*
X172222240Y-69850000D01*
X172396632Y-69733475D01*
X172603475Y-69526632D01*
X172765990Y-69283411D01*
X172877932Y-69013158D01*
X172935000Y-68726260D01*
X172935000Y-68433740D01*
X172877932Y-68146842D01*
X172765990Y-67876589D01*
X172603475Y-67633368D01*
X172396632Y-67426525D01*
X172222240Y-67310000D01*
X172396632Y-67193475D01*
X172603475Y-66986632D01*
X172765990Y-66743411D01*
X172877932Y-66473158D01*
X172935000Y-66186260D01*
X172935000Y-65893740D01*
X172877932Y-65606842D01*
X172765990Y-65336589D01*
X172603475Y-65093368D01*
X172396632Y-64886525D01*
X172222240Y-64770000D01*
X172396632Y-64653475D01*
X172603475Y-64446632D01*
X172765990Y-64203411D01*
X172877932Y-63933158D01*
X172935000Y-63646260D01*
X172935000Y-63353740D01*
X172877932Y-63066842D01*
X172765990Y-62796589D01*
X172603475Y-62553368D01*
X172471620Y-62421513D01*
X172544180Y-62399502D01*
X172654494Y-62340537D01*
X172751185Y-62261185D01*
X172830537Y-62164494D01*
X172889502Y-62054180D01*
X172925812Y-61934482D01*
X172938072Y-61810000D01*
X172938072Y-60110000D01*
X172925812Y-59985518D01*
X172889502Y-59865820D01*
X172830537Y-59755506D01*
X172751185Y-59658815D01*
X172654494Y-59579463D01*
X172544180Y-59520498D01*
X172424482Y-59484188D01*
X172300000Y-59471928D01*
X172288200Y-59471928D01*
X172288200Y-49748072D01*
X172300000Y-49748072D01*
X172424482Y-49735812D01*
X172544180Y-49699502D01*
X172654494Y-49640537D01*
X172751185Y-49561185D01*
X172830537Y-49464494D01*
X172889502Y-49354180D01*
X172925812Y-49234482D01*
X172938072Y-49110000D01*
X172938072Y-47410000D01*
X172925812Y-47285518D01*
X172889502Y-47165820D01*
X172830537Y-47055506D01*
X172751185Y-46958815D01*
X172654494Y-46879463D01*
X172544180Y-46820498D01*
X172471620Y-46798487D01*
X172603475Y-46666632D01*
X172765990Y-46423411D01*
X172877932Y-46153158D01*
X172935000Y-45866260D01*
X172935000Y-45573740D01*
X172877932Y-45286842D01*
X172765990Y-45016589D01*
X172603475Y-44773368D01*
X172396632Y-44566525D01*
X172153411Y-44404010D01*
X171883158Y-44292068D01*
X171596260Y-44235000D01*
X171303740Y-44235000D01*
X171016842Y-44292068D01*
X170746589Y-44404010D01*
X170503368Y-44566525D01*
X170296525Y-44773368D01*
X170134010Y-45016589D01*
X170022068Y-45286842D01*
X169965000Y-45573740D01*
X169965000Y-45866260D01*
X170022068Y-46153158D01*
X170134010Y-46423411D01*
X170296525Y-46666632D01*
X170428380Y-46798487D01*
X170355820Y-46820498D01*
X170245506Y-46879463D01*
X170148815Y-46958815D01*
X170069463Y-47055506D01*
X170010498Y-47165820D01*
X169974188Y-47285518D01*
X169961928Y-47410000D01*
X169961928Y-49110000D01*
X169974188Y-49234482D01*
X170010498Y-49354180D01*
X170069463Y-49464494D01*
X170148815Y-49561185D01*
X170245506Y-49640537D01*
X170355820Y-49699502D01*
X170475518Y-49735812D01*
X170600000Y-49748072D01*
X170611800Y-49748072D01*
X170611800Y-50841169D01*
X170611801Y-50841179D01*
X170611800Y-59471928D01*
X170600000Y-59471928D01*
X170475518Y-59484188D01*
X170355820Y-59520498D01*
X170245506Y-59579463D01*
X170180000Y-59633222D01*
X170114494Y-59579463D01*
X170004180Y-59520498D01*
X169884482Y-59484188D01*
X169760000Y-59471928D01*
X169195750Y-59475000D01*
X169037000Y-59633750D01*
X169037000Y-60833000D01*
X169057000Y-60833000D01*
X169057000Y-61087000D01*
X169037000Y-61087000D01*
X169037000Y-61107000D01*
X168783000Y-61107000D01*
X168783000Y-61087000D01*
X167583750Y-61087000D01*
X167425000Y-61245750D01*
X167421928Y-61810000D01*
X167434188Y-61934482D01*
X167470498Y-62054180D01*
X167529463Y-62164494D01*
X167608815Y-62261185D01*
X167705506Y-62340537D01*
X167815820Y-62399502D01*
X167888380Y-62421513D01*
X167756525Y-62553368D01*
X167594010Y-62796589D01*
X167482068Y-63066842D01*
X167425000Y-63353740D01*
X167425000Y-63480199D01*
X167384000Y-63439199D01*
X167384000Y-60110000D01*
X167421928Y-60110000D01*
X167425000Y-60674250D01*
X167583750Y-60833000D01*
X168783000Y-60833000D01*
X168783000Y-59633750D01*
X168624250Y-59475000D01*
X168060000Y-59471928D01*
X167935518Y-59484188D01*
X167815820Y-59520498D01*
X167705506Y-59579463D01*
X167608815Y-59658815D01*
X167529463Y-59755506D01*
X167470498Y-59865820D01*
X167434188Y-59985518D01*
X167421928Y-60110000D01*
X167384000Y-60110000D01*
X167384000Y-37144801D01*
X171199003Y-33329799D01*
X171228001Y-33306001D01*
X171254332Y-33273917D01*
X171322974Y-33190277D01*
X171393546Y-33058247D01*
X171437003Y-32914986D01*
X171448000Y-32803333D01*
X171448000Y-32803323D01*
X171451676Y-32766000D01*
X171448000Y-32728677D01*
X171448000Y-27978320D01*
X171451676Y-27940997D01*
X171448000Y-27903674D01*
X171448000Y-27903665D01*
X171437003Y-27792012D01*
X171393546Y-27648751D01*
X171322974Y-27516722D01*
X171228001Y-27400997D01*
X171199004Y-27377200D01*
X170234806Y-26413002D01*
X170211003Y-26383999D01*
X170095278Y-26289026D01*
X169963249Y-26218454D01*
X169819988Y-26174997D01*
X169708335Y-26164000D01*
X169708324Y-26164000D01*
X169671002Y-26160324D01*
X169633680Y-26164000D01*
X166661333Y-26164000D01*
X166624000Y-26160323D01*
X166586667Y-26164000D01*
X166475014Y-26174997D01*
X166331753Y-26218454D01*
X166199724Y-26289026D01*
X166083999Y-26383999D01*
X165989026Y-26499724D01*
X165918454Y-26631753D01*
X165874997Y-26775014D01*
X165860323Y-26924000D01*
X165864001Y-26961343D01*
X165864001Y-27423821D01*
X165677368Y-27548525D01*
X165470525Y-27755368D01*
X165354000Y-27929760D01*
X165237475Y-27755368D01*
X165030632Y-27548525D01*
X164787411Y-27386010D01*
X164517158Y-27274068D01*
X164230260Y-27217000D01*
X163937740Y-27217000D01*
X163650842Y-27274068D01*
X163380589Y-27386010D01*
X163137368Y-27548525D01*
X162930525Y-27755368D01*
X162814000Y-27929760D01*
X162697475Y-27755368D01*
X162490632Y-27548525D01*
X162247411Y-27386010D01*
X161977158Y-27274068D01*
X161690260Y-27217000D01*
X161397740Y-27217000D01*
X161110842Y-27274068D01*
X160840589Y-27386010D01*
X160597368Y-27548525D01*
X160390525Y-27755368D01*
X160274000Y-27929760D01*
X160157475Y-27755368D01*
X159950632Y-27548525D01*
X159707411Y-27386010D01*
X159437158Y-27274068D01*
X159150260Y-27217000D01*
X158857740Y-27217000D01*
X158570842Y-27274068D01*
X158300589Y-27386010D01*
X158057368Y-27548525D01*
X157850525Y-27755368D01*
X157734000Y-27929760D01*
X157617475Y-27755368D01*
X157410632Y-27548525D01*
X157167411Y-27386010D01*
X156897158Y-27274068D01*
X156610260Y-27217000D01*
X156317740Y-27217000D01*
X156030842Y-27274068D01*
X155760589Y-27386010D01*
X155517368Y-27548525D01*
X155310525Y-27755368D01*
X155194000Y-27929760D01*
X155077475Y-27755368D01*
X154870632Y-27548525D01*
X154627411Y-27386010D01*
X154357158Y-27274068D01*
X154070260Y-27217000D01*
X153777740Y-27217000D01*
X153490842Y-27274068D01*
X153220589Y-27386010D01*
X152977368Y-27548525D01*
X152770525Y-27755368D01*
X152654000Y-27929760D01*
X152537475Y-27755368D01*
X152330632Y-27548525D01*
X152087411Y-27386010D01*
X151817158Y-27274068D01*
X151530260Y-27217000D01*
X151237740Y-27217000D01*
X150950842Y-27274068D01*
X150680589Y-27386010D01*
X150437368Y-27548525D01*
X150230525Y-27755368D01*
X150114000Y-27929760D01*
X149997475Y-27755368D01*
X149790632Y-27548525D01*
X149547411Y-27386010D01*
X149277158Y-27274068D01*
X148990260Y-27217000D01*
X148697740Y-27217000D01*
X148410842Y-27274068D01*
X148140589Y-27386010D01*
X147897368Y-27548525D01*
X147690525Y-27755368D01*
X147574000Y-27929760D01*
X147457475Y-27755368D01*
X147250632Y-27548525D01*
X147007411Y-27386010D01*
X146737158Y-27274068D01*
X146450260Y-27217000D01*
X146157740Y-27217000D01*
X145870842Y-27274068D01*
X145600589Y-27386010D01*
X145357368Y-27548525D01*
X145150525Y-27755368D01*
X145034000Y-27929760D01*
X144917475Y-27755368D01*
X144710632Y-27548525D01*
X144467411Y-27386010D01*
X144197158Y-27274068D01*
X143910260Y-27217000D01*
X143617740Y-27217000D01*
X143330842Y-27274068D01*
X143060589Y-27386010D01*
X142817368Y-27548525D01*
X142610525Y-27755368D01*
X142494000Y-27929760D01*
X142377475Y-27755368D01*
X142170632Y-27548525D01*
X141927411Y-27386010D01*
X141657158Y-27274068D01*
X141370260Y-27217000D01*
X141077740Y-27217000D01*
X140790842Y-27274068D01*
X140520589Y-27386010D01*
X140277368Y-27548525D01*
X140070525Y-27755368D01*
X139948805Y-27937534D01*
X139879178Y-27820645D01*
X139684269Y-27604412D01*
X139450920Y-27430359D01*
X139188099Y-27305175D01*
X139040890Y-27260524D01*
X138811000Y-27381845D01*
X138811000Y-28575000D01*
X138831000Y-28575000D01*
X138831000Y-28829000D01*
X138811000Y-28829000D01*
X138811000Y-28849000D01*
X138557000Y-28849000D01*
X138557000Y-28829000D01*
X138537000Y-28829000D01*
X138537000Y-28575000D01*
X138557000Y-28575000D01*
X138557000Y-27381845D01*
X138327110Y-27260524D01*
X138179901Y-27305175D01*
X137917080Y-27430359D01*
X137683731Y-27604412D01*
X137488822Y-27820645D01*
X137419195Y-27937534D01*
X137297475Y-27755368D01*
X137090632Y-27548525D01*
X136847411Y-27386010D01*
X136577158Y-27274068D01*
X136290260Y-27217000D01*
X135997740Y-27217000D01*
X135710842Y-27274068D01*
X135440589Y-27386010D01*
X135197368Y-27548525D01*
X134990525Y-27755368D01*
X134874000Y-27929760D01*
X134757475Y-27755368D01*
X134550632Y-27548525D01*
X134307411Y-27386010D01*
X134037158Y-27274068D01*
X133750260Y-27217000D01*
X133457740Y-27217000D01*
X133170842Y-27274068D01*
X132900589Y-27386010D01*
X132657368Y-27548525D01*
X132450525Y-27755368D01*
X132334000Y-27929760D01*
X132217475Y-27755368D01*
X132010632Y-27548525D01*
X131767411Y-27386010D01*
X131497158Y-27274068D01*
X131210260Y-27217000D01*
X130917740Y-27217000D01*
X130630842Y-27274068D01*
X130360589Y-27386010D01*
X130117368Y-27548525D01*
X129910525Y-27755368D01*
X129748010Y-27998589D01*
X129636068Y-28268842D01*
X129579000Y-28555740D01*
X121310000Y-28555740D01*
X121310000Y-25165098D01*
X122075000Y-25165098D01*
X122075000Y-25634902D01*
X122166654Y-26095679D01*
X122346440Y-26529721D01*
X122607450Y-26920349D01*
X122939651Y-27252550D01*
X123330279Y-27513560D01*
X123764321Y-27693346D01*
X124225098Y-27785000D01*
X124694902Y-27785000D01*
X125155679Y-27693346D01*
X125589721Y-27513560D01*
X125980349Y-27252550D01*
X126312550Y-26920349D01*
X126573560Y-26529721D01*
X126753346Y-26095679D01*
X126845000Y-25634902D01*
X126845000Y-25165098D01*
X172875000Y-25165098D01*
X172875000Y-25634902D01*
X172966654Y-26095679D01*
X173146440Y-26529721D01*
X173407450Y-26920349D01*
X173739651Y-27252550D01*
X174130279Y-27513560D01*
X174564321Y-27693346D01*
X175025098Y-27785000D01*
X175494902Y-27785000D01*
X175955679Y-27693346D01*
X176389721Y-27513560D01*
X176780349Y-27252550D01*
X177112550Y-26920349D01*
X177373560Y-26529721D01*
X177553346Y-26095679D01*
X177645000Y-25634902D01*
X177645000Y-25165098D01*
X177553346Y-24704321D01*
X177373560Y-24270279D01*
X177112550Y-23879651D01*
X176780349Y-23547450D01*
X176389721Y-23286440D01*
X175955679Y-23106654D01*
X175494902Y-23015000D01*
X175025098Y-23015000D01*
X174564321Y-23106654D01*
X174130279Y-23286440D01*
X173739651Y-23547450D01*
X173407450Y-23879651D01*
X173146440Y-24270279D01*
X172966654Y-24704321D01*
X172875000Y-25165098D01*
X126845000Y-25165098D01*
X126753346Y-24704321D01*
X126573560Y-24270279D01*
X126312550Y-23879651D01*
X125980349Y-23547450D01*
X125589721Y-23286440D01*
X125155679Y-23106654D01*
X124694902Y-23015000D01*
X124225098Y-23015000D01*
X123764321Y-23106654D01*
X123330279Y-23286440D01*
X122939651Y-23547450D01*
X122607450Y-23879651D01*
X122346440Y-24270279D01*
X122166654Y-24704321D01*
X122075000Y-25165098D01*
X121310000Y-25165098D01*
X121310000Y-22250000D01*
X178664001Y-22250000D01*
X178664000Y-105004000D01*
%TA.AperFunction,Conductor*%
D19*
G36*
X178664000Y-105004000D02*
G01*
X121310000Y-105004000D01*
X121310000Y-101365098D01*
X122075000Y-101365098D01*
X122075000Y-101834902D01*
X122166654Y-102295679D01*
X122346440Y-102729721D01*
X122607450Y-103120349D01*
X122939651Y-103452550D01*
X123330279Y-103713560D01*
X123764321Y-103893346D01*
X124225098Y-103985000D01*
X124694902Y-103985000D01*
X125155679Y-103893346D01*
X125589721Y-103713560D01*
X125980349Y-103452550D01*
X126312550Y-103120349D01*
X126573560Y-102729721D01*
X126753346Y-102295679D01*
X126845000Y-101834902D01*
X126845000Y-101365098D01*
X172875000Y-101365098D01*
X172875000Y-101834902D01*
X172966654Y-102295679D01*
X173146440Y-102729721D01*
X173407450Y-103120349D01*
X173739651Y-103452550D01*
X174130279Y-103713560D01*
X174564321Y-103893346D01*
X175025098Y-103985000D01*
X175494902Y-103985000D01*
X175955679Y-103893346D01*
X176389721Y-103713560D01*
X176780349Y-103452550D01*
X177112550Y-103120349D01*
X177373560Y-102729721D01*
X177553346Y-102295679D01*
X177645000Y-101834902D01*
X177645000Y-101365098D01*
X177553346Y-100904321D01*
X177373560Y-100470279D01*
X177112550Y-100079651D01*
X176780349Y-99747450D01*
X176389721Y-99486440D01*
X175955679Y-99306654D01*
X175494902Y-99215000D01*
X175025098Y-99215000D01*
X174564321Y-99306654D01*
X174130279Y-99486440D01*
X173739651Y-99747450D01*
X173407450Y-100079651D01*
X173146440Y-100470279D01*
X172966654Y-100904321D01*
X172875000Y-101365098D01*
X126845000Y-101365098D01*
X126753346Y-100904321D01*
X126573560Y-100470279D01*
X126312550Y-100079651D01*
X125980349Y-99747450D01*
X125589721Y-99486440D01*
X125155679Y-99306654D01*
X124694902Y-99215000D01*
X124225098Y-99215000D01*
X123764321Y-99306654D01*
X123330279Y-99486440D01*
X122939651Y-99747450D01*
X122607450Y-100079651D01*
X122346440Y-100470279D01*
X122166654Y-100904321D01*
X122075000Y-101365098D01*
X121310000Y-101365098D01*
X121310000Y-52490000D01*
X125511928Y-52490000D01*
X125511928Y-54190000D01*
X125524188Y-54314482D01*
X125560498Y-54434180D01*
X125619463Y-54544494D01*
X125698815Y-54641185D01*
X125795506Y-54720537D01*
X125905820Y-54779502D01*
X125978380Y-54801513D01*
X125846525Y-54933368D01*
X125684010Y-55176589D01*
X125572068Y-55446842D01*
X125515000Y-55733740D01*
X125515000Y-56026260D01*
X125572068Y-56313158D01*
X125684010Y-56583411D01*
X125846525Y-56826632D01*
X126053368Y-57033475D01*
X126227760Y-57150000D01*
X126053368Y-57266525D01*
X125846525Y-57473368D01*
X125684010Y-57716589D01*
X125572068Y-57986842D01*
X125515000Y-58273740D01*
X125515000Y-58566260D01*
X125572068Y-58853158D01*
X125684010Y-59123411D01*
X125846525Y-59366632D01*
X126053368Y-59573475D01*
X126296589Y-59735990D01*
X126566842Y-59847932D01*
X126853740Y-59905000D01*
X127146260Y-59905000D01*
X127274165Y-59879558D01*
X128918194Y-61523588D01*
X128944436Y-61555564D01*
X128976412Y-61581806D01*
X128976414Y-61581808D01*
X129072068Y-61660309D01*
X129217683Y-61738142D01*
X129375684Y-61786071D01*
X129498830Y-61798200D01*
X129498839Y-61798200D01*
X129539999Y-61802254D01*
X129581159Y-61798200D01*
X135934073Y-61798200D01*
X136006525Y-61906632D01*
X136213368Y-62113475D01*
X136456589Y-62275990D01*
X136726842Y-62387932D01*
X137013740Y-62445000D01*
X137306260Y-62445000D01*
X137593158Y-62387932D01*
X137863411Y-62275990D01*
X138106632Y-62113475D01*
X138313475Y-61906632D01*
X138430000Y-61732240D01*
X138546525Y-61906632D01*
X138753368Y-62113475D01*
X138996589Y-62275990D01*
X139266842Y-62387932D01*
X139553740Y-62445000D01*
X139846260Y-62445000D01*
X140133158Y-62387932D01*
X140403411Y-62275990D01*
X140646632Y-62113475D01*
X140853475Y-61906632D01*
X141015990Y-61663411D01*
X141127932Y-61393158D01*
X141185000Y-61106260D01*
X141185000Y-60813740D01*
X141127932Y-60526842D01*
X141015990Y-60256589D01*
X140853475Y-60013368D01*
X140646632Y-59806525D01*
X140464466Y-59684805D01*
X140581355Y-59615178D01*
X140797588Y-59420269D01*
X140971641Y-59186920D01*
X141096825Y-58924099D01*
X141141476Y-58776890D01*
X141020155Y-58547000D01*
X139827000Y-58547000D01*
X139827000Y-58567000D01*
X139573000Y-58567000D01*
X139573000Y-58547000D01*
X139553000Y-58547000D01*
X139553000Y-58293000D01*
X139573000Y-58293000D01*
X139573000Y-58273000D01*
X139827000Y-58273000D01*
X139827000Y-58293000D01*
X141020155Y-58293000D01*
X141141476Y-58063110D01*
X141096825Y-57915901D01*
X140971641Y-57653080D01*
X140797588Y-57419731D01*
X140713534Y-57343966D01*
X140794180Y-57319502D01*
X140904494Y-57260537D01*
X141001185Y-57181185D01*
X141080537Y-57084494D01*
X141139502Y-56974180D01*
X141175812Y-56854482D01*
X141188072Y-56730000D01*
X141188072Y-56640000D01*
X144465199Y-56640000D01*
X146560000Y-58734803D01*
X146560001Y-73622667D01*
X146556324Y-73660000D01*
X146570998Y-73808985D01*
X146614454Y-73952246D01*
X146685026Y-74084276D01*
X146756201Y-74171002D01*
X146780000Y-74200001D01*
X146808998Y-74223799D01*
X150958790Y-78373592D01*
X150915000Y-78593740D01*
X150915000Y-78886260D01*
X150972068Y-79173158D01*
X151084010Y-79443411D01*
X151246525Y-79686632D01*
X151453368Y-79893475D01*
X151627760Y-80010000D01*
X151453368Y-80126525D01*
X151246525Y-80333368D01*
X151084010Y-80576589D01*
X150972068Y-80846842D01*
X150915000Y-81133740D01*
X150915000Y-81426260D01*
X150972068Y-81713158D01*
X151084010Y-81983411D01*
X151246525Y-82226632D01*
X151453368Y-82433475D01*
X151627760Y-82550000D01*
X151453368Y-82666525D01*
X151246525Y-82873368D01*
X151084010Y-83116589D01*
X150972068Y-83386842D01*
X150915000Y-83673740D01*
X150915000Y-83966260D01*
X150972068Y-84253158D01*
X151084010Y-84523411D01*
X151246525Y-84766632D01*
X151453368Y-84973475D01*
X151696589Y-85135990D01*
X151966842Y-85247932D01*
X152253740Y-85305000D01*
X152546260Y-85305000D01*
X152833158Y-85247932D01*
X153103411Y-85135990D01*
X153346632Y-84973475D01*
X153553475Y-84766632D01*
X153670000Y-84592240D01*
X153786525Y-84766632D01*
X153993368Y-84973475D01*
X154236589Y-85135990D01*
X154506842Y-85247932D01*
X154793740Y-85305000D01*
X155086260Y-85305000D01*
X155373158Y-85247932D01*
X155643411Y-85135990D01*
X155886632Y-84973475D01*
X156093475Y-84766632D01*
X156255990Y-84523411D01*
X156367932Y-84253158D01*
X156425000Y-83966260D01*
X156425000Y-83673740D01*
X156367932Y-83386842D01*
X156255990Y-83116589D01*
X156093475Y-82873368D01*
X155886632Y-82666525D01*
X155712240Y-82550000D01*
X155886632Y-82433475D01*
X156093475Y-82226632D01*
X156255990Y-81983411D01*
X156367932Y-81713158D01*
X156425000Y-81426260D01*
X156425000Y-81133740D01*
X156367932Y-80846842D01*
X156255990Y-80576589D01*
X156093475Y-80333368D01*
X155886632Y-80126525D01*
X155712240Y-80010000D01*
X155886632Y-79893475D01*
X156093475Y-79686632D01*
X156255990Y-79443411D01*
X156367932Y-79173158D01*
X156425000Y-78886260D01*
X156425000Y-78593740D01*
X156367932Y-78306842D01*
X156255990Y-78036589D01*
X156093475Y-77793368D01*
X155886632Y-77586525D01*
X155712240Y-77470000D01*
X155886632Y-77353475D01*
X156093475Y-77146632D01*
X156255990Y-76903411D01*
X156367932Y-76633158D01*
X156425000Y-76346260D01*
X156425000Y-76053740D01*
X156367932Y-75766842D01*
X156255990Y-75496589D01*
X156120295Y-75293508D01*
X159261003Y-72152801D01*
X159290001Y-72129003D01*
X159384974Y-72013278D01*
X159455546Y-71881249D01*
X159499003Y-71737988D01*
X159510000Y-71626335D01*
X159513677Y-71589002D01*
X159510000Y-71551669D01*
X159510000Y-49993550D01*
X160938347Y-48565203D01*
X161238967Y-48625000D01*
X161561033Y-48625000D01*
X161876912Y-48562168D01*
X162174463Y-48438918D01*
X162442252Y-48259987D01*
X162669987Y-48032252D01*
X162848918Y-47764463D01*
X162972168Y-47466912D01*
X163035000Y-47151033D01*
X163035000Y-46828967D01*
X162972168Y-46513088D01*
X162848918Y-46215537D01*
X162669987Y-45947748D01*
X162442252Y-45720013D01*
X162174463Y-45541082D01*
X161876912Y-45417832D01*
X161561033Y-45355000D01*
X161238967Y-45355000D01*
X160923088Y-45417832D01*
X160625537Y-45541082D01*
X160357748Y-45720013D01*
X160130013Y-45947748D01*
X159951082Y-46215537D01*
X159827832Y-46513088D01*
X159765000Y-46828967D01*
X159765000Y-47151033D01*
X159824797Y-47451653D01*
X158165879Y-49110571D01*
X158092135Y-49200428D01*
X158019018Y-49337218D01*
X157973995Y-49485643D01*
X157958792Y-49640000D01*
X157973995Y-49794357D01*
X157990000Y-49847120D01*
X157990001Y-71274199D01*
X156271110Y-72993091D01*
X156255990Y-72956589D01*
X156093475Y-72713368D01*
X155886632Y-72506525D01*
X155712240Y-72390000D01*
X155886632Y-72273475D01*
X156093475Y-72066632D01*
X156255990Y-71823411D01*
X156367932Y-71553158D01*
X156425000Y-71266260D01*
X156425000Y-70973740D01*
X156367932Y-70686842D01*
X156255990Y-70416589D01*
X156093475Y-70173368D01*
X155886632Y-69966525D01*
X155712240Y-69850000D01*
X155886632Y-69733475D01*
X156093475Y-69526632D01*
X156255990Y-69283411D01*
X156367932Y-69013158D01*
X156425000Y-68726260D01*
X156425000Y-68433740D01*
X156367932Y-68146842D01*
X156255990Y-67876589D01*
X156093475Y-67633368D01*
X155886632Y-67426525D01*
X155712240Y-67310000D01*
X155886632Y-67193475D01*
X156093475Y-66986632D01*
X156255990Y-66743411D01*
X156367932Y-66473158D01*
X156425000Y-66186260D01*
X156425000Y-65893740D01*
X156367932Y-65606842D01*
X156255990Y-65336589D01*
X156093475Y-65093368D01*
X155886632Y-64886525D01*
X155712240Y-64770000D01*
X155886632Y-64653475D01*
X156093475Y-64446632D01*
X156255990Y-64203411D01*
X156367932Y-63933158D01*
X156425000Y-63646260D01*
X156425000Y-63353740D01*
X156367932Y-63066842D01*
X156255990Y-62796589D01*
X156093475Y-62553368D01*
X155961620Y-62421513D01*
X156034180Y-62399502D01*
X156144494Y-62340537D01*
X156241185Y-62261185D01*
X156320537Y-62164494D01*
X156379502Y-62054180D01*
X156415812Y-61934482D01*
X156428072Y-61810000D01*
X156428072Y-60110000D01*
X156415812Y-59985518D01*
X156379502Y-59865820D01*
X156320537Y-59755506D01*
X156241185Y-59658815D01*
X156144494Y-59579463D01*
X156034180Y-59520498D01*
X155914482Y-59484188D01*
X155790000Y-59471928D01*
X154090000Y-59471928D01*
X153965518Y-59484188D01*
X153845820Y-59520498D01*
X153735506Y-59579463D01*
X153670000Y-59633222D01*
X153604494Y-59579463D01*
X153494180Y-59520498D01*
X153374482Y-59484188D01*
X153250000Y-59471928D01*
X151550000Y-59471928D01*
X151425518Y-59484188D01*
X151305820Y-59520498D01*
X151195506Y-59579463D01*
X151098815Y-59658815D01*
X151019463Y-59755506D01*
X150960498Y-59865820D01*
X150924188Y-59985518D01*
X150911928Y-60110000D01*
X150911928Y-61810000D01*
X150924188Y-61934482D01*
X150960498Y-62054180D01*
X151019463Y-62164494D01*
X151098815Y-62261185D01*
X151195506Y-62340537D01*
X151305820Y-62399502D01*
X151378380Y-62421513D01*
X151246525Y-62553368D01*
X151084010Y-62796589D01*
X150972068Y-63066842D01*
X150915000Y-63353740D01*
X150915000Y-63646260D01*
X150972068Y-63933158D01*
X151084010Y-64203411D01*
X151246525Y-64446632D01*
X151453368Y-64653475D01*
X151627760Y-64770000D01*
X151453368Y-64886525D01*
X151246525Y-65093368D01*
X151084010Y-65336589D01*
X150972068Y-65606842D01*
X150915000Y-65893740D01*
X150915000Y-66186260D01*
X150972068Y-66473158D01*
X151084010Y-66743411D01*
X151246525Y-66986632D01*
X151453368Y-67193475D01*
X151627760Y-67310000D01*
X151453368Y-67426525D01*
X151246525Y-67633368D01*
X151084010Y-67876589D01*
X150972068Y-68146842D01*
X150915000Y-68433740D01*
X150915000Y-68726260D01*
X150972068Y-69013158D01*
X151084010Y-69283411D01*
X151246525Y-69526632D01*
X151453368Y-69733475D01*
X151627760Y-69850000D01*
X151453368Y-69966525D01*
X151246525Y-70173368D01*
X151084010Y-70416589D01*
X150972068Y-70686842D01*
X150915000Y-70973740D01*
X150915000Y-71100199D01*
X150620000Y-70805199D01*
X150620000Y-59496801D01*
X156831003Y-53285799D01*
X156860001Y-53262001D01*
X156954974Y-53146276D01*
X157025546Y-53014247D01*
X157069003Y-52870986D01*
X157080000Y-52759333D01*
X157083677Y-52722000D01*
X157080000Y-52684667D01*
X157080000Y-47343550D01*
X160938348Y-43485203D01*
X161238967Y-43545000D01*
X161561033Y-43545000D01*
X161876912Y-43482168D01*
X162174463Y-43358918D01*
X162442252Y-43179987D01*
X162669987Y-42952252D01*
X162848918Y-42684463D01*
X162972168Y-42386912D01*
X163035000Y-42071033D01*
X163035000Y-41748967D01*
X162972168Y-41433088D01*
X162848918Y-41135537D01*
X162669987Y-40867748D01*
X162442252Y-40640013D01*
X162174463Y-40461082D01*
X161876912Y-40337832D01*
X161561033Y-40275000D01*
X161238967Y-40275000D01*
X160923088Y-40337832D01*
X160625537Y-40461082D01*
X160357748Y-40640013D01*
X160130013Y-40867748D01*
X159951082Y-41135537D01*
X159827832Y-41433088D01*
X159765000Y-41748967D01*
X159765000Y-42071033D01*
X159824797Y-42371652D01*
X155735879Y-46460571D01*
X155662135Y-46550428D01*
X155589018Y-46687218D01*
X155543995Y-46835643D01*
X155528792Y-46990000D01*
X155543995Y-47144357D01*
X155560000Y-47197120D01*
X155560001Y-52407197D01*
X149349003Y-58618196D01*
X149319999Y-58641999D01*
X149264871Y-58709174D01*
X149225026Y-58757724D01*
X149178763Y-58844275D01*
X149154454Y-58889754D01*
X149110997Y-59033015D01*
X149100000Y-59144668D01*
X149100000Y-59144678D01*
X149096324Y-59182000D01*
X149100000Y-59219323D01*
X149100001Y-62192659D01*
X149100000Y-62192668D01*
X149100000Y-62446668D01*
X149100001Y-71082668D01*
X149096324Y-71120000D01*
X149110998Y-71268985D01*
X149154454Y-71412246D01*
X149225026Y-71544276D01*
X149292371Y-71626335D01*
X149320000Y-71660001D01*
X149348998Y-71683799D01*
X150958790Y-73293593D01*
X150915000Y-73513740D01*
X150915000Y-73806260D01*
X150972068Y-74093158D01*
X151084010Y-74363411D01*
X151246525Y-74606632D01*
X151453368Y-74813475D01*
X151627760Y-74930000D01*
X151453368Y-75046525D01*
X151246525Y-75253368D01*
X151084010Y-75496589D01*
X150972068Y-75766842D01*
X150915000Y-76053740D01*
X150915000Y-76180198D01*
X148080000Y-73345199D01*
X148080000Y-58457322D01*
X148083676Y-58419999D01*
X148080000Y-58382676D01*
X148080000Y-58382667D01*
X148069003Y-58271014D01*
X148025546Y-58127753D01*
X147954974Y-57995724D01*
X147941811Y-57979685D01*
X147883799Y-57908996D01*
X147883795Y-57908992D01*
X147860001Y-57879999D01*
X147831009Y-57856206D01*
X145343804Y-55369003D01*
X145320001Y-55339999D01*
X145204276Y-55245026D01*
X145072247Y-55174454D01*
X144928986Y-55130997D01*
X144817333Y-55120000D01*
X144817322Y-55120000D01*
X144780000Y-55116324D01*
X144742678Y-55120000D01*
X141188072Y-55120000D01*
X141188072Y-55030000D01*
X141175812Y-54905518D01*
X141139502Y-54785820D01*
X141080537Y-54675506D01*
X141001185Y-54578815D01*
X140904494Y-54499463D01*
X140794180Y-54440498D01*
X140674482Y-54404188D01*
X140550000Y-54391928D01*
X138850000Y-54391928D01*
X138725518Y-54404188D01*
X138605820Y-54440498D01*
X138495506Y-54499463D01*
X138430000Y-54553222D01*
X138364494Y-54499463D01*
X138254180Y-54440498D01*
X138134482Y-54404188D01*
X138010000Y-54391928D01*
X136785479Y-54391928D01*
X135204128Y-52810578D01*
X135179469Y-52780531D01*
X135059572Y-52682134D01*
X134922783Y-52609018D01*
X134774357Y-52563994D01*
X134658673Y-52552600D01*
X134658663Y-52552600D01*
X134620000Y-52548792D01*
X134581337Y-52552600D01*
X128488072Y-52552600D01*
X128488072Y-52490000D01*
X128475812Y-52365518D01*
X128439502Y-52245820D01*
X128380537Y-52135506D01*
X128301185Y-52038815D01*
X128204494Y-51959463D01*
X128094180Y-51900498D01*
X127974482Y-51864188D01*
X127850000Y-51851928D01*
X126150000Y-51851928D01*
X126025518Y-51864188D01*
X125905820Y-51900498D01*
X125795506Y-51959463D01*
X125698815Y-52038815D01*
X125619463Y-52135506D01*
X125560498Y-52245820D01*
X125524188Y-52365518D01*
X125511928Y-52490000D01*
X121310000Y-52490000D01*
X121310000Y-39790000D01*
X125511928Y-39790000D01*
X125511928Y-41490000D01*
X125524188Y-41614482D01*
X125560498Y-41734180D01*
X125619463Y-41844494D01*
X125698815Y-41941185D01*
X125795506Y-42020537D01*
X125905820Y-42079502D01*
X125978380Y-42101513D01*
X125846525Y-42233368D01*
X125684010Y-42476589D01*
X125572068Y-42746842D01*
X125515000Y-43033740D01*
X125515000Y-43326260D01*
X125572068Y-43613158D01*
X125684010Y-43883411D01*
X125846525Y-44126632D01*
X126053368Y-44333475D01*
X126227760Y-44450000D01*
X126053368Y-44566525D01*
X125846525Y-44773368D01*
X125684010Y-45016589D01*
X125572068Y-45286842D01*
X125515000Y-45573740D01*
X125515000Y-45866260D01*
X125572068Y-46153158D01*
X125684010Y-46423411D01*
X125846525Y-46666632D01*
X126053368Y-46873475D01*
X126296589Y-47035990D01*
X126566842Y-47147932D01*
X126853740Y-47205000D01*
X127146260Y-47205000D01*
X127433158Y-47147932D01*
X127703411Y-47035990D01*
X127946632Y-46873475D01*
X128153475Y-46666632D01*
X128270000Y-46492240D01*
X128386525Y-46666632D01*
X128593368Y-46873475D01*
X128836589Y-47035990D01*
X129106842Y-47147932D01*
X129393740Y-47205000D01*
X129686260Y-47205000D01*
X129906408Y-47161209D01*
X134056201Y-51311003D01*
X134079999Y-51340001D01*
X134108997Y-51363799D01*
X134195723Y-51434974D01*
X134317955Y-51500309D01*
X134327753Y-51505546D01*
X134471014Y-51549003D01*
X134582667Y-51560000D01*
X134582677Y-51560000D01*
X134620000Y-51563676D01*
X134657323Y-51560000D01*
X135881822Y-51560000D01*
X136006525Y-51746632D01*
X136213368Y-51953475D01*
X136456589Y-52115990D01*
X136726842Y-52227932D01*
X137013740Y-52285000D01*
X137306260Y-52285000D01*
X137593158Y-52227932D01*
X137863411Y-52115990D01*
X138106632Y-51953475D01*
X138313475Y-51746632D01*
X138430000Y-51572240D01*
X138546525Y-51746632D01*
X138753368Y-51953475D01*
X138996589Y-52115990D01*
X139266842Y-52227932D01*
X139553740Y-52285000D01*
X139846260Y-52285000D01*
X140133158Y-52227932D01*
X140403411Y-52115990D01*
X140646632Y-51953475D01*
X140853475Y-51746632D01*
X141015990Y-51503411D01*
X141127932Y-51233158D01*
X141185000Y-50946260D01*
X141185000Y-50653740D01*
X141127932Y-50366842D01*
X141015990Y-50096589D01*
X140853475Y-49853368D01*
X140646632Y-49646525D01*
X140472240Y-49530000D01*
X140646632Y-49413475D01*
X140853475Y-49206632D01*
X141015990Y-48963411D01*
X141127932Y-48693158D01*
X141185000Y-48406260D01*
X141185000Y-48113740D01*
X141127932Y-47826842D01*
X141015990Y-47556589D01*
X140853475Y-47313368D01*
X140646632Y-47106525D01*
X140472240Y-46990000D01*
X140646632Y-46873475D01*
X140853475Y-46666632D01*
X140959870Y-46507400D01*
X141913850Y-46507400D01*
X142925881Y-47519433D01*
X142950531Y-47549469D01*
X142980567Y-47574119D01*
X142980569Y-47574121D01*
X143044055Y-47626222D01*
X143070428Y-47647866D01*
X143207217Y-47720982D01*
X143355643Y-47766006D01*
X143471327Y-47777400D01*
X143471336Y-47777400D01*
X143509999Y-47781208D01*
X143548662Y-47777400D01*
X150959726Y-47777400D01*
X151130013Y-48032252D01*
X151357748Y-48259987D01*
X151625537Y-48438918D01*
X151923088Y-48562168D01*
X152238967Y-48625000D01*
X152561033Y-48625000D01*
X152876912Y-48562168D01*
X153174463Y-48438918D01*
X153442252Y-48259987D01*
X153669987Y-48032252D01*
X153848918Y-47764463D01*
X153972168Y-47466912D01*
X154035000Y-47151033D01*
X154035000Y-46828967D01*
X153972168Y-46513088D01*
X153848918Y-46215537D01*
X153669987Y-45947748D01*
X153442252Y-45720013D01*
X153174463Y-45541082D01*
X152876912Y-45417832D01*
X152561033Y-45355000D01*
X152238967Y-45355000D01*
X151923088Y-45417832D01*
X151625537Y-45541082D01*
X151357748Y-45720013D01*
X151130013Y-45947748D01*
X150959726Y-46202600D01*
X143836152Y-46202600D01*
X142824127Y-45190577D01*
X142799469Y-45160531D01*
X142679572Y-45062134D01*
X142542783Y-44989018D01*
X142394357Y-44943994D01*
X142278673Y-44932600D01*
X142278663Y-44932600D01*
X142240000Y-44928792D01*
X142201337Y-44932600D01*
X140959870Y-44932600D01*
X140853475Y-44773368D01*
X140646632Y-44566525D01*
X140472240Y-44450000D01*
X140646632Y-44333475D01*
X140853475Y-44126632D01*
X140959870Y-43967400D01*
X142201337Y-43967400D01*
X142240000Y-43971208D01*
X142278663Y-43967400D01*
X142278673Y-43967400D01*
X142394357Y-43956006D01*
X142542783Y-43910982D01*
X142679572Y-43837866D01*
X142799469Y-43739469D01*
X142824127Y-43709423D01*
X143836152Y-42697400D01*
X150959726Y-42697400D01*
X151130013Y-42952252D01*
X151357748Y-43179987D01*
X151625537Y-43358918D01*
X151923088Y-43482168D01*
X152238967Y-43545000D01*
X152561033Y-43545000D01*
X152876912Y-43482168D01*
X153174463Y-43358918D01*
X153442252Y-43179987D01*
X153669987Y-42952252D01*
X153848918Y-42684463D01*
X153972168Y-42386912D01*
X154035000Y-42071033D01*
X154035000Y-41748967D01*
X153972168Y-41433088D01*
X153848918Y-41135537D01*
X153669987Y-40867748D01*
X153442252Y-40640013D01*
X153174463Y-40461082D01*
X152876912Y-40337832D01*
X152561033Y-40275000D01*
X152238967Y-40275000D01*
X151923088Y-40337832D01*
X151625537Y-40461082D01*
X151357748Y-40640013D01*
X151130013Y-40867748D01*
X150959726Y-41122600D01*
X143548662Y-41122600D01*
X143509999Y-41118792D01*
X143471336Y-41122600D01*
X143471327Y-41122600D01*
X143355643Y-41133994D01*
X143207217Y-41179018D01*
X143070428Y-41252134D01*
X143070426Y-41252135D01*
X143070427Y-41252135D01*
X142980569Y-41325879D01*
X142980567Y-41325881D01*
X142950531Y-41350531D01*
X142925881Y-41380567D01*
X141913850Y-42392600D01*
X140959870Y-42392600D01*
X140853475Y-42233368D01*
X140646632Y-42026525D01*
X140472240Y-41910000D01*
X140646632Y-41793475D01*
X140853475Y-41586632D01*
X141015990Y-41343411D01*
X141127932Y-41073158D01*
X141185000Y-40786260D01*
X141185000Y-40493740D01*
X141127932Y-40206842D01*
X141015990Y-39936589D01*
X140853475Y-39693368D01*
X140721620Y-39561513D01*
X140794180Y-39539502D01*
X140904494Y-39480537D01*
X141001185Y-39401185D01*
X141080537Y-39304494D01*
X141139502Y-39194180D01*
X141175812Y-39074482D01*
X141188072Y-38950000D01*
X141185000Y-38385750D01*
X141026250Y-38227000D01*
X139827000Y-38227000D01*
X139827000Y-38247000D01*
X139573000Y-38247000D01*
X139573000Y-38227000D01*
X139553000Y-38227000D01*
X139553000Y-37973000D01*
X139573000Y-37973000D01*
X139573000Y-36773750D01*
X139827000Y-36773750D01*
X139827000Y-37973000D01*
X141026250Y-37973000D01*
X141185000Y-37814250D01*
X141188072Y-37250000D01*
X141175812Y-37125518D01*
X141139502Y-37005820D01*
X141080537Y-36895506D01*
X141001185Y-36798815D01*
X140904494Y-36719463D01*
X140794180Y-36660498D01*
X140674482Y-36624188D01*
X140550000Y-36611928D01*
X139985750Y-36615000D01*
X139827000Y-36773750D01*
X139573000Y-36773750D01*
X139414250Y-36615000D01*
X138850000Y-36611928D01*
X138725518Y-36624188D01*
X138605820Y-36660498D01*
X138495506Y-36719463D01*
X138430000Y-36773222D01*
X138364494Y-36719463D01*
X138254180Y-36660498D01*
X138134482Y-36624188D01*
X138010000Y-36611928D01*
X136310000Y-36611928D01*
X136185518Y-36624188D01*
X136065820Y-36660498D01*
X135955506Y-36719463D01*
X135858815Y-36798815D01*
X135779463Y-36895506D01*
X135720498Y-37005820D01*
X135684188Y-37125518D01*
X135671928Y-37250000D01*
X135671928Y-37261800D01*
X129581159Y-37261800D01*
X129539999Y-37257746D01*
X129498839Y-37261800D01*
X129498830Y-37261800D01*
X129375684Y-37273929D01*
X129217683Y-37321858D01*
X129127614Y-37370001D01*
X129072068Y-37399691D01*
X128992521Y-37464974D01*
X128944436Y-37504436D01*
X128918194Y-37536412D01*
X127302679Y-39151928D01*
X126150000Y-39151928D01*
X126025518Y-39164188D01*
X125905820Y-39200498D01*
X125795506Y-39259463D01*
X125698815Y-39338815D01*
X125619463Y-39435506D01*
X125560498Y-39545820D01*
X125524188Y-39665518D01*
X125511928Y-39790000D01*
X121310000Y-39790000D01*
X121310000Y-28555740D01*
X129579000Y-28555740D01*
X129579000Y-28848260D01*
X129636068Y-29135158D01*
X129748010Y-29405411D01*
X129910525Y-29648632D01*
X130117368Y-29855475D01*
X130291760Y-29972000D01*
X130117368Y-30088525D01*
X129910525Y-30295368D01*
X129748010Y-30538589D01*
X129636068Y-30808842D01*
X129579000Y-31095740D01*
X129579000Y-31388260D01*
X129636068Y-31675158D01*
X129748010Y-31945411D01*
X129910525Y-32188632D01*
X130117368Y-32395475D01*
X130360589Y-32557990D01*
X130630842Y-32669932D01*
X130917740Y-32727000D01*
X131210260Y-32727000D01*
X131497158Y-32669932D01*
X131767411Y-32557990D01*
X132010632Y-32395475D01*
X132217475Y-32188632D01*
X132334000Y-32014240D01*
X132450525Y-32188632D01*
X132657368Y-32395475D01*
X132900589Y-32557990D01*
X133170842Y-32669932D01*
X133457740Y-32727000D01*
X133750260Y-32727000D01*
X134037158Y-32669932D01*
X134307411Y-32557990D01*
X134550632Y-32395475D01*
X134757475Y-32188632D01*
X134874000Y-32014240D01*
X134990525Y-32188632D01*
X135197368Y-32395475D01*
X135440589Y-32557990D01*
X135710842Y-32669932D01*
X135997740Y-32727000D01*
X136290260Y-32727000D01*
X136577158Y-32669932D01*
X136847411Y-32557990D01*
X137090632Y-32395475D01*
X137297475Y-32188632D01*
X137414000Y-32014240D01*
X137530525Y-32188632D01*
X137737368Y-32395475D01*
X137980589Y-32557990D01*
X138250842Y-32669932D01*
X138537740Y-32727000D01*
X138830260Y-32727000D01*
X139117158Y-32669932D01*
X139387411Y-32557990D01*
X139630632Y-32395475D01*
X139837475Y-32188632D01*
X139954000Y-32014240D01*
X140070525Y-32188632D01*
X140277368Y-32395475D01*
X140520589Y-32557990D01*
X140790842Y-32669932D01*
X141077740Y-32727000D01*
X141370260Y-32727000D01*
X141657158Y-32669932D01*
X141927411Y-32557990D01*
X142170632Y-32395475D01*
X142377475Y-32188632D01*
X142494000Y-32014240D01*
X142610525Y-32188632D01*
X142817368Y-32395475D01*
X143060589Y-32557990D01*
X143330842Y-32669932D01*
X143617740Y-32727000D01*
X143910260Y-32727000D01*
X144197158Y-32669932D01*
X144467411Y-32557990D01*
X144710632Y-32395475D01*
X144917475Y-32188632D01*
X145034000Y-32014240D01*
X145150525Y-32188632D01*
X145357368Y-32395475D01*
X145600589Y-32557990D01*
X145870842Y-32669932D01*
X146157740Y-32727000D01*
X146450260Y-32727000D01*
X146737158Y-32669932D01*
X147007411Y-32557990D01*
X147250632Y-32395475D01*
X147457475Y-32188632D01*
X147574000Y-32014240D01*
X147690525Y-32188632D01*
X147897368Y-32395475D01*
X148140589Y-32557990D01*
X148410842Y-32669932D01*
X148697740Y-32727000D01*
X148990260Y-32727000D01*
X149277158Y-32669932D01*
X149547411Y-32557990D01*
X149790632Y-32395475D01*
X149997475Y-32188632D01*
X150114000Y-32014240D01*
X150230525Y-32188632D01*
X150437368Y-32395475D01*
X150680589Y-32557990D01*
X150950842Y-32669932D01*
X151237740Y-32727000D01*
X151530260Y-32727000D01*
X151817158Y-32669932D01*
X152087411Y-32557990D01*
X152330632Y-32395475D01*
X152537475Y-32188632D01*
X152654000Y-32014240D01*
X152770525Y-32188632D01*
X152977368Y-32395475D01*
X153220589Y-32557990D01*
X153490842Y-32669932D01*
X153777740Y-32727000D01*
X154070260Y-32727000D01*
X154357158Y-32669932D01*
X154627411Y-32557990D01*
X154870632Y-32395475D01*
X155077475Y-32188632D01*
X155194000Y-32014240D01*
X155310525Y-32188632D01*
X155517368Y-32395475D01*
X155760589Y-32557990D01*
X156030842Y-32669932D01*
X156317740Y-32727000D01*
X156610260Y-32727000D01*
X156897158Y-32669932D01*
X157167411Y-32557990D01*
X157410632Y-32395475D01*
X157617475Y-32188632D01*
X157734000Y-32014240D01*
X157850525Y-32188632D01*
X158057368Y-32395475D01*
X158300589Y-32557990D01*
X158570842Y-32669932D01*
X158857740Y-32727000D01*
X159150260Y-32727000D01*
X159437158Y-32669932D01*
X159707411Y-32557990D01*
X159950632Y-32395475D01*
X160157475Y-32188632D01*
X160274000Y-32014240D01*
X160390525Y-32188632D01*
X160597368Y-32395475D01*
X160840589Y-32557990D01*
X161110842Y-32669932D01*
X161397740Y-32727000D01*
X161690260Y-32727000D01*
X161977158Y-32669932D01*
X162247411Y-32557990D01*
X162490632Y-32395475D01*
X162697475Y-32188632D01*
X162819195Y-32006466D01*
X162888822Y-32123355D01*
X163083731Y-32339588D01*
X163317080Y-32513641D01*
X163579901Y-32638825D01*
X163727110Y-32683476D01*
X163957000Y-32562155D01*
X163957000Y-31369000D01*
X163937000Y-31369000D01*
X163937000Y-31115000D01*
X163957000Y-31115000D01*
X163957000Y-31095000D01*
X164211000Y-31095000D01*
X164211000Y-31115000D01*
X164231000Y-31115000D01*
X164231000Y-31369000D01*
X164211000Y-31369000D01*
X164211000Y-32562155D01*
X164440890Y-32683476D01*
X164499001Y-32665850D01*
X164499002Y-64891668D01*
X164495325Y-64929001D01*
X164499002Y-64966334D01*
X164500841Y-64985000D01*
X164509999Y-65077986D01*
X164553455Y-65221247D01*
X164624027Y-65353277D01*
X164695202Y-65440003D01*
X164719001Y-65469002D01*
X164747999Y-65492800D01*
X167468790Y-68213592D01*
X167425000Y-68433740D01*
X167425000Y-68726260D01*
X167482068Y-69013158D01*
X167594010Y-69283411D01*
X167756525Y-69526632D01*
X167963368Y-69733475D01*
X168137760Y-69850000D01*
X167963368Y-69966525D01*
X167756525Y-70173368D01*
X167594010Y-70416589D01*
X167482068Y-70686842D01*
X167425000Y-70973740D01*
X167425000Y-71266260D01*
X167482068Y-71553158D01*
X167594010Y-71823411D01*
X167756525Y-72066632D01*
X167963368Y-72273475D01*
X168137760Y-72390000D01*
X167963368Y-72506525D01*
X167756525Y-72713368D01*
X167594010Y-72956589D01*
X167482068Y-73226842D01*
X167425000Y-73513740D01*
X167425000Y-73806260D01*
X167482068Y-74093158D01*
X167594010Y-74363411D01*
X167756525Y-74606632D01*
X167963368Y-74813475D01*
X168137760Y-74930000D01*
X167963368Y-75046525D01*
X167756525Y-75253368D01*
X167594010Y-75496589D01*
X167482068Y-75766842D01*
X167425000Y-76053740D01*
X167425000Y-76346260D01*
X167482068Y-76633158D01*
X167594010Y-76903411D01*
X167756525Y-77146632D01*
X167963368Y-77353475D01*
X168137760Y-77470000D01*
X167963368Y-77586525D01*
X167756525Y-77793368D01*
X167594010Y-78036589D01*
X167482068Y-78306842D01*
X167425000Y-78593740D01*
X167425000Y-78886260D01*
X167482068Y-79173158D01*
X167594010Y-79443411D01*
X167756525Y-79686632D01*
X167963368Y-79893475D01*
X168137760Y-80010000D01*
X167963368Y-80126525D01*
X167756525Y-80333368D01*
X167594010Y-80576589D01*
X167482068Y-80846842D01*
X167425000Y-81133740D01*
X167425000Y-81426260D01*
X167482068Y-81713158D01*
X167594010Y-81983411D01*
X167756525Y-82226632D01*
X167963368Y-82433475D01*
X168137760Y-82550000D01*
X167963368Y-82666525D01*
X167756525Y-82873368D01*
X167594010Y-83116589D01*
X167482068Y-83386842D01*
X167425000Y-83673740D01*
X167425000Y-83966260D01*
X167482068Y-84253158D01*
X167594010Y-84523411D01*
X167756525Y-84766632D01*
X167963368Y-84973475D01*
X168150001Y-85098179D01*
X168150001Y-86045197D01*
X162245199Y-91950000D01*
X160204909Y-91950000D01*
X160198918Y-91935537D01*
X160019987Y-91667748D01*
X159792252Y-91440013D01*
X159524463Y-91261082D01*
X159226912Y-91137832D01*
X158911033Y-91075000D01*
X158588967Y-91075000D01*
X158288348Y-91134797D01*
X155524128Y-88370578D01*
X155499469Y-88340531D01*
X155379572Y-88242134D01*
X155242783Y-88169018D01*
X155094357Y-88123994D01*
X154978673Y-88112600D01*
X154978663Y-88112600D01*
X154940000Y-88108792D01*
X154901337Y-88112600D01*
X142169735Y-88112600D01*
X142084637Y-87985241D01*
X141884759Y-87785363D01*
X141649727Y-87628320D01*
X141388574Y-87520147D01*
X141111335Y-87465000D01*
X140828665Y-87465000D01*
X140551426Y-87520147D01*
X140290273Y-87628320D01*
X140055241Y-87785363D01*
X139855363Y-87985241D01*
X139698320Y-88220273D01*
X139590147Y-88481426D01*
X139535000Y-88758665D01*
X139535000Y-89041335D01*
X139590147Y-89318574D01*
X139698320Y-89579727D01*
X139855363Y-89814759D01*
X140055241Y-90014637D01*
X140287759Y-90170000D01*
X140055241Y-90325363D01*
X139855363Y-90525241D01*
X139698320Y-90760273D01*
X139590147Y-91021426D01*
X139535000Y-91298665D01*
X139535000Y-91581335D01*
X139590147Y-91858574D01*
X139698320Y-92119727D01*
X139855363Y-92354759D01*
X140055241Y-92554637D01*
X140287759Y-92710000D01*
X140055241Y-92865363D01*
X139855363Y-93065241D01*
X139698320Y-93300273D01*
X139590147Y-93561426D01*
X139535000Y-93838665D01*
X139535000Y-94121335D01*
X139590147Y-94398574D01*
X139698320Y-94659727D01*
X139855363Y-94894759D01*
X140053961Y-95093357D01*
X140045518Y-95094188D01*
X139925820Y-95130498D01*
X139815506Y-95189463D01*
X139718815Y-95268815D01*
X139639463Y-95365506D01*
X139580498Y-95475820D01*
X139544188Y-95595518D01*
X139531928Y-95720000D01*
X139531928Y-97320000D01*
X139544188Y-97444482D01*
X139580498Y-97564180D01*
X139639463Y-97674494D01*
X139718815Y-97771185D01*
X139815506Y-97850537D01*
X139925820Y-97909502D01*
X140045518Y-97945812D01*
X140170000Y-97958072D01*
X141770000Y-97958072D01*
X141894482Y-97945812D01*
X142014180Y-97909502D01*
X142124494Y-97850537D01*
X142221185Y-97771185D01*
X142300537Y-97674494D01*
X142359502Y-97564180D01*
X142395812Y-97444482D01*
X142404310Y-97358200D01*
X144561928Y-97358200D01*
X144561928Y-97370000D01*
X144574188Y-97494482D01*
X144610498Y-97614180D01*
X144669463Y-97724494D01*
X144748815Y-97821185D01*
X144845506Y-97900537D01*
X144955820Y-97959502D01*
X145075518Y-97995812D01*
X145200000Y-98008072D01*
X146900000Y-98008072D01*
X147024482Y-97995812D01*
X147144180Y-97959502D01*
X147254494Y-97900537D01*
X147320000Y-97846778D01*
X147385506Y-97900537D01*
X147495820Y-97959502D01*
X147615518Y-97995812D01*
X147740000Y-98008072D01*
X148304250Y-98005000D01*
X148463000Y-97846250D01*
X148463000Y-96647000D01*
X148717000Y-96647000D01*
X148717000Y-97846250D01*
X148875750Y-98005000D01*
X149440000Y-98008072D01*
X149564482Y-97995812D01*
X149684180Y-97959502D01*
X149794494Y-97900537D01*
X149891185Y-97821185D01*
X149970537Y-97724494D01*
X150029502Y-97614180D01*
X150065812Y-97494482D01*
X150078072Y-97370000D01*
X150075000Y-96805750D01*
X149916250Y-96647000D01*
X148717000Y-96647000D01*
X148463000Y-96647000D01*
X148443000Y-96647000D01*
X148443000Y-96393000D01*
X148463000Y-96393000D01*
X148463000Y-96373000D01*
X148717000Y-96373000D01*
X148717000Y-96393000D01*
X149916250Y-96393000D01*
X150075000Y-96234250D01*
X150078072Y-95670000D01*
X150065812Y-95545518D01*
X150029502Y-95425820D01*
X149970537Y-95315506D01*
X149891185Y-95218815D01*
X149794494Y-95139463D01*
X149684180Y-95080498D01*
X149611620Y-95058487D01*
X149743475Y-94926632D01*
X149905990Y-94683411D01*
X150017932Y-94413158D01*
X150075000Y-94126260D01*
X150075000Y-93833740D01*
X150017932Y-93546842D01*
X149905990Y-93276589D01*
X149743475Y-93033368D01*
X149536632Y-92826525D01*
X149293411Y-92664010D01*
X149023158Y-92552068D01*
X148736260Y-92495000D01*
X148443740Y-92495000D01*
X148156842Y-92552068D01*
X147886589Y-92664010D01*
X147643368Y-92826525D01*
X147436525Y-93033368D01*
X147320000Y-93207760D01*
X147203475Y-93033368D01*
X146996632Y-92826525D01*
X146753411Y-92664010D01*
X146483158Y-92552068D01*
X146196260Y-92495000D01*
X145903740Y-92495000D01*
X145616842Y-92552068D01*
X145346589Y-92664010D01*
X145103368Y-92826525D01*
X144896525Y-93033368D01*
X144824073Y-93141800D01*
X142135792Y-93141800D01*
X142084637Y-93065241D01*
X141884759Y-92865363D01*
X141652241Y-92710000D01*
X141884759Y-92554637D01*
X142084637Y-92354759D01*
X142169735Y-92227400D01*
X152073850Y-92227400D01*
X157174797Y-97328348D01*
X157115000Y-97628967D01*
X157115000Y-97951033D01*
X157177832Y-98266912D01*
X157301082Y-98564463D01*
X157480013Y-98832252D01*
X157707748Y-99059987D01*
X157975537Y-99238918D01*
X158273088Y-99362168D01*
X158588967Y-99425000D01*
X158911033Y-99425000D01*
X159226912Y-99362168D01*
X159524463Y-99238918D01*
X159792252Y-99059987D01*
X159926826Y-98925413D01*
X166794192Y-98925413D01*
X166889956Y-99189814D01*
X167179571Y-99330704D01*
X167491108Y-99412384D01*
X167812595Y-99431718D01*
X168131675Y-99387961D01*
X168436088Y-99282795D01*
X168610044Y-99189814D01*
X168705808Y-98925413D01*
X167750000Y-97969605D01*
X166794192Y-98925413D01*
X159926826Y-98925413D01*
X160019987Y-98832252D01*
X160198918Y-98564463D01*
X160201717Y-98557707D01*
X160322783Y-98520982D01*
X160459572Y-98447866D01*
X160579469Y-98349469D01*
X160604128Y-98319422D01*
X161070955Y-97852595D01*
X166108282Y-97852595D01*
X166152039Y-98171675D01*
X166257205Y-98476088D01*
X166350186Y-98650044D01*
X166614587Y-98745808D01*
X167570395Y-97790000D01*
X167929605Y-97790000D01*
X168885413Y-98745808D01*
X169149814Y-98650044D01*
X169290704Y-98360429D01*
X169372384Y-98048892D01*
X169391718Y-97727405D01*
X169347961Y-97408325D01*
X169242795Y-97103912D01*
X169149814Y-96929956D01*
X168885413Y-96834192D01*
X167929605Y-97790000D01*
X167570395Y-97790000D01*
X166614587Y-96834192D01*
X166350186Y-96929956D01*
X166209296Y-97219571D01*
X166127616Y-97531108D01*
X166108282Y-97852595D01*
X161070955Y-97852595D01*
X162268963Y-96654587D01*
X166794192Y-96654587D01*
X167750000Y-97610395D01*
X168705808Y-96654587D01*
X168610044Y-96390186D01*
X168320429Y-96249296D01*
X168008892Y-96167616D01*
X167687405Y-96148282D01*
X167368325Y-96192039D01*
X167063912Y-96297205D01*
X166889956Y-96390186D01*
X166794192Y-96654587D01*
X162268963Y-96654587D01*
X165078137Y-93845413D01*
X166794192Y-93845413D01*
X166889956Y-94109814D01*
X167179571Y-94250704D01*
X167491108Y-94332384D01*
X167812595Y-94351718D01*
X168131675Y-94307961D01*
X168436088Y-94202795D01*
X168610044Y-94109814D01*
X168705808Y-93845413D01*
X167750000Y-92889605D01*
X166794192Y-93845413D01*
X165078137Y-93845413D01*
X166113428Y-92810122D01*
X166152039Y-93091675D01*
X166257205Y-93396088D01*
X166350186Y-93570044D01*
X166614587Y-93665808D01*
X167570395Y-92710000D01*
X167929605Y-92710000D01*
X168885413Y-93665808D01*
X169149814Y-93570044D01*
X169290704Y-93280429D01*
X169372384Y-92968892D01*
X169391718Y-92647405D01*
X169347961Y-92328325D01*
X169242795Y-92023912D01*
X169149814Y-91849956D01*
X168885413Y-91754192D01*
X167929605Y-92710000D01*
X167570395Y-92710000D01*
X167556253Y-92695858D01*
X167735858Y-92516253D01*
X167750000Y-92530395D01*
X168705808Y-91574587D01*
X168610044Y-91310186D01*
X168320429Y-91169296D01*
X168008892Y-91087616D01*
X167845746Y-91077805D01*
X170764121Y-88159430D01*
X170837866Y-88069573D01*
X170910982Y-87932783D01*
X170956005Y-87784358D01*
X170971208Y-87630000D01*
X170956005Y-87475643D01*
X170940000Y-87422880D01*
X170940000Y-85216103D01*
X171016842Y-85247932D01*
X171303740Y-85305000D01*
X171596260Y-85305000D01*
X171883158Y-85247932D01*
X172153411Y-85135990D01*
X172396632Y-84973475D01*
X172603475Y-84766632D01*
X172765990Y-84523411D01*
X172877932Y-84253158D01*
X172935000Y-83966260D01*
X172935000Y-83673740D01*
X172877932Y-83386842D01*
X172765990Y-83116589D01*
X172603475Y-82873368D01*
X172396632Y-82666525D01*
X172222240Y-82550000D01*
X172396632Y-82433475D01*
X172603475Y-82226632D01*
X172765990Y-81983411D01*
X172877932Y-81713158D01*
X172935000Y-81426260D01*
X172935000Y-81133740D01*
X172877932Y-80846842D01*
X172765990Y-80576589D01*
X172603475Y-80333368D01*
X172396632Y-80126525D01*
X172222240Y-80010000D01*
X172396632Y-79893475D01*
X172603475Y-79686632D01*
X172765990Y-79443411D01*
X172877932Y-79173158D01*
X172935000Y-78886260D01*
X172935000Y-78593740D01*
X172877932Y-78306842D01*
X172765990Y-78036589D01*
X172603475Y-77793368D01*
X172396632Y-77586525D01*
X172222240Y-77470000D01*
X172396632Y-77353475D01*
X172603475Y-77146632D01*
X172765990Y-76903411D01*
X172877932Y-76633158D01*
X172935000Y-76346260D01*
X172935000Y-76053740D01*
X172877932Y-75766842D01*
X172765990Y-75496589D01*
X172603475Y-75253368D01*
X172396632Y-75046525D01*
X172222240Y-74930000D01*
X172396632Y-74813475D01*
X172603475Y-74606632D01*
X172765990Y-74363411D01*
X172877932Y-74093158D01*
X172935000Y-73806260D01*
X172935000Y-73513740D01*
X172877932Y-73226842D01*
X172765990Y-72956589D01*
X172603475Y-72713368D01*
X172396632Y-72506525D01*
X172222240Y-72390000D01*
X172396632Y-72273475D01*
X172603475Y-72066632D01*
X172765990Y-71823411D01*
X172877932Y-71553158D01*
X172935000Y-71266260D01*
X172935000Y-70973740D01*
X172877932Y-70686842D01*
X172765990Y-70416589D01*
X172603475Y-70173368D01*
X172396632Y-69966525D01*
X172222240Y-69850000D01*
X172396632Y-69733475D01*
X172603475Y-69526632D01*
X172765990Y-69283411D01*
X172877932Y-69013158D01*
X172935000Y-68726260D01*
X172935000Y-68433740D01*
X172877932Y-68146842D01*
X172765990Y-67876589D01*
X172603475Y-67633368D01*
X172396632Y-67426525D01*
X172222240Y-67310000D01*
X172396632Y-67193475D01*
X172603475Y-66986632D01*
X172765990Y-66743411D01*
X172877932Y-66473158D01*
X172935000Y-66186260D01*
X172935000Y-65893740D01*
X172877932Y-65606842D01*
X172765990Y-65336589D01*
X172603475Y-65093368D01*
X172396632Y-64886525D01*
X172222240Y-64770000D01*
X172396632Y-64653475D01*
X172603475Y-64446632D01*
X172765990Y-64203411D01*
X172877932Y-63933158D01*
X172935000Y-63646260D01*
X172935000Y-63353740D01*
X172877932Y-63066842D01*
X172765990Y-62796589D01*
X172603475Y-62553368D01*
X172471620Y-62421513D01*
X172544180Y-62399502D01*
X172654494Y-62340537D01*
X172751185Y-62261185D01*
X172830537Y-62164494D01*
X172889502Y-62054180D01*
X172925812Y-61934482D01*
X172938072Y-61810000D01*
X172938072Y-60110000D01*
X172925812Y-59985518D01*
X172889502Y-59865820D01*
X172830537Y-59755506D01*
X172751185Y-59658815D01*
X172654494Y-59579463D01*
X172544180Y-59520498D01*
X172424482Y-59484188D01*
X172300000Y-59471928D01*
X172288200Y-59471928D01*
X172288200Y-49748072D01*
X172300000Y-49748072D01*
X172424482Y-49735812D01*
X172544180Y-49699502D01*
X172654494Y-49640537D01*
X172751185Y-49561185D01*
X172830537Y-49464494D01*
X172889502Y-49354180D01*
X172925812Y-49234482D01*
X172938072Y-49110000D01*
X172938072Y-47410000D01*
X172925812Y-47285518D01*
X172889502Y-47165820D01*
X172830537Y-47055506D01*
X172751185Y-46958815D01*
X172654494Y-46879463D01*
X172544180Y-46820498D01*
X172471620Y-46798487D01*
X172603475Y-46666632D01*
X172765990Y-46423411D01*
X172877932Y-46153158D01*
X172935000Y-45866260D01*
X172935000Y-45573740D01*
X172877932Y-45286842D01*
X172765990Y-45016589D01*
X172603475Y-44773368D01*
X172396632Y-44566525D01*
X172153411Y-44404010D01*
X171883158Y-44292068D01*
X171596260Y-44235000D01*
X171303740Y-44235000D01*
X171016842Y-44292068D01*
X170746589Y-44404010D01*
X170503368Y-44566525D01*
X170296525Y-44773368D01*
X170134010Y-45016589D01*
X170022068Y-45286842D01*
X169965000Y-45573740D01*
X169965000Y-45866260D01*
X170022068Y-46153158D01*
X170134010Y-46423411D01*
X170296525Y-46666632D01*
X170428380Y-46798487D01*
X170355820Y-46820498D01*
X170245506Y-46879463D01*
X170148815Y-46958815D01*
X170069463Y-47055506D01*
X170010498Y-47165820D01*
X169974188Y-47285518D01*
X169961928Y-47410000D01*
X169961928Y-49110000D01*
X169974188Y-49234482D01*
X170010498Y-49354180D01*
X170069463Y-49464494D01*
X170148815Y-49561185D01*
X170245506Y-49640537D01*
X170355820Y-49699502D01*
X170475518Y-49735812D01*
X170600000Y-49748072D01*
X170611800Y-49748072D01*
X170611800Y-50841169D01*
X170611801Y-50841179D01*
X170611800Y-59471928D01*
X170600000Y-59471928D01*
X170475518Y-59484188D01*
X170355820Y-59520498D01*
X170245506Y-59579463D01*
X170180000Y-59633222D01*
X170114494Y-59579463D01*
X170004180Y-59520498D01*
X169884482Y-59484188D01*
X169760000Y-59471928D01*
X169195750Y-59475000D01*
X169037000Y-59633750D01*
X169037000Y-60833000D01*
X169057000Y-60833000D01*
X169057000Y-61087000D01*
X169037000Y-61087000D01*
X169037000Y-61107000D01*
X168783000Y-61107000D01*
X168783000Y-61087000D01*
X167583750Y-61087000D01*
X167425000Y-61245750D01*
X167421928Y-61810000D01*
X167434188Y-61934482D01*
X167470498Y-62054180D01*
X167529463Y-62164494D01*
X167608815Y-62261185D01*
X167705506Y-62340537D01*
X167815820Y-62399502D01*
X167888380Y-62421513D01*
X167756525Y-62553368D01*
X167594010Y-62796589D01*
X167482068Y-63066842D01*
X167425000Y-63353740D01*
X167425000Y-63480199D01*
X167384000Y-63439199D01*
X167384000Y-60110000D01*
X167421928Y-60110000D01*
X167425000Y-60674250D01*
X167583750Y-60833000D01*
X168783000Y-60833000D01*
X168783000Y-59633750D01*
X168624250Y-59475000D01*
X168060000Y-59471928D01*
X167935518Y-59484188D01*
X167815820Y-59520498D01*
X167705506Y-59579463D01*
X167608815Y-59658815D01*
X167529463Y-59755506D01*
X167470498Y-59865820D01*
X167434188Y-59985518D01*
X167421928Y-60110000D01*
X167384000Y-60110000D01*
X167384000Y-37144801D01*
X171199003Y-33329799D01*
X171228001Y-33306001D01*
X171254332Y-33273917D01*
X171322974Y-33190277D01*
X171393546Y-33058247D01*
X171437003Y-32914986D01*
X171448000Y-32803333D01*
X171448000Y-32803323D01*
X171451676Y-32766000D01*
X171448000Y-32728677D01*
X171448000Y-27978320D01*
X171451676Y-27940997D01*
X171448000Y-27903674D01*
X171448000Y-27903665D01*
X171437003Y-27792012D01*
X171393546Y-27648751D01*
X171322974Y-27516722D01*
X171228001Y-27400997D01*
X171199004Y-27377200D01*
X170234806Y-26413002D01*
X170211003Y-26383999D01*
X170095278Y-26289026D01*
X169963249Y-26218454D01*
X169819988Y-26174997D01*
X169708335Y-26164000D01*
X169708324Y-26164000D01*
X169671002Y-26160324D01*
X169633680Y-26164000D01*
X166661333Y-26164000D01*
X166624000Y-26160323D01*
X166586667Y-26164000D01*
X166475014Y-26174997D01*
X166331753Y-26218454D01*
X166199724Y-26289026D01*
X166083999Y-26383999D01*
X165989026Y-26499724D01*
X165918454Y-26631753D01*
X165874997Y-26775014D01*
X165860323Y-26924000D01*
X165864001Y-26961343D01*
X165864001Y-27423821D01*
X165677368Y-27548525D01*
X165470525Y-27755368D01*
X165354000Y-27929760D01*
X165237475Y-27755368D01*
X165030632Y-27548525D01*
X164787411Y-27386010D01*
X164517158Y-27274068D01*
X164230260Y-27217000D01*
X163937740Y-27217000D01*
X163650842Y-27274068D01*
X163380589Y-27386010D01*
X163137368Y-27548525D01*
X162930525Y-27755368D01*
X162814000Y-27929760D01*
X162697475Y-27755368D01*
X162490632Y-27548525D01*
X162247411Y-27386010D01*
X161977158Y-27274068D01*
X161690260Y-27217000D01*
X161397740Y-27217000D01*
X161110842Y-27274068D01*
X160840589Y-27386010D01*
X160597368Y-27548525D01*
X160390525Y-27755368D01*
X160274000Y-27929760D01*
X160157475Y-27755368D01*
X159950632Y-27548525D01*
X159707411Y-27386010D01*
X159437158Y-27274068D01*
X159150260Y-27217000D01*
X158857740Y-27217000D01*
X158570842Y-27274068D01*
X158300589Y-27386010D01*
X158057368Y-27548525D01*
X157850525Y-27755368D01*
X157734000Y-27929760D01*
X157617475Y-27755368D01*
X157410632Y-27548525D01*
X157167411Y-27386010D01*
X156897158Y-27274068D01*
X156610260Y-27217000D01*
X156317740Y-27217000D01*
X156030842Y-27274068D01*
X155760589Y-27386010D01*
X155517368Y-27548525D01*
X155310525Y-27755368D01*
X155194000Y-27929760D01*
X155077475Y-27755368D01*
X154870632Y-27548525D01*
X154627411Y-27386010D01*
X154357158Y-27274068D01*
X154070260Y-27217000D01*
X153777740Y-27217000D01*
X153490842Y-27274068D01*
X153220589Y-27386010D01*
X152977368Y-27548525D01*
X152770525Y-27755368D01*
X152654000Y-27929760D01*
X152537475Y-27755368D01*
X152330632Y-27548525D01*
X152087411Y-27386010D01*
X151817158Y-27274068D01*
X151530260Y-27217000D01*
X151237740Y-27217000D01*
X150950842Y-27274068D01*
X150680589Y-27386010D01*
X150437368Y-27548525D01*
X150230525Y-27755368D01*
X150114000Y-27929760D01*
X149997475Y-27755368D01*
X149790632Y-27548525D01*
X149547411Y-27386010D01*
X149277158Y-27274068D01*
X148990260Y-27217000D01*
X148697740Y-27217000D01*
X148410842Y-27274068D01*
X148140589Y-27386010D01*
X147897368Y-27548525D01*
X147690525Y-27755368D01*
X147574000Y-27929760D01*
X147457475Y-27755368D01*
X147250632Y-27548525D01*
X147007411Y-27386010D01*
X146737158Y-27274068D01*
X146450260Y-27217000D01*
X146157740Y-27217000D01*
X145870842Y-27274068D01*
X145600589Y-27386010D01*
X145357368Y-27548525D01*
X145150525Y-27755368D01*
X145034000Y-27929760D01*
X144917475Y-27755368D01*
X144710632Y-27548525D01*
X144467411Y-27386010D01*
X144197158Y-27274068D01*
X143910260Y-27217000D01*
X143617740Y-27217000D01*
X143330842Y-27274068D01*
X143060589Y-27386010D01*
X142817368Y-27548525D01*
X142610525Y-27755368D01*
X142494000Y-27929760D01*
X142377475Y-27755368D01*
X142170632Y-27548525D01*
X141927411Y-27386010D01*
X141657158Y-27274068D01*
X141370260Y-27217000D01*
X141077740Y-27217000D01*
X140790842Y-27274068D01*
X140520589Y-27386010D01*
X140277368Y-27548525D01*
X140070525Y-27755368D01*
X139948805Y-27937534D01*
X139879178Y-27820645D01*
X139684269Y-27604412D01*
X139450920Y-27430359D01*
X139188099Y-27305175D01*
X139040890Y-27260524D01*
X138811000Y-27381845D01*
X138811000Y-28575000D01*
X138831000Y-28575000D01*
X138831000Y-28829000D01*
X138811000Y-28829000D01*
X138811000Y-28849000D01*
X138557000Y-28849000D01*
X138557000Y-28829000D01*
X138537000Y-28829000D01*
X138537000Y-28575000D01*
X138557000Y-28575000D01*
X138557000Y-27381845D01*
X138327110Y-27260524D01*
X138179901Y-27305175D01*
X137917080Y-27430359D01*
X137683731Y-27604412D01*
X137488822Y-27820645D01*
X137419195Y-27937534D01*
X137297475Y-27755368D01*
X137090632Y-27548525D01*
X136847411Y-27386010D01*
X136577158Y-27274068D01*
X136290260Y-27217000D01*
X135997740Y-27217000D01*
X135710842Y-27274068D01*
X135440589Y-27386010D01*
X135197368Y-27548525D01*
X134990525Y-27755368D01*
X134874000Y-27929760D01*
X134757475Y-27755368D01*
X134550632Y-27548525D01*
X134307411Y-27386010D01*
X134037158Y-27274068D01*
X133750260Y-27217000D01*
X133457740Y-27217000D01*
X133170842Y-27274068D01*
X132900589Y-27386010D01*
X132657368Y-27548525D01*
X132450525Y-27755368D01*
X132334000Y-27929760D01*
X132217475Y-27755368D01*
X132010632Y-27548525D01*
X131767411Y-27386010D01*
X131497158Y-27274068D01*
X131210260Y-27217000D01*
X130917740Y-27217000D01*
X130630842Y-27274068D01*
X130360589Y-27386010D01*
X130117368Y-27548525D01*
X129910525Y-27755368D01*
X129748010Y-27998589D01*
X129636068Y-28268842D01*
X129579000Y-28555740D01*
X121310000Y-28555740D01*
X121310000Y-25165098D01*
X122075000Y-25165098D01*
X122075000Y-25634902D01*
X122166654Y-26095679D01*
X122346440Y-26529721D01*
X122607450Y-26920349D01*
X122939651Y-27252550D01*
X123330279Y-27513560D01*
X123764321Y-27693346D01*
X124225098Y-27785000D01*
X124694902Y-27785000D01*
X125155679Y-27693346D01*
X125589721Y-27513560D01*
X125980349Y-27252550D01*
X126312550Y-26920349D01*
X126573560Y-26529721D01*
X126753346Y-26095679D01*
X126845000Y-25634902D01*
X126845000Y-25165098D01*
X172875000Y-25165098D01*
X172875000Y-25634902D01*
X172966654Y-26095679D01*
X173146440Y-26529721D01*
X173407450Y-26920349D01*
X173739651Y-27252550D01*
X174130279Y-27513560D01*
X174564321Y-27693346D01*
X175025098Y-27785000D01*
X175494902Y-27785000D01*
X175955679Y-27693346D01*
X176389721Y-27513560D01*
X176780349Y-27252550D01*
X177112550Y-26920349D01*
X177373560Y-26529721D01*
X177553346Y-26095679D01*
X177645000Y-25634902D01*
X177645000Y-25165098D01*
X177553346Y-24704321D01*
X177373560Y-24270279D01*
X177112550Y-23879651D01*
X176780349Y-23547450D01*
X176389721Y-23286440D01*
X175955679Y-23106654D01*
X175494902Y-23015000D01*
X175025098Y-23015000D01*
X174564321Y-23106654D01*
X174130279Y-23286440D01*
X173739651Y-23547450D01*
X173407450Y-23879651D01*
X173146440Y-24270279D01*
X172966654Y-24704321D01*
X172875000Y-25165098D01*
X126845000Y-25165098D01*
X126753346Y-24704321D01*
X126573560Y-24270279D01*
X126312550Y-23879651D01*
X125980349Y-23547450D01*
X125589721Y-23286440D01*
X125155679Y-23106654D01*
X124694902Y-23015000D01*
X124225098Y-23015000D01*
X123764321Y-23106654D01*
X123330279Y-23286440D01*
X122939651Y-23547450D01*
X122607450Y-23879651D01*
X122346440Y-24270279D01*
X122166654Y-24704321D01*
X122075000Y-25165098D01*
X121310000Y-25165098D01*
X121310000Y-22250000D01*
X178664001Y-22250000D01*
X178664000Y-105004000D01*
G37*
%TD.AperFunction*%
%TD*%
M02*
