%TF.GenerationSoftware,KiCad,Pcbnew,(5.1.10)-1*%
%TF.CreationDate,2022-04-15T10:12:12-07:00*%
%TF.ProjectId,SensorSuiteBoard,53656e73-6f72-4537-9569-7465426f6172,1.0*%
%TF.SameCoordinates,Original*%
%TF.FileFunction,Legend,Bot*%
%TF.FilePolarity,Positive*%
%FSLAX46Y46*%
G04 Gerber Fmt 4.6, Leading zero omitted, Abs format (unit mm)*
G04 Created by KiCad (PCBNEW (5.1.10)-1) date 2022-04-15 10:12:12*
%MOMM*%
%LPD*%
G01*
G04 APERTURE LIST*
%ADD10C,0.150000*%
%ADD11O,1.700000X1.700000*%
%ADD12R,1.700000X1.700000*%
%ADD13C,3.500000*%
%ADD14C,2.000000*%
%ADD15O,1.600000X1.600000*%
%ADD16R,1.600000X1.600000*%
G04 APERTURE END LIST*
D10*
X124389619Y-64739809D02*
X124342000Y-64787428D01*
X124294380Y-64882666D01*
X124294380Y-65120761D01*
X124342000Y-65216000D01*
X124389619Y-65263619D01*
X124484857Y-65311238D01*
X124580095Y-65311238D01*
X124722952Y-65263619D01*
X125294380Y-64692190D01*
X125294380Y-65311238D01*
X124627714Y-65739809D02*
X125294380Y-65739809D01*
X124722952Y-65739809D02*
X124675333Y-65787428D01*
X124627714Y-65882666D01*
X124627714Y-66025523D01*
X124675333Y-66120761D01*
X124770571Y-66168380D01*
X125294380Y-66168380D01*
X125294380Y-67073142D02*
X124294380Y-67073142D01*
X125246761Y-67073142D02*
X125294380Y-66977904D01*
X125294380Y-66787428D01*
X125246761Y-66692190D01*
X125199142Y-66644571D01*
X125103904Y-66596952D01*
X124818190Y-66596952D01*
X124722952Y-66644571D01*
X124675333Y-66692190D01*
X124627714Y-66787428D01*
X124627714Y-66977904D01*
X124675333Y-67073142D01*
X124342000Y-68835047D02*
X124294380Y-68739809D01*
X124294380Y-68596952D01*
X124342000Y-68454095D01*
X124437238Y-68358857D01*
X124532476Y-68311238D01*
X124722952Y-68263619D01*
X124865809Y-68263619D01*
X125056285Y-68311238D01*
X125151523Y-68358857D01*
X125246761Y-68454095D01*
X125294380Y-68596952D01*
X125294380Y-68692190D01*
X125246761Y-68835047D01*
X125199142Y-68882666D01*
X124865809Y-68882666D01*
X124865809Y-68692190D01*
X125246761Y-69692190D02*
X125294380Y-69596952D01*
X125294380Y-69406476D01*
X125246761Y-69311238D01*
X125151523Y-69263619D01*
X124770571Y-69263619D01*
X124675333Y-69311238D01*
X124627714Y-69406476D01*
X124627714Y-69596952D01*
X124675333Y-69692190D01*
X124770571Y-69739809D01*
X124865809Y-69739809D01*
X124961047Y-69263619D01*
X124627714Y-70168380D02*
X125294380Y-70168380D01*
X124722952Y-70168380D02*
X124675333Y-70216000D01*
X124627714Y-70311238D01*
X124627714Y-70454095D01*
X124675333Y-70549333D01*
X124770571Y-70596952D01*
X125294380Y-70596952D01*
X125294380Y-72311238D02*
X125294380Y-71835047D01*
X124294380Y-71835047D01*
X125294380Y-72787428D02*
X125246761Y-72692190D01*
X125199142Y-72644571D01*
X125103904Y-72596952D01*
X124818190Y-72596952D01*
X124722952Y-72644571D01*
X124675333Y-72692190D01*
X124627714Y-72787428D01*
X124627714Y-72930285D01*
X124675333Y-73025523D01*
X124722952Y-73073142D01*
X124818190Y-73120761D01*
X125103904Y-73120761D01*
X125199142Y-73073142D01*
X125246761Y-73025523D01*
X125294380Y-72930285D01*
X125294380Y-72787428D01*
X124627714Y-73454095D02*
X125294380Y-73644571D01*
X124818190Y-73835047D01*
X125294380Y-74025523D01*
X124627714Y-74216000D01*
X125294380Y-75358857D02*
X124294380Y-75358857D01*
X124294380Y-75739809D01*
X124342000Y-75835047D01*
X124389619Y-75882666D01*
X124484857Y-75930285D01*
X124627714Y-75930285D01*
X124722952Y-75882666D01*
X124770571Y-75835047D01*
X124818190Y-75739809D01*
X124818190Y-75358857D01*
X125294380Y-76501714D02*
X125246761Y-76406476D01*
X125199142Y-76358857D01*
X125103904Y-76311238D01*
X124818190Y-76311238D01*
X124722952Y-76358857D01*
X124675333Y-76406476D01*
X124627714Y-76501714D01*
X124627714Y-76644571D01*
X124675333Y-76739809D01*
X124722952Y-76787428D01*
X124818190Y-76835047D01*
X125103904Y-76835047D01*
X125199142Y-76787428D01*
X125246761Y-76739809D01*
X125294380Y-76644571D01*
X125294380Y-76501714D01*
X124627714Y-77168380D02*
X125294380Y-77358857D01*
X124818190Y-77549333D01*
X125294380Y-77739809D01*
X124627714Y-77930285D01*
X125246761Y-78692190D02*
X125294380Y-78596952D01*
X125294380Y-78406476D01*
X125246761Y-78311238D01*
X125151523Y-78263619D01*
X124770571Y-78263619D01*
X124675333Y-78311238D01*
X124627714Y-78406476D01*
X124627714Y-78596952D01*
X124675333Y-78692190D01*
X124770571Y-78739809D01*
X124865809Y-78739809D01*
X124961047Y-78263619D01*
X125294380Y-79168380D02*
X124627714Y-79168380D01*
X124818190Y-79168380D02*
X124722952Y-79216000D01*
X124675333Y-79263619D01*
X124627714Y-79358857D01*
X124627714Y-79454095D01*
X125246761Y-80501714D02*
X125294380Y-80644571D01*
X125294380Y-80882666D01*
X125246761Y-80977904D01*
X125199142Y-81025523D01*
X125103904Y-81073142D01*
X125008666Y-81073142D01*
X124913428Y-81025523D01*
X124865809Y-80977904D01*
X124818190Y-80882666D01*
X124770571Y-80692190D01*
X124722952Y-80596952D01*
X124675333Y-80549333D01*
X124580095Y-80501714D01*
X124484857Y-80501714D01*
X124389619Y-80549333D01*
X124342000Y-80596952D01*
X124294380Y-80692190D01*
X124294380Y-80930285D01*
X124342000Y-81073142D01*
X125246761Y-81882666D02*
X125294380Y-81787428D01*
X125294380Y-81596952D01*
X125246761Y-81501714D01*
X125151523Y-81454095D01*
X124770571Y-81454095D01*
X124675333Y-81501714D01*
X124627714Y-81596952D01*
X124627714Y-81787428D01*
X124675333Y-81882666D01*
X124770571Y-81930285D01*
X124865809Y-81930285D01*
X124961047Y-81454095D01*
X124627714Y-82358857D02*
X125294380Y-82358857D01*
X124722952Y-82358857D02*
X124675333Y-82406476D01*
X124627714Y-82501714D01*
X124627714Y-82644571D01*
X124675333Y-82739809D01*
X124770571Y-82787428D01*
X125294380Y-82787428D01*
X125246761Y-83215999D02*
X125294380Y-83311238D01*
X125294380Y-83501714D01*
X125246761Y-83596952D01*
X125151523Y-83644571D01*
X125103904Y-83644571D01*
X125008666Y-83596952D01*
X124961047Y-83501714D01*
X124961047Y-83358857D01*
X124913428Y-83263619D01*
X124818190Y-83215999D01*
X124770571Y-83215999D01*
X124675333Y-83263619D01*
X124627714Y-83358857D01*
X124627714Y-83501714D01*
X124675333Y-83596952D01*
X125294380Y-84215999D02*
X125246761Y-84120761D01*
X125199142Y-84073142D01*
X125103904Y-84025523D01*
X124818190Y-84025523D01*
X124722952Y-84073142D01*
X124675333Y-84120761D01*
X124627714Y-84215999D01*
X124627714Y-84358857D01*
X124675333Y-84454095D01*
X124722952Y-84501714D01*
X124818190Y-84549333D01*
X125103904Y-84549333D01*
X125199142Y-84501714D01*
X125246761Y-84454095D01*
X125294380Y-84358857D01*
X125294380Y-84215999D01*
X125294380Y-84977904D02*
X124627714Y-84977904D01*
X124818190Y-84977904D02*
X124722952Y-85025523D01*
X124675333Y-85073142D01*
X124627714Y-85168380D01*
X124627714Y-85263619D01*
X125246761Y-86311238D02*
X125294380Y-86454095D01*
X125294380Y-86692190D01*
X125246761Y-86787428D01*
X125199142Y-86835047D01*
X125103904Y-86882666D01*
X125008666Y-86882666D01*
X124913428Y-86835047D01*
X124865809Y-86787428D01*
X124818190Y-86692190D01*
X124770571Y-86501714D01*
X124722952Y-86406476D01*
X124675333Y-86358857D01*
X124580095Y-86311238D01*
X124484857Y-86311238D01*
X124389619Y-86358857D01*
X124342000Y-86406476D01*
X124294380Y-86501714D01*
X124294380Y-86739809D01*
X124342000Y-86882666D01*
X124627714Y-87739809D02*
X125294380Y-87739809D01*
X124627714Y-87311238D02*
X125151523Y-87311238D01*
X125246761Y-87358857D01*
X125294380Y-87454095D01*
X125294380Y-87596952D01*
X125246761Y-87692190D01*
X125199142Y-87739809D01*
X125294380Y-88216000D02*
X124627714Y-88216000D01*
X124294380Y-88216000D02*
X124342000Y-88168380D01*
X124389619Y-88216000D01*
X124342000Y-88263619D01*
X124294380Y-88216000D01*
X124389619Y-88216000D01*
X124627714Y-88549333D02*
X124627714Y-88930285D01*
X124294380Y-88692190D02*
X125151523Y-88692190D01*
X125246761Y-88739809D01*
X125294380Y-88835047D01*
X125294380Y-88930285D01*
X125246761Y-89644571D02*
X125294380Y-89549333D01*
X125294380Y-89358857D01*
X125246761Y-89263619D01*
X125151523Y-89216000D01*
X124770571Y-89216000D01*
X124675333Y-89263619D01*
X124627714Y-89358857D01*
X124627714Y-89549333D01*
X124675333Y-89644571D01*
X124770571Y-89692190D01*
X124865809Y-89692190D01*
X124961047Y-89216000D01*
X126277714Y-75787428D02*
X126944380Y-76025523D01*
X126277714Y-76263619D01*
X126944380Y-77168380D02*
X126944380Y-76596952D01*
X126944380Y-76882666D02*
X125944380Y-76882666D01*
X126087238Y-76787428D01*
X126182476Y-76692190D01*
X126230095Y-76596952D01*
X126849142Y-77596952D02*
X126896761Y-77644571D01*
X126944380Y-77596952D01*
X126896761Y-77549333D01*
X126849142Y-77596952D01*
X126944380Y-77596952D01*
X125944380Y-78263619D02*
X125944380Y-78358857D01*
X125992000Y-78454095D01*
X126039619Y-78501714D01*
X126134857Y-78549333D01*
X126325333Y-78596952D01*
X126563428Y-78596952D01*
X126753904Y-78549333D01*
X126849142Y-78501714D01*
X126896761Y-78454095D01*
X126944380Y-78358857D01*
X126944380Y-78263619D01*
X126896761Y-78168380D01*
X126849142Y-78120761D01*
X126753904Y-78073142D01*
X126563428Y-78025523D01*
X126325333Y-78025523D01*
X126134857Y-78073142D01*
X126039619Y-78120761D01*
X125992000Y-78168380D01*
X125944380Y-78263619D01*
X127594380Y-74049333D02*
X127594380Y-74620761D01*
X128594380Y-74335047D02*
X127594380Y-74335047D01*
X128546761Y-75335047D02*
X128594380Y-75239809D01*
X128594380Y-75049333D01*
X128546761Y-74954095D01*
X128451523Y-74906476D01*
X128070571Y-74906476D01*
X127975333Y-74954095D01*
X127927714Y-75049333D01*
X127927714Y-75239809D01*
X127975333Y-75335047D01*
X128070571Y-75382666D01*
X128165809Y-75382666D01*
X128261047Y-74906476D01*
X128594380Y-76239809D02*
X128070571Y-76239809D01*
X127975333Y-76192190D01*
X127927714Y-76096952D01*
X127927714Y-75906476D01*
X127975333Y-75811238D01*
X128546761Y-76239809D02*
X128594380Y-76144571D01*
X128594380Y-75906476D01*
X128546761Y-75811238D01*
X128451523Y-75763619D01*
X128356285Y-75763619D01*
X128261047Y-75811238D01*
X128213428Y-75906476D01*
X128213428Y-76144571D01*
X128165809Y-76239809D01*
X128594380Y-76716000D02*
X127927714Y-76716000D01*
X128022952Y-76716000D02*
X127975333Y-76763619D01*
X127927714Y-76858857D01*
X127927714Y-77001714D01*
X127975333Y-77096952D01*
X128070571Y-77144571D01*
X128594380Y-77144571D01*
X128070571Y-77144571D02*
X127975333Y-77192190D01*
X127927714Y-77287428D01*
X127927714Y-77430285D01*
X127975333Y-77525523D01*
X128070571Y-77573142D01*
X128594380Y-77573142D01*
X128594380Y-79335047D02*
X128594380Y-78763619D01*
X128594380Y-79049333D02*
X127594380Y-79049333D01*
X127737238Y-78954095D01*
X127832476Y-78858857D01*
X127880095Y-78763619D01*
X127594380Y-79668380D02*
X127594380Y-80287428D01*
X127975333Y-79954095D01*
X127975333Y-80096952D01*
X128022952Y-80192190D01*
X128070571Y-80239809D01*
X128165809Y-80287428D01*
X128403904Y-80287428D01*
X128499142Y-80239809D01*
X128546761Y-80192190D01*
X128594380Y-80096952D01*
X128594380Y-79811238D01*
X128546761Y-79716000D01*
X128499142Y-79668380D01*
%LPC*%
D11*
%TO.C,J3*%
X171450000Y-83820000D03*
X171450000Y-81280000D03*
X171450000Y-78740000D03*
X171450000Y-76200000D03*
X171450000Y-73660000D03*
X171450000Y-71120000D03*
X171450000Y-68580000D03*
X171450000Y-66040000D03*
X171450000Y-63500000D03*
D12*
X171450000Y-60960000D03*
%TD*%
D13*
%TO.C,REF\u002A\u002A*%
X124460000Y-101600000D03*
%TD*%
%TO.C,REF\u002A\u002A*%
X124460000Y-25400000D03*
%TD*%
%TO.C,REF\u002A\u002A*%
X175260000Y-25400000D03*
%TD*%
%TO.C,REF\u002A\u002A*%
X175260000Y-101600000D03*
%TD*%
D11*
%TO.C,J8*%
X131064000Y-31242000D03*
X131064000Y-28702000D03*
X133604000Y-31242000D03*
X133604000Y-28702000D03*
X136144000Y-31242000D03*
X136144000Y-28702000D03*
X138684000Y-31242000D03*
X138684000Y-28702000D03*
X141224000Y-31242000D03*
X141224000Y-28702000D03*
X143764000Y-31242000D03*
X143764000Y-28702000D03*
X146304000Y-31242000D03*
X146304000Y-28702000D03*
X148844000Y-31242000D03*
X148844000Y-28702000D03*
X151384000Y-31242000D03*
X151384000Y-28702000D03*
X153924000Y-31242000D03*
X153924000Y-28702000D03*
X156464000Y-31242000D03*
X156464000Y-28702000D03*
X159004000Y-31242000D03*
X159004000Y-28702000D03*
X161544000Y-31242000D03*
X161544000Y-28702000D03*
X164084000Y-31242000D03*
X164084000Y-28702000D03*
X166624000Y-31242000D03*
X166624000Y-28702000D03*
X169164000Y-31242000D03*
D12*
X169164000Y-28702000D03*
%TD*%
D11*
%TO.C,J7*%
X129540000Y-45720000D03*
X127000000Y-45720000D03*
X129540000Y-43180000D03*
X127000000Y-43180000D03*
X129540000Y-40640000D03*
D12*
X127000000Y-40640000D03*
%TD*%
D11*
%TO.C,J5*%
X127000000Y-58420000D03*
X127000000Y-55880000D03*
D12*
X127000000Y-53340000D03*
%TD*%
%TO.C,J70*%
X139700000Y-38100000D03*
D11*
X139700000Y-40640000D03*
X139700000Y-43180000D03*
X139700000Y-45720000D03*
X139700000Y-48260000D03*
X139700000Y-50800000D03*
%TD*%
%TO.C,J71*%
X137160000Y-50800000D03*
X137160000Y-48260000D03*
X137160000Y-45720000D03*
X137160000Y-43180000D03*
X137160000Y-40640000D03*
D12*
X137160000Y-38100000D03*
%TD*%
%TO.C,J50*%
X139700000Y-55880000D03*
D11*
X139700000Y-58420000D03*
X139700000Y-60960000D03*
%TD*%
%TO.C,J51*%
X137160000Y-60960000D03*
X137160000Y-58420000D03*
D12*
X137160000Y-55880000D03*
%TD*%
D11*
%TO.C,J60*%
X148590000Y-93980000D03*
D12*
X148590000Y-96520000D03*
%TD*%
%TO.C,J61*%
X146050000Y-96520000D03*
D11*
X146050000Y-93980000D03*
%TD*%
D14*
%TO.C,R1*%
X167750000Y-97790000D03*
X158750000Y-97790000D03*
%TD*%
%TO.C,R2*%
X158750000Y-92710000D03*
X167750000Y-92710000D03*
%TD*%
%TO.C,R3*%
X161400000Y-41910000D03*
X152400000Y-41910000D03*
%TD*%
%TO.C,R4*%
X152400000Y-46990000D03*
X161400000Y-46990000D03*
%TD*%
D15*
%TO.C,U6*%
X140970000Y-88900000D03*
X140970000Y-91440000D03*
X140970000Y-93980000D03*
D16*
X140970000Y-96520000D03*
%TD*%
D12*
%TO.C,J1*%
X168910000Y-60960000D03*
D11*
X168910000Y-63500000D03*
X168910000Y-66040000D03*
X168910000Y-68580000D03*
X168910000Y-71120000D03*
X168910000Y-73660000D03*
X168910000Y-76200000D03*
X168910000Y-78740000D03*
X168910000Y-81280000D03*
X168910000Y-83820000D03*
%TD*%
D12*
%TO.C,J2*%
X152400000Y-60960000D03*
D11*
X152400000Y-63500000D03*
X152400000Y-66040000D03*
X152400000Y-68580000D03*
X152400000Y-71120000D03*
X152400000Y-73660000D03*
X152400000Y-76200000D03*
X152400000Y-78740000D03*
X152400000Y-81280000D03*
X152400000Y-83820000D03*
%TD*%
%TO.C,J4*%
X154940000Y-83820000D03*
X154940000Y-81280000D03*
X154940000Y-78740000D03*
X154940000Y-76200000D03*
X154940000Y-73660000D03*
X154940000Y-71120000D03*
X154940000Y-68580000D03*
X154940000Y-66040000D03*
X154940000Y-63500000D03*
D12*
X154940000Y-60960000D03*
%TD*%
D11*
%TO.C,J9*%
X171450000Y-45720000D03*
D12*
X171450000Y-48260000D03*
%TD*%
M02*
