%TF.GenerationSoftware,KiCad,Pcbnew,(5.1.10)-1*%
%TF.CreationDate,2022-04-15T10:12:12-07:00*%
%TF.ProjectId,SensorSuiteBoard,53656e73-6f72-4537-9569-7465426f6172,1.0*%
%TF.SameCoordinates,Original*%
%TF.FileFunction,Legend,Top*%
%TF.FilePolarity,Positive*%
%FSLAX46Y46*%
G04 Gerber Fmt 4.6, Leading zero omitted, Abs format (unit mm)*
G04 Created by KiCad (PCBNEW (5.1.10)-1) date 2022-04-15 10:12:12*
%MOMM*%
%LPD*%
G01*
G04 APERTURE LIST*
%ADD10C,0.150000*%
%ADD11C,0.120000*%
%ADD12O,1.700000X1.700000*%
%ADD13R,1.700000X1.700000*%
%ADD14C,3.500000*%
%ADD15C,2.000000*%
%ADD16O,1.600000X1.600000*%
%ADD17R,1.600000X1.600000*%
G04 APERTURE END LIST*
D10*
X173990095Y-45474000D02*
X173894857Y-45426380D01*
X173752000Y-45426380D01*
X173609142Y-45474000D01*
X173513904Y-45569238D01*
X173466285Y-45664476D01*
X173418666Y-45854952D01*
X173418666Y-45997809D01*
X173466285Y-46188285D01*
X173513904Y-46283523D01*
X173609142Y-46378761D01*
X173752000Y-46426380D01*
X173847238Y-46426380D01*
X173990095Y-46378761D01*
X174037714Y-46331142D01*
X174037714Y-45997809D01*
X173847238Y-45997809D01*
X174466285Y-46426380D02*
X174466285Y-45426380D01*
X175037714Y-46426380D01*
X175037714Y-45426380D01*
X175513904Y-46426380D02*
X175513904Y-45426380D01*
X175752000Y-45426380D01*
X175894857Y-45474000D01*
X175990095Y-45569238D01*
X176037714Y-45664476D01*
X176085333Y-45854952D01*
X176085333Y-45997809D01*
X176037714Y-46188285D01*
X175990095Y-46283523D01*
X175894857Y-46378761D01*
X175752000Y-46426380D01*
X175513904Y-46426380D01*
X122364666Y-55332380D02*
X122698000Y-56332380D01*
X123031333Y-55332380D01*
X123936095Y-56237142D02*
X123888476Y-56284761D01*
X123745619Y-56332380D01*
X123650380Y-56332380D01*
X123507523Y-56284761D01*
X123412285Y-56189523D01*
X123364666Y-56094285D01*
X123317047Y-55903809D01*
X123317047Y-55760952D01*
X123364666Y-55570476D01*
X123412285Y-55475238D01*
X123507523Y-55380000D01*
X123650380Y-55332380D01*
X123745619Y-55332380D01*
X123888476Y-55380000D01*
X123936095Y-55427619D01*
X124936095Y-56237142D02*
X124888476Y-56284761D01*
X124745619Y-56332380D01*
X124650380Y-56332380D01*
X124507523Y-56284761D01*
X124412285Y-56189523D01*
X124364666Y-56094285D01*
X124317047Y-55903809D01*
X124317047Y-55760952D01*
X124364666Y-55570476D01*
X124412285Y-55475238D01*
X124507523Y-55380000D01*
X124650380Y-55332380D01*
X124745619Y-55332380D01*
X124888476Y-55380000D01*
X124936095Y-55427619D01*
X173212285Y-48331428D02*
X173974190Y-48331428D01*
X173593238Y-48712380D02*
X173593238Y-47950476D01*
X174926571Y-47712380D02*
X174450380Y-47712380D01*
X174402761Y-48188571D01*
X174450380Y-48140952D01*
X174545619Y-48093333D01*
X174783714Y-48093333D01*
X174878952Y-48140952D01*
X174926571Y-48188571D01*
X174974190Y-48283809D01*
X174974190Y-48521904D01*
X174926571Y-48617142D01*
X174878952Y-48664761D01*
X174783714Y-48712380D01*
X174545619Y-48712380D01*
X174450380Y-48664761D01*
X174402761Y-48617142D01*
X175259904Y-47712380D02*
X175593238Y-48712380D01*
X175926571Y-47712380D01*
X136961714Y-89304761D02*
X137104571Y-89352380D01*
X137342666Y-89352380D01*
X137437904Y-89304761D01*
X137485523Y-89257142D01*
X137533142Y-89161904D01*
X137533142Y-89066666D01*
X137485523Y-88971428D01*
X137437904Y-88923809D01*
X137342666Y-88876190D01*
X137152190Y-88828571D01*
X137056952Y-88780952D01*
X137009333Y-88733333D01*
X136961714Y-88638095D01*
X136961714Y-88542857D01*
X137009333Y-88447619D01*
X137056952Y-88400000D01*
X137152190Y-88352380D01*
X137390285Y-88352380D01*
X137533142Y-88400000D01*
X137961714Y-89352380D02*
X137961714Y-88352380D01*
X138199809Y-88352380D01*
X138342666Y-88400000D01*
X138437904Y-88495238D01*
X138485523Y-88590476D01*
X138533142Y-88780952D01*
X138533142Y-88923809D01*
X138485523Y-89114285D01*
X138437904Y-89209523D01*
X138342666Y-89304761D01*
X138199809Y-89352380D01*
X137961714Y-89352380D01*
X138914095Y-89066666D02*
X139390285Y-89066666D01*
X138818857Y-89352380D02*
X139152190Y-88352380D01*
X139485523Y-89352380D01*
X136985523Y-92098761D02*
X137128380Y-92146380D01*
X137366476Y-92146380D01*
X137461714Y-92098761D01*
X137509333Y-92051142D01*
X137556952Y-91955904D01*
X137556952Y-91860666D01*
X137509333Y-91765428D01*
X137461714Y-91717809D01*
X137366476Y-91670190D01*
X137176000Y-91622571D01*
X137080761Y-91574952D01*
X137033142Y-91527333D01*
X136985523Y-91432095D01*
X136985523Y-91336857D01*
X137033142Y-91241619D01*
X137080761Y-91194000D01*
X137176000Y-91146380D01*
X137414095Y-91146380D01*
X137556952Y-91194000D01*
X138556952Y-92051142D02*
X138509333Y-92098761D01*
X138366476Y-92146380D01*
X138271238Y-92146380D01*
X138128380Y-92098761D01*
X138033142Y-92003523D01*
X137985523Y-91908285D01*
X137937904Y-91717809D01*
X137937904Y-91574952D01*
X137985523Y-91384476D01*
X138033142Y-91289238D01*
X138128380Y-91194000D01*
X138271238Y-91146380D01*
X138366476Y-91146380D01*
X138509333Y-91194000D01*
X138556952Y-91241619D01*
X139461714Y-92146380D02*
X138985523Y-92146380D01*
X138985523Y-91146380D01*
X135414000Y-96591428D02*
X136175904Y-96591428D01*
X135794952Y-96972380D02*
X135794952Y-96210476D01*
X136556857Y-95972380D02*
X137175904Y-95972380D01*
X136842571Y-96353333D01*
X136985428Y-96353333D01*
X137080666Y-96400952D01*
X137128285Y-96448571D01*
X137175904Y-96543809D01*
X137175904Y-96781904D01*
X137128285Y-96877142D01*
X137080666Y-96924761D01*
X136985428Y-96972380D01*
X136699714Y-96972380D01*
X136604476Y-96924761D01*
X136556857Y-96877142D01*
X137604476Y-96877142D02*
X137652095Y-96924761D01*
X137604476Y-96972380D01*
X137556857Y-96924761D01*
X137604476Y-96877142D01*
X137604476Y-96972380D01*
X137985428Y-95972380D02*
X138604476Y-95972380D01*
X138271142Y-96353333D01*
X138414000Y-96353333D01*
X138509238Y-96400952D01*
X138556857Y-96448571D01*
X138604476Y-96543809D01*
X138604476Y-96781904D01*
X138556857Y-96877142D01*
X138509238Y-96924761D01*
X138414000Y-96972380D01*
X138128285Y-96972380D01*
X138033047Y-96924761D01*
X137985428Y-96877142D01*
X138890190Y-95972380D02*
X139223523Y-96972380D01*
X139556857Y-95972380D01*
X150146000Y-96337428D02*
X150907904Y-96337428D01*
X150526952Y-96718380D02*
X150526952Y-95956476D01*
X151288857Y-95718380D02*
X151907904Y-95718380D01*
X151574571Y-96099333D01*
X151717428Y-96099333D01*
X151812666Y-96146952D01*
X151860285Y-96194571D01*
X151907904Y-96289809D01*
X151907904Y-96527904D01*
X151860285Y-96623142D01*
X151812666Y-96670761D01*
X151717428Y-96718380D01*
X151431714Y-96718380D01*
X151336476Y-96670761D01*
X151288857Y-96623142D01*
X152336476Y-96623142D02*
X152384095Y-96670761D01*
X152336476Y-96718380D01*
X152288857Y-96670761D01*
X152336476Y-96623142D01*
X152336476Y-96718380D01*
X152717428Y-95718380D02*
X153336476Y-95718380D01*
X153003142Y-96099333D01*
X153146000Y-96099333D01*
X153241238Y-96146952D01*
X153288857Y-96194571D01*
X153336476Y-96289809D01*
X153336476Y-96527904D01*
X153288857Y-96623142D01*
X153241238Y-96670761D01*
X153146000Y-96718380D01*
X152860285Y-96718380D01*
X152765047Y-96670761D01*
X152717428Y-96623142D01*
X153622190Y-95718380D02*
X153955523Y-96718380D01*
X154288857Y-95718380D01*
X164536380Y-26328666D02*
X164060190Y-26662000D01*
X164536380Y-26900095D02*
X163536380Y-26900095D01*
X163536380Y-26519142D01*
X163584000Y-26423904D01*
X163631619Y-26376285D01*
X163726857Y-26328666D01*
X163869714Y-26328666D01*
X163964952Y-26376285D01*
X164012571Y-26423904D01*
X164060190Y-26519142D01*
X164060190Y-26900095D01*
X163536380Y-25995333D02*
X164536380Y-25328666D01*
X163536380Y-25328666D02*
X164536380Y-25995333D01*
X166076380Y-26923904D02*
X166076380Y-26352476D01*
X167076380Y-26638190D02*
X166076380Y-26638190D01*
X166076380Y-26114380D02*
X167076380Y-25447714D01*
X166076380Y-25447714D02*
X167076380Y-26114380D01*
X164536380Y-37306000D02*
X164060190Y-37639333D01*
X164536380Y-37877428D02*
X163536380Y-37877428D01*
X163536380Y-37496476D01*
X163584000Y-37401238D01*
X163631619Y-37353619D01*
X163726857Y-37306000D01*
X163869714Y-37306000D01*
X163964952Y-37353619D01*
X164012571Y-37401238D01*
X164060190Y-37496476D01*
X164060190Y-37877428D01*
X163536380Y-36972666D02*
X164536380Y-36306000D01*
X163536380Y-36306000D02*
X164536380Y-36972666D01*
X164631619Y-36163142D02*
X164631619Y-35401238D01*
X164536380Y-35163142D02*
X163869714Y-35163142D01*
X164060190Y-35163142D02*
X163964952Y-35115523D01*
X163917333Y-35067904D01*
X163869714Y-34972666D01*
X163869714Y-34877428D01*
X163869714Y-34686952D02*
X163869714Y-34306000D01*
X163536380Y-34544095D02*
X164393523Y-34544095D01*
X164488761Y-34496476D01*
X164536380Y-34401238D01*
X164536380Y-34306000D01*
X164488761Y-34020285D02*
X164536380Y-33925047D01*
X164536380Y-33734571D01*
X164488761Y-33639333D01*
X164393523Y-33591714D01*
X164345904Y-33591714D01*
X164250666Y-33639333D01*
X164203047Y-33734571D01*
X164203047Y-33877428D01*
X164155428Y-33972666D01*
X164060190Y-34020285D01*
X164012571Y-34020285D01*
X163917333Y-33972666D01*
X163869714Y-33877428D01*
X163869714Y-33734571D01*
X163917333Y-33639333D01*
X163869714Y-33163142D02*
X164536380Y-33163142D01*
X163964952Y-33163142D02*
X163917333Y-33115523D01*
X163869714Y-33020285D01*
X163869714Y-32877428D01*
X163917333Y-32782190D01*
X164012571Y-32734571D01*
X164536380Y-32734571D01*
X138136380Y-26534857D02*
X139136380Y-26201523D01*
X138136380Y-25868190D01*
X138612571Y-25201523D02*
X138660190Y-25058666D01*
X138707809Y-25011047D01*
X138803047Y-24963428D01*
X138945904Y-24963428D01*
X139041142Y-25011047D01*
X139088761Y-25058666D01*
X139136380Y-25153904D01*
X139136380Y-25534857D01*
X138136380Y-25534857D01*
X138136380Y-25201523D01*
X138184000Y-25106285D01*
X138231619Y-25058666D01*
X138326857Y-25011047D01*
X138422095Y-25011047D01*
X138517333Y-25058666D01*
X138564952Y-25106285D01*
X138612571Y-25201523D01*
X138612571Y-25534857D01*
X138850666Y-24582476D02*
X138850666Y-24106285D01*
X139136380Y-24677714D02*
X138136380Y-24344380D01*
X139136380Y-24011047D01*
X138136380Y-23820571D02*
X138136380Y-23249142D01*
X139136380Y-23534857D02*
X138136380Y-23534857D01*
X140724000Y-34543904D02*
X140676380Y-34639142D01*
X140676380Y-34782000D01*
X140724000Y-34924857D01*
X140819238Y-35020095D01*
X140914476Y-35067714D01*
X141104952Y-35115333D01*
X141247809Y-35115333D01*
X141438285Y-35067714D01*
X141533523Y-35020095D01*
X141628761Y-34924857D01*
X141676380Y-34782000D01*
X141676380Y-34686761D01*
X141628761Y-34543904D01*
X141581142Y-34496285D01*
X141247809Y-34496285D01*
X141247809Y-34686761D01*
X141676380Y-34067714D02*
X140676380Y-34067714D01*
X141676380Y-33496285D01*
X140676380Y-33496285D01*
X141676380Y-33020095D02*
X140676380Y-33020095D01*
X140676380Y-32782000D01*
X140724000Y-32639142D01*
X140819238Y-32543904D01*
X140914476Y-32496285D01*
X141104952Y-32448666D01*
X141247809Y-32448666D01*
X141438285Y-32496285D01*
X141533523Y-32543904D01*
X141628761Y-32639142D01*
X141676380Y-32782000D01*
X141676380Y-33020095D01*
X168616380Y-27352285D02*
X168616380Y-26780857D01*
X169616380Y-27066571D02*
X168616380Y-27066571D01*
X168616380Y-26542761D02*
X169616380Y-25876095D01*
X168616380Y-25876095D02*
X169616380Y-26542761D01*
X169711619Y-25733238D02*
X169711619Y-24971333D01*
X169568761Y-24304666D02*
X169616380Y-24399904D01*
X169616380Y-24590380D01*
X169568761Y-24685619D01*
X169521142Y-24733238D01*
X169425904Y-24780857D01*
X169140190Y-24780857D01*
X169044952Y-24733238D01*
X168997333Y-24685619D01*
X168949714Y-24590380D01*
X168949714Y-24399904D01*
X168997333Y-24304666D01*
X169568761Y-23923714D02*
X169616380Y-23828476D01*
X169616380Y-23638000D01*
X169568761Y-23542761D01*
X169473523Y-23495142D01*
X169425904Y-23495142D01*
X169330666Y-23542761D01*
X169283047Y-23638000D01*
X169283047Y-23780857D01*
X169235428Y-23876095D01*
X169140190Y-23923714D01*
X169092571Y-23923714D01*
X168997333Y-23876095D01*
X168949714Y-23780857D01*
X168949714Y-23638000D01*
X168997333Y-23542761D01*
X168949714Y-23209428D02*
X168949714Y-22828476D01*
X168616380Y-23066571D02*
X169473523Y-23066571D01*
X169568761Y-23018952D01*
X169616380Y-22923714D01*
X169616380Y-22828476D01*
X168949714Y-22495142D02*
X169616380Y-22495142D01*
X169044952Y-22495142D02*
X168997333Y-22447523D01*
X168949714Y-22352285D01*
X168949714Y-22209428D01*
X168997333Y-22114190D01*
X169092571Y-22066571D01*
X169616380Y-22066571D01*
X137414095Y-93480000D02*
X137318857Y-93432380D01*
X137176000Y-93432380D01*
X137033142Y-93480000D01*
X136937904Y-93575238D01*
X136890285Y-93670476D01*
X136842666Y-93860952D01*
X136842666Y-94003809D01*
X136890285Y-94194285D01*
X136937904Y-94289523D01*
X137033142Y-94384761D01*
X137176000Y-94432380D01*
X137271238Y-94432380D01*
X137414095Y-94384761D01*
X137461714Y-94337142D01*
X137461714Y-94003809D01*
X137271238Y-94003809D01*
X137890285Y-94432380D02*
X137890285Y-93432380D01*
X138461714Y-94432380D01*
X138461714Y-93432380D01*
X138937904Y-94432380D02*
X138937904Y-93432380D01*
X139176000Y-93432380D01*
X139318857Y-93480000D01*
X139414095Y-93575238D01*
X139461714Y-93670476D01*
X139509333Y-93860952D01*
X139509333Y-94003809D01*
X139461714Y-94194285D01*
X139414095Y-94289523D01*
X139318857Y-94384761D01*
X139176000Y-94432380D01*
X138937904Y-94432380D01*
X150622095Y-93480000D02*
X150526857Y-93432380D01*
X150384000Y-93432380D01*
X150241142Y-93480000D01*
X150145904Y-93575238D01*
X150098285Y-93670476D01*
X150050666Y-93860952D01*
X150050666Y-94003809D01*
X150098285Y-94194285D01*
X150145904Y-94289523D01*
X150241142Y-94384761D01*
X150384000Y-94432380D01*
X150479238Y-94432380D01*
X150622095Y-94384761D01*
X150669714Y-94337142D01*
X150669714Y-94003809D01*
X150479238Y-94003809D01*
X151098285Y-94432380D02*
X151098285Y-93432380D01*
X151669714Y-94432380D01*
X151669714Y-93432380D01*
X152145904Y-94432380D02*
X152145904Y-93432380D01*
X152384000Y-93432380D01*
X152526857Y-93480000D01*
X152622095Y-93575238D01*
X152669714Y-93670476D01*
X152717333Y-93860952D01*
X152717333Y-94003809D01*
X152669714Y-94194285D01*
X152622095Y-94289523D01*
X152526857Y-94384761D01*
X152384000Y-94432380D01*
X152145904Y-94432380D01*
X141732095Y-60460000D02*
X141636857Y-60412380D01*
X141494000Y-60412380D01*
X141351142Y-60460000D01*
X141255904Y-60555238D01*
X141208285Y-60650476D01*
X141160666Y-60840952D01*
X141160666Y-60983809D01*
X141208285Y-61174285D01*
X141255904Y-61269523D01*
X141351142Y-61364761D01*
X141494000Y-61412380D01*
X141589238Y-61412380D01*
X141732095Y-61364761D01*
X141779714Y-61317142D01*
X141779714Y-60983809D01*
X141589238Y-60983809D01*
X142208285Y-61412380D02*
X142208285Y-60412380D01*
X142779714Y-61412380D01*
X142779714Y-60412380D01*
X143255904Y-61412380D02*
X143255904Y-60412380D01*
X143494000Y-60412380D01*
X143636857Y-60460000D01*
X143732095Y-60555238D01*
X143779714Y-60650476D01*
X143827333Y-60840952D01*
X143827333Y-60983809D01*
X143779714Y-61174285D01*
X143732095Y-61269523D01*
X143636857Y-61364761D01*
X143494000Y-61412380D01*
X143255904Y-61412380D01*
X140494000Y-58491428D02*
X141255904Y-58491428D01*
X140874952Y-58872380D02*
X140874952Y-58110476D01*
X141636857Y-57872380D02*
X142255904Y-57872380D01*
X141922571Y-58253333D01*
X142065428Y-58253333D01*
X142160666Y-58300952D01*
X142208285Y-58348571D01*
X142255904Y-58443809D01*
X142255904Y-58681904D01*
X142208285Y-58777142D01*
X142160666Y-58824761D01*
X142065428Y-58872380D01*
X141779714Y-58872380D01*
X141684476Y-58824761D01*
X141636857Y-58777142D01*
X142684476Y-58777142D02*
X142732095Y-58824761D01*
X142684476Y-58872380D01*
X142636857Y-58824761D01*
X142684476Y-58777142D01*
X142684476Y-58872380D01*
X143065428Y-57872380D02*
X143684476Y-57872380D01*
X143351142Y-58253333D01*
X143494000Y-58253333D01*
X143589238Y-58300952D01*
X143636857Y-58348571D01*
X143684476Y-58443809D01*
X143684476Y-58681904D01*
X143636857Y-58777142D01*
X143589238Y-58824761D01*
X143494000Y-58872380D01*
X143208285Y-58872380D01*
X143113047Y-58824761D01*
X143065428Y-58777142D01*
X143970190Y-57872380D02*
X144303523Y-58872380D01*
X144636857Y-57872380D01*
X122936095Y-57920000D02*
X122840857Y-57872380D01*
X122698000Y-57872380D01*
X122555142Y-57920000D01*
X122459904Y-58015238D01*
X122412285Y-58110476D01*
X122364666Y-58300952D01*
X122364666Y-58443809D01*
X122412285Y-58634285D01*
X122459904Y-58729523D01*
X122555142Y-58824761D01*
X122698000Y-58872380D01*
X122793238Y-58872380D01*
X122936095Y-58824761D01*
X122983714Y-58777142D01*
X122983714Y-58443809D01*
X122793238Y-58443809D01*
X123412285Y-58872380D02*
X123412285Y-57872380D01*
X123983714Y-58872380D01*
X123983714Y-57872380D01*
X124459904Y-58872380D02*
X124459904Y-57872380D01*
X124698000Y-57872380D01*
X124840857Y-57920000D01*
X124936095Y-58015238D01*
X124983714Y-58110476D01*
X125031333Y-58300952D01*
X125031333Y-58443809D01*
X124983714Y-58634285D01*
X124936095Y-58729523D01*
X124840857Y-58824761D01*
X124698000Y-58872380D01*
X124459904Y-58872380D01*
X121301142Y-53744761D02*
X121444000Y-53792380D01*
X121682095Y-53792380D01*
X121777333Y-53744761D01*
X121824952Y-53697142D01*
X121872571Y-53601904D01*
X121872571Y-53506666D01*
X121824952Y-53411428D01*
X121777333Y-53363809D01*
X121682095Y-53316190D01*
X121491619Y-53268571D01*
X121396380Y-53220952D01*
X121348761Y-53173333D01*
X121301142Y-53078095D01*
X121301142Y-52982857D01*
X121348761Y-52887619D01*
X121396380Y-52840000D01*
X121491619Y-52792380D01*
X121729714Y-52792380D01*
X121872571Y-52840000D01*
X122301142Y-53792380D02*
X122301142Y-53125714D01*
X122301142Y-52792380D02*
X122253523Y-52840000D01*
X122301142Y-52887619D01*
X122348761Y-52840000D01*
X122301142Y-52792380D01*
X122301142Y-52887619D01*
X123205904Y-53125714D02*
X123205904Y-53935238D01*
X123158285Y-54030476D01*
X123110666Y-54078095D01*
X123015428Y-54125714D01*
X122872571Y-54125714D01*
X122777333Y-54078095D01*
X123205904Y-53744761D02*
X123110666Y-53792380D01*
X122920190Y-53792380D01*
X122824952Y-53744761D01*
X122777333Y-53697142D01*
X122729714Y-53601904D01*
X122729714Y-53316190D01*
X122777333Y-53220952D01*
X122824952Y-53173333D01*
X122920190Y-53125714D01*
X123110666Y-53125714D01*
X123205904Y-53173333D01*
X123682095Y-53125714D02*
X123682095Y-53792380D01*
X123682095Y-53220952D02*
X123729714Y-53173333D01*
X123824952Y-53125714D01*
X123967809Y-53125714D01*
X124063047Y-53173333D01*
X124110666Y-53268571D01*
X124110666Y-53792380D01*
X125015428Y-53792380D02*
X125015428Y-53268571D01*
X124967809Y-53173333D01*
X124872571Y-53125714D01*
X124682095Y-53125714D01*
X124586857Y-53173333D01*
X125015428Y-53744761D02*
X124920190Y-53792380D01*
X124682095Y-53792380D01*
X124586857Y-53744761D01*
X124539238Y-53649523D01*
X124539238Y-53554285D01*
X124586857Y-53459047D01*
X124682095Y-53411428D01*
X124920190Y-53411428D01*
X125015428Y-53363809D01*
X125634476Y-53792380D02*
X125539238Y-53744761D01*
X125491619Y-53649523D01*
X125491619Y-52792380D01*
X131826095Y-40140000D02*
X131730857Y-40092380D01*
X131588000Y-40092380D01*
X131445142Y-40140000D01*
X131349904Y-40235238D01*
X131302285Y-40330476D01*
X131254666Y-40520952D01*
X131254666Y-40663809D01*
X131302285Y-40854285D01*
X131349904Y-40949523D01*
X131445142Y-41044761D01*
X131588000Y-41092380D01*
X131683238Y-41092380D01*
X131826095Y-41044761D01*
X131873714Y-40997142D01*
X131873714Y-40663809D01*
X131683238Y-40663809D01*
X132302285Y-41092380D02*
X132302285Y-40092380D01*
X132873714Y-41092380D01*
X132873714Y-40092380D01*
X133349904Y-41092380D02*
X133349904Y-40092380D01*
X133588000Y-40092380D01*
X133730857Y-40140000D01*
X133826095Y-40235238D01*
X133873714Y-40330476D01*
X133921333Y-40520952D01*
X133921333Y-40663809D01*
X133873714Y-40854285D01*
X133826095Y-40949523D01*
X133730857Y-41044761D01*
X133588000Y-41092380D01*
X133349904Y-41092380D01*
X121698000Y-40711428D02*
X122459904Y-40711428D01*
X122078952Y-41092380D02*
X122078952Y-40330476D01*
X122840857Y-40092380D02*
X123459904Y-40092380D01*
X123126571Y-40473333D01*
X123269428Y-40473333D01*
X123364666Y-40520952D01*
X123412285Y-40568571D01*
X123459904Y-40663809D01*
X123459904Y-40901904D01*
X123412285Y-40997142D01*
X123364666Y-41044761D01*
X123269428Y-41092380D01*
X122983714Y-41092380D01*
X122888476Y-41044761D01*
X122840857Y-40997142D01*
X123888476Y-40997142D02*
X123936095Y-41044761D01*
X123888476Y-41092380D01*
X123840857Y-41044761D01*
X123888476Y-40997142D01*
X123888476Y-41092380D01*
X124269428Y-40092380D02*
X124888476Y-40092380D01*
X124555142Y-40473333D01*
X124698000Y-40473333D01*
X124793238Y-40520952D01*
X124840857Y-40568571D01*
X124888476Y-40663809D01*
X124888476Y-40901904D01*
X124840857Y-40997142D01*
X124793238Y-41044761D01*
X124698000Y-41092380D01*
X124412285Y-41092380D01*
X124317047Y-41044761D01*
X124269428Y-40997142D01*
X125174190Y-40092380D02*
X125507523Y-41092380D01*
X125840857Y-40092380D01*
X123206000Y-45172380D02*
X123396476Y-45172380D01*
X123491714Y-45220000D01*
X123586952Y-45315238D01*
X123634571Y-45505714D01*
X123634571Y-45839047D01*
X123586952Y-46029523D01*
X123491714Y-46124761D01*
X123396476Y-46172380D01*
X123206000Y-46172380D01*
X123110761Y-46124761D01*
X123015523Y-46029523D01*
X122967904Y-45839047D01*
X122967904Y-45505714D01*
X123015523Y-45315238D01*
X123110761Y-45220000D01*
X123206000Y-45172380D01*
X124063142Y-45172380D02*
X124063142Y-45981904D01*
X124110761Y-46077142D01*
X124158380Y-46124761D01*
X124253619Y-46172380D01*
X124444095Y-46172380D01*
X124539333Y-46124761D01*
X124586952Y-46077142D01*
X124634571Y-45981904D01*
X124634571Y-45172380D01*
X124967904Y-45172380D02*
X125539333Y-45172380D01*
X125253619Y-46172380D02*
X125253619Y-45172380D01*
X131730761Y-43632380D02*
X131397428Y-43156190D01*
X131159333Y-43632380D02*
X131159333Y-42632380D01*
X131540285Y-42632380D01*
X131635523Y-42680000D01*
X131683142Y-42727619D01*
X131730761Y-42822857D01*
X131730761Y-42965714D01*
X131683142Y-43060952D01*
X131635523Y-43108571D01*
X131540285Y-43156190D01*
X131159333Y-43156190D01*
X132064095Y-43632380D02*
X132587904Y-42965714D01*
X132064095Y-42965714D02*
X132587904Y-43632380D01*
X124023523Y-42632380D02*
X124594952Y-42632380D01*
X124309238Y-43632380D02*
X124309238Y-42632380D01*
X124833047Y-43632380D02*
X125356857Y-42965714D01*
X124833047Y-42965714D02*
X125356857Y-43632380D01*
X141406761Y-43886380D02*
X141406761Y-42886380D01*
X141787714Y-42886380D01*
X141882952Y-42934000D01*
X141930571Y-42981619D01*
X141978190Y-43076857D01*
X141978190Y-43219714D01*
X141930571Y-43314952D01*
X141882952Y-43362571D01*
X141787714Y-43410190D01*
X141406761Y-43410190D01*
X142359142Y-42981619D02*
X142406761Y-42934000D01*
X142502000Y-42886380D01*
X142740095Y-42886380D01*
X142835333Y-42934000D01*
X142882952Y-42981619D01*
X142930571Y-43076857D01*
X142930571Y-43172095D01*
X142882952Y-43314952D01*
X142311523Y-43886380D01*
X142930571Y-43886380D01*
X143121047Y-43981619D02*
X143882952Y-43981619D01*
X144549619Y-42886380D02*
X144359142Y-42886380D01*
X144263904Y-42934000D01*
X144216285Y-42981619D01*
X144121047Y-43124476D01*
X144073428Y-43314952D01*
X144073428Y-43695904D01*
X144121047Y-43791142D01*
X144168666Y-43838761D01*
X144263904Y-43886380D01*
X144454380Y-43886380D01*
X144549619Y-43838761D01*
X144597238Y-43791142D01*
X144644857Y-43695904D01*
X144644857Y-43457809D01*
X144597238Y-43362571D01*
X144549619Y-43314952D01*
X144454380Y-43267333D01*
X144263904Y-43267333D01*
X144168666Y-43314952D01*
X144121047Y-43362571D01*
X144073428Y-43457809D01*
X141406761Y-46172380D02*
X141406761Y-45172380D01*
X141787714Y-45172380D01*
X141882952Y-45220000D01*
X141930571Y-45267619D01*
X141978190Y-45362857D01*
X141978190Y-45505714D01*
X141930571Y-45600952D01*
X141882952Y-45648571D01*
X141787714Y-45696190D01*
X141406761Y-45696190D01*
X142359142Y-45267619D02*
X142406761Y-45220000D01*
X142502000Y-45172380D01*
X142740095Y-45172380D01*
X142835333Y-45220000D01*
X142882952Y-45267619D01*
X142930571Y-45362857D01*
X142930571Y-45458095D01*
X142882952Y-45600952D01*
X142311523Y-46172380D01*
X142930571Y-46172380D01*
X143121047Y-46267619D02*
X143882952Y-46267619D01*
X144597238Y-45172380D02*
X144121047Y-45172380D01*
X144073428Y-45648571D01*
X144121047Y-45600952D01*
X144216285Y-45553333D01*
X144454380Y-45553333D01*
X144549619Y-45600952D01*
X144597238Y-45648571D01*
X144644857Y-45743809D01*
X144644857Y-45981904D01*
X144597238Y-46077142D01*
X144549619Y-46124761D01*
X144454380Y-46172380D01*
X144216285Y-46172380D01*
X144121047Y-46124761D01*
X144073428Y-46077142D01*
X159694761Y-39822380D02*
X159694761Y-38822380D01*
X160075714Y-38822380D01*
X160170952Y-38870000D01*
X160218571Y-38917619D01*
X160266190Y-39012857D01*
X160266190Y-39155714D01*
X160218571Y-39250952D01*
X160170952Y-39298571D01*
X160075714Y-39346190D01*
X159694761Y-39346190D01*
X160647142Y-38917619D02*
X160694761Y-38870000D01*
X160790000Y-38822380D01*
X161028095Y-38822380D01*
X161123333Y-38870000D01*
X161170952Y-38917619D01*
X161218571Y-39012857D01*
X161218571Y-39108095D01*
X161170952Y-39250952D01*
X160599523Y-39822380D01*
X161218571Y-39822380D01*
X161409047Y-39917619D02*
X162170952Y-39917619D01*
X162837619Y-38822380D02*
X162647142Y-38822380D01*
X162551904Y-38870000D01*
X162504285Y-38917619D01*
X162409047Y-39060476D01*
X162361428Y-39250952D01*
X162361428Y-39631904D01*
X162409047Y-39727142D01*
X162456666Y-39774761D01*
X162551904Y-39822380D01*
X162742380Y-39822380D01*
X162837619Y-39774761D01*
X162885238Y-39727142D01*
X162932857Y-39631904D01*
X162932857Y-39393809D01*
X162885238Y-39298571D01*
X162837619Y-39250952D01*
X162742380Y-39203333D01*
X162551904Y-39203333D01*
X162456666Y-39250952D01*
X162409047Y-39298571D01*
X162361428Y-39393809D01*
X159694761Y-49982380D02*
X159694761Y-48982380D01*
X160075714Y-48982380D01*
X160170952Y-49030000D01*
X160218571Y-49077619D01*
X160266190Y-49172857D01*
X160266190Y-49315714D01*
X160218571Y-49410952D01*
X160170952Y-49458571D01*
X160075714Y-49506190D01*
X159694761Y-49506190D01*
X160647142Y-49077619D02*
X160694761Y-49030000D01*
X160790000Y-48982380D01*
X161028095Y-48982380D01*
X161123333Y-49030000D01*
X161170952Y-49077619D01*
X161218571Y-49172857D01*
X161218571Y-49268095D01*
X161170952Y-49410952D01*
X160599523Y-49982380D01*
X161218571Y-49982380D01*
X161409047Y-50077619D02*
X162170952Y-50077619D01*
X162885238Y-48982380D02*
X162409047Y-48982380D01*
X162361428Y-49458571D01*
X162409047Y-49410952D01*
X162504285Y-49363333D01*
X162742380Y-49363333D01*
X162837619Y-49410952D01*
X162885238Y-49458571D01*
X162932857Y-49553809D01*
X162932857Y-49791904D01*
X162885238Y-49887142D01*
X162837619Y-49934761D01*
X162742380Y-49982380D01*
X162504285Y-49982380D01*
X162409047Y-49934761D01*
X162361428Y-49887142D01*
X132262761Y-56332380D02*
X132262761Y-55332380D01*
X132643714Y-55332380D01*
X132738952Y-55380000D01*
X132786571Y-55427619D01*
X132834190Y-55522857D01*
X132834190Y-55665714D01*
X132786571Y-55760952D01*
X132738952Y-55808571D01*
X132643714Y-55856190D01*
X132262761Y-55856190D01*
X133691333Y-55665714D02*
X133691333Y-56332380D01*
X133453238Y-55284761D02*
X133215142Y-55999047D01*
X133834190Y-55999047D01*
X133977047Y-56427619D02*
X134738952Y-56427619D01*
X134881809Y-55332380D02*
X135500857Y-55332380D01*
X135167523Y-55713333D01*
X135310380Y-55713333D01*
X135405619Y-55760952D01*
X135453238Y-55808571D01*
X135500857Y-55903809D01*
X135500857Y-56141904D01*
X135453238Y-56237142D01*
X135405619Y-56284761D01*
X135310380Y-56332380D01*
X135024666Y-56332380D01*
X134929428Y-56284761D01*
X134881809Y-56237142D01*
X141406761Y-56332380D02*
X141406761Y-55332380D01*
X141787714Y-55332380D01*
X141882952Y-55380000D01*
X141930571Y-55427619D01*
X141978190Y-55522857D01*
X141978190Y-55665714D01*
X141930571Y-55760952D01*
X141882952Y-55808571D01*
X141787714Y-55856190D01*
X141406761Y-55856190D01*
X142835333Y-55665714D02*
X142835333Y-56332380D01*
X142597238Y-55284761D02*
X142359142Y-55999047D01*
X142978190Y-55999047D01*
X143121047Y-56427619D02*
X143882952Y-56427619D01*
X144025809Y-55332380D02*
X144644857Y-55332380D01*
X144311523Y-55713333D01*
X144454380Y-55713333D01*
X144549619Y-55760952D01*
X144597238Y-55808571D01*
X144644857Y-55903809D01*
X144644857Y-56141904D01*
X144597238Y-56237142D01*
X144549619Y-56284761D01*
X144454380Y-56332380D01*
X144168666Y-56332380D01*
X144073428Y-56284761D01*
X144025809Y-56237142D01*
X146740761Y-74112380D02*
X146740761Y-73112380D01*
X147121714Y-73112380D01*
X147216952Y-73160000D01*
X147264571Y-73207619D01*
X147312190Y-73302857D01*
X147312190Y-73445714D01*
X147264571Y-73540952D01*
X147216952Y-73588571D01*
X147121714Y-73636190D01*
X146740761Y-73636190D01*
X147693142Y-73207619D02*
X147740761Y-73160000D01*
X147836000Y-73112380D01*
X148074095Y-73112380D01*
X148169333Y-73160000D01*
X148216952Y-73207619D01*
X148264571Y-73302857D01*
X148264571Y-73398095D01*
X148216952Y-73540952D01*
X147645523Y-74112380D01*
X148264571Y-74112380D01*
X148455047Y-74207619D02*
X149216952Y-74207619D01*
X149883619Y-73112380D02*
X149693142Y-73112380D01*
X149597904Y-73160000D01*
X149550285Y-73207619D01*
X149455047Y-73350476D01*
X149407428Y-73540952D01*
X149407428Y-73921904D01*
X149455047Y-74017142D01*
X149502666Y-74064761D01*
X149597904Y-74112380D01*
X149788380Y-74112380D01*
X149883619Y-74064761D01*
X149931238Y-74017142D01*
X149978857Y-73921904D01*
X149978857Y-73683809D01*
X149931238Y-73588571D01*
X149883619Y-73540952D01*
X149788380Y-73493333D01*
X149597904Y-73493333D01*
X149502666Y-73540952D01*
X149455047Y-73588571D01*
X149407428Y-73683809D01*
X146740761Y-76652380D02*
X146740761Y-75652380D01*
X147121714Y-75652380D01*
X147216952Y-75700000D01*
X147264571Y-75747619D01*
X147312190Y-75842857D01*
X147312190Y-75985714D01*
X147264571Y-76080952D01*
X147216952Y-76128571D01*
X147121714Y-76176190D01*
X146740761Y-76176190D01*
X147693142Y-75747619D02*
X147740761Y-75700000D01*
X147836000Y-75652380D01*
X148074095Y-75652380D01*
X148169333Y-75700000D01*
X148216952Y-75747619D01*
X148264571Y-75842857D01*
X148264571Y-75938095D01*
X148216952Y-76080952D01*
X147645523Y-76652380D01*
X148264571Y-76652380D01*
X148455047Y-76747619D02*
X149216952Y-76747619D01*
X149931238Y-75652380D02*
X149455047Y-75652380D01*
X149407428Y-76128571D01*
X149455047Y-76080952D01*
X149550285Y-76033333D01*
X149788380Y-76033333D01*
X149883619Y-76080952D01*
X149931238Y-76128571D01*
X149978857Y-76223809D01*
X149978857Y-76461904D01*
X149931238Y-76557142D01*
X149883619Y-76604761D01*
X149788380Y-76652380D01*
X149550285Y-76652380D01*
X149455047Y-76604761D01*
X149407428Y-76557142D01*
X146740761Y-79192380D02*
X146740761Y-78192380D01*
X147121714Y-78192380D01*
X147216952Y-78240000D01*
X147264571Y-78287619D01*
X147312190Y-78382857D01*
X147312190Y-78525714D01*
X147264571Y-78620952D01*
X147216952Y-78668571D01*
X147121714Y-78716190D01*
X146740761Y-78716190D01*
X148169333Y-78525714D02*
X148169333Y-79192380D01*
X147931238Y-78144761D02*
X147693142Y-78859047D01*
X148312190Y-78859047D01*
X148455047Y-79287619D02*
X149216952Y-79287619D01*
X149359809Y-78192380D02*
X149978857Y-78192380D01*
X149645523Y-78573333D01*
X149788380Y-78573333D01*
X149883619Y-78620952D01*
X149931238Y-78668571D01*
X149978857Y-78763809D01*
X149978857Y-79001904D01*
X149931238Y-79097142D01*
X149883619Y-79144761D01*
X149788380Y-79192380D01*
X149502666Y-79192380D01*
X149407428Y-79144761D01*
X149359809Y-79097142D01*
X163250761Y-84272380D02*
X163250761Y-83272380D01*
X163631714Y-83272380D01*
X163726952Y-83320000D01*
X163774571Y-83367619D01*
X163822190Y-83462857D01*
X163822190Y-83605714D01*
X163774571Y-83700952D01*
X163726952Y-83748571D01*
X163631714Y-83796190D01*
X163250761Y-83796190D01*
X164155523Y-83272380D02*
X164822190Y-83272380D01*
X164393619Y-84272380D01*
X164965047Y-84367619D02*
X165726952Y-84367619D01*
X166155523Y-83272380D02*
X166250761Y-83272380D01*
X166346000Y-83320000D01*
X166393619Y-83367619D01*
X166441238Y-83462857D01*
X166488857Y-83653333D01*
X166488857Y-83891428D01*
X166441238Y-84081904D01*
X166393619Y-84177142D01*
X166346000Y-84224761D01*
X166250761Y-84272380D01*
X166155523Y-84272380D01*
X166060285Y-84224761D01*
X166012666Y-84177142D01*
X165965047Y-84081904D01*
X165917428Y-83891428D01*
X165917428Y-83653333D01*
X165965047Y-83462857D01*
X166012666Y-83367619D01*
X166060285Y-83320000D01*
X166155523Y-83272380D01*
X163250761Y-81732380D02*
X163250761Y-80732380D01*
X163631714Y-80732380D01*
X163726952Y-80780000D01*
X163774571Y-80827619D01*
X163822190Y-80922857D01*
X163822190Y-81065714D01*
X163774571Y-81160952D01*
X163726952Y-81208571D01*
X163631714Y-81256190D01*
X163250761Y-81256190D01*
X164155523Y-80732380D02*
X164822190Y-80732380D01*
X164393619Y-81732380D01*
X164965047Y-81827619D02*
X165726952Y-81827619D01*
X166488857Y-81732380D02*
X165917428Y-81732380D01*
X166203142Y-81732380D02*
X166203142Y-80732380D01*
X166107904Y-80875238D01*
X166012666Y-80970476D01*
X165917428Y-81018095D01*
X163250761Y-69032380D02*
X163250761Y-68032380D01*
X163631714Y-68032380D01*
X163726952Y-68080000D01*
X163774571Y-68127619D01*
X163822190Y-68222857D01*
X163822190Y-68365714D01*
X163774571Y-68460952D01*
X163726952Y-68508571D01*
X163631714Y-68556190D01*
X163250761Y-68556190D01*
X164679333Y-68032380D02*
X164488857Y-68032380D01*
X164393619Y-68080000D01*
X164346000Y-68127619D01*
X164250761Y-68270476D01*
X164203142Y-68460952D01*
X164203142Y-68841904D01*
X164250761Y-68937142D01*
X164298380Y-68984761D01*
X164393619Y-69032380D01*
X164584095Y-69032380D01*
X164679333Y-68984761D01*
X164726952Y-68937142D01*
X164774571Y-68841904D01*
X164774571Y-68603809D01*
X164726952Y-68508571D01*
X164679333Y-68460952D01*
X164584095Y-68413333D01*
X164393619Y-68413333D01*
X164298380Y-68460952D01*
X164250761Y-68508571D01*
X164203142Y-68603809D01*
X164965047Y-69127619D02*
X165726952Y-69127619D01*
X166155523Y-68032380D02*
X166250761Y-68032380D01*
X166346000Y-68080000D01*
X166393619Y-68127619D01*
X166441238Y-68222857D01*
X166488857Y-68413333D01*
X166488857Y-68651428D01*
X166441238Y-68841904D01*
X166393619Y-68937142D01*
X166346000Y-68984761D01*
X166250761Y-69032380D01*
X166155523Y-69032380D01*
X166060285Y-68984761D01*
X166012666Y-68937142D01*
X165965047Y-68841904D01*
X165917428Y-68651428D01*
X165917428Y-68413333D01*
X165965047Y-68222857D01*
X166012666Y-68127619D01*
X166060285Y-68080000D01*
X166155523Y-68032380D01*
X163250761Y-66492380D02*
X163250761Y-65492380D01*
X163631714Y-65492380D01*
X163726952Y-65540000D01*
X163774571Y-65587619D01*
X163822190Y-65682857D01*
X163822190Y-65825714D01*
X163774571Y-65920952D01*
X163726952Y-65968571D01*
X163631714Y-66016190D01*
X163250761Y-66016190D01*
X164679333Y-65492380D02*
X164488857Y-65492380D01*
X164393619Y-65540000D01*
X164346000Y-65587619D01*
X164250761Y-65730476D01*
X164203142Y-65920952D01*
X164203142Y-66301904D01*
X164250761Y-66397142D01*
X164298380Y-66444761D01*
X164393619Y-66492380D01*
X164584095Y-66492380D01*
X164679333Y-66444761D01*
X164726952Y-66397142D01*
X164774571Y-66301904D01*
X164774571Y-66063809D01*
X164726952Y-65968571D01*
X164679333Y-65920952D01*
X164584095Y-65873333D01*
X164393619Y-65873333D01*
X164298380Y-65920952D01*
X164250761Y-65968571D01*
X164203142Y-66063809D01*
X164965047Y-66587619D02*
X165726952Y-66587619D01*
X166488857Y-66492380D02*
X165917428Y-66492380D01*
X166203142Y-66492380D02*
X166203142Y-65492380D01*
X166107904Y-65635238D01*
X166012666Y-65730476D01*
X165917428Y-65778095D01*
X173466285Y-61031428D02*
X174228190Y-61031428D01*
X173847238Y-61412380D02*
X173847238Y-60650476D01*
X175180571Y-60412380D02*
X174704380Y-60412380D01*
X174656761Y-60888571D01*
X174704380Y-60840952D01*
X174799619Y-60793333D01*
X175037714Y-60793333D01*
X175132952Y-60840952D01*
X175180571Y-60888571D01*
X175228190Y-60983809D01*
X175228190Y-61221904D01*
X175180571Y-61317142D01*
X175132952Y-61364761D01*
X175037714Y-61412380D01*
X174799619Y-61412380D01*
X174704380Y-61364761D01*
X174656761Y-61317142D01*
X175513904Y-60412380D02*
X175847238Y-61412380D01*
X176180571Y-60412380D01*
X162846000Y-61031428D02*
X163607904Y-61031428D01*
X163226952Y-61412380D02*
X163226952Y-60650476D01*
X163988857Y-60412380D02*
X164607904Y-60412380D01*
X164274571Y-60793333D01*
X164417428Y-60793333D01*
X164512666Y-60840952D01*
X164560285Y-60888571D01*
X164607904Y-60983809D01*
X164607904Y-61221904D01*
X164560285Y-61317142D01*
X164512666Y-61364761D01*
X164417428Y-61412380D01*
X164131714Y-61412380D01*
X164036476Y-61364761D01*
X163988857Y-61317142D01*
X165036476Y-61317142D02*
X165084095Y-61364761D01*
X165036476Y-61412380D01*
X164988857Y-61364761D01*
X165036476Y-61317142D01*
X165036476Y-61412380D01*
X165417428Y-60412380D02*
X166036476Y-60412380D01*
X165703142Y-60793333D01*
X165846000Y-60793333D01*
X165941238Y-60840952D01*
X165988857Y-60888571D01*
X166036476Y-60983809D01*
X166036476Y-61221904D01*
X165988857Y-61317142D01*
X165941238Y-61364761D01*
X165846000Y-61412380D01*
X165560285Y-61412380D01*
X165465047Y-61364761D01*
X165417428Y-61317142D01*
X166322190Y-60412380D02*
X166655523Y-61412380D01*
X166988857Y-60412380D01*
D11*
%TO.C,J3*%
X170120000Y-59630000D02*
X171450000Y-59630000D01*
X170120000Y-60960000D02*
X170120000Y-59630000D01*
X170120000Y-62230000D02*
X172780000Y-62230000D01*
X172780000Y-62230000D02*
X172780000Y-85150000D01*
X170120000Y-62230000D02*
X170120000Y-85150000D01*
X170120000Y-85150000D02*
X172780000Y-85150000D01*
%TO.C,J8*%
X129734000Y-27372000D02*
X129734000Y-32572000D01*
X167894000Y-27372000D02*
X129734000Y-27372000D01*
X170494000Y-32572000D02*
X129734000Y-32572000D01*
X167894000Y-27372000D02*
X167894000Y-29972000D01*
X167894000Y-29972000D02*
X170494000Y-29972000D01*
X170494000Y-29972000D02*
X170494000Y-32572000D01*
X169164000Y-27372000D02*
X170494000Y-27372000D01*
X170494000Y-27372000D02*
X170494000Y-28702000D01*
%TO.C,J7*%
X125670000Y-47050000D02*
X130870000Y-47050000D01*
X125670000Y-41910000D02*
X125670000Y-47050000D01*
X130870000Y-39310000D02*
X130870000Y-47050000D01*
X125670000Y-41910000D02*
X128270000Y-41910000D01*
X128270000Y-41910000D02*
X128270000Y-39310000D01*
X128270000Y-39310000D02*
X130870000Y-39310000D01*
X125670000Y-40640000D02*
X125670000Y-39310000D01*
X125670000Y-39310000D02*
X127000000Y-39310000D01*
%TO.C,J5*%
X125670000Y-59750000D02*
X128330000Y-59750000D01*
X125670000Y-54610000D02*
X125670000Y-59750000D01*
X128330000Y-54610000D02*
X128330000Y-59750000D01*
X125670000Y-54610000D02*
X128330000Y-54610000D01*
X125670000Y-53340000D02*
X125670000Y-52010000D01*
X125670000Y-52010000D02*
X127000000Y-52010000D01*
%TO.C,J70*%
X138370000Y-52130000D02*
X141030000Y-52130000D01*
X138370000Y-39370000D02*
X138370000Y-52130000D01*
X141030000Y-39370000D02*
X141030000Y-52130000D01*
X138370000Y-39370000D02*
X141030000Y-39370000D01*
X138370000Y-38100000D02*
X138370000Y-36770000D01*
X138370000Y-36770000D02*
X139700000Y-36770000D01*
%TO.C,J71*%
X135830000Y-36770000D02*
X137160000Y-36770000D01*
X135830000Y-38100000D02*
X135830000Y-36770000D01*
X135830000Y-39370000D02*
X138490000Y-39370000D01*
X138490000Y-39370000D02*
X138490000Y-52130000D01*
X135830000Y-39370000D02*
X135830000Y-52130000D01*
X135830000Y-52130000D02*
X138490000Y-52130000D01*
%TO.C,J50*%
X138370000Y-62290000D02*
X141030000Y-62290000D01*
X138370000Y-57150000D02*
X138370000Y-62290000D01*
X141030000Y-57150000D02*
X141030000Y-62290000D01*
X138370000Y-57150000D02*
X141030000Y-57150000D01*
X138370000Y-55880000D02*
X138370000Y-54550000D01*
X138370000Y-54550000D02*
X139700000Y-54550000D01*
%TO.C,J51*%
X135830000Y-54550000D02*
X137160000Y-54550000D01*
X135830000Y-55880000D02*
X135830000Y-54550000D01*
X135830000Y-57150000D02*
X138490000Y-57150000D01*
X138490000Y-57150000D02*
X138490000Y-62290000D01*
X135830000Y-57150000D02*
X135830000Y-62290000D01*
X135830000Y-62290000D02*
X138490000Y-62290000D01*
%TO.C,J60*%
X149920000Y-97850000D02*
X148590000Y-97850000D01*
X149920000Y-96520000D02*
X149920000Y-97850000D01*
X149920000Y-95250000D02*
X147260000Y-95250000D01*
X147260000Y-95250000D02*
X147260000Y-92650000D01*
X149920000Y-95250000D02*
X149920000Y-92650000D01*
X149920000Y-92650000D02*
X147260000Y-92650000D01*
%TO.C,J61*%
X147380000Y-92650000D02*
X144720000Y-92650000D01*
X147380000Y-95250000D02*
X147380000Y-92650000D01*
X144720000Y-95250000D02*
X144720000Y-92650000D01*
X147380000Y-95250000D02*
X144720000Y-95250000D01*
X147380000Y-96520000D02*
X147380000Y-97850000D01*
X147380000Y-97850000D02*
X146050000Y-97850000D01*
%TO.C,R1*%
X169810000Y-95730000D02*
X169810000Y-99850000D01*
X156690000Y-95730000D02*
X156690000Y-99850000D01*
X156690000Y-99850000D02*
X169810000Y-99850000D01*
X156690000Y-95730000D02*
X169810000Y-95730000D01*
%TO.C,R2*%
X156690000Y-90650000D02*
X169810000Y-90650000D01*
X156690000Y-94770000D02*
X169810000Y-94770000D01*
X156690000Y-90650000D02*
X156690000Y-94770000D01*
X169810000Y-90650000D02*
X169810000Y-94770000D01*
%TO.C,R3*%
X163460000Y-39850000D02*
X163460000Y-43970000D01*
X150340000Y-39850000D02*
X150340000Y-43970000D01*
X150340000Y-43970000D02*
X163460000Y-43970000D01*
X150340000Y-39850000D02*
X163460000Y-39850000D01*
%TO.C,R4*%
X150340000Y-44930000D02*
X163460000Y-44930000D01*
X150340000Y-49050000D02*
X163460000Y-49050000D01*
X150340000Y-44930000D02*
X150340000Y-49050000D01*
X163460000Y-44930000D02*
X163460000Y-49050000D01*
%TO.C,U6*%
X121793000Y-97920000D02*
X139700000Y-97920000D01*
X121790000Y-63373000D02*
X121790000Y-97920000D01*
X142370000Y-63370000D02*
X121790000Y-63370000D01*
X142370000Y-95250000D02*
X142346680Y-63370460D01*
X139700000Y-95250000D02*
X142370000Y-95250000D01*
X139700000Y-97920000D02*
X139700000Y-95250000D01*
X142370000Y-97920000D02*
X142370000Y-96520000D01*
X140970000Y-97920000D02*
X142370000Y-97920000D01*
X139700000Y-95250000D02*
X139720320Y-63385700D01*
X124460000Y-97920000D02*
X124460000Y-63525400D01*
%TO.C,J1*%
X167580000Y-85150000D02*
X170240000Y-85150000D01*
X167580000Y-62230000D02*
X167580000Y-85150000D01*
X170240000Y-62230000D02*
X170240000Y-85150000D01*
X167580000Y-62230000D02*
X170240000Y-62230000D01*
X167580000Y-60960000D02*
X167580000Y-59630000D01*
X167580000Y-59630000D02*
X168910000Y-59630000D01*
%TO.C,J2*%
X151070000Y-85150000D02*
X153730000Y-85150000D01*
X151070000Y-62230000D02*
X151070000Y-85150000D01*
X153730000Y-62230000D02*
X153730000Y-85150000D01*
X151070000Y-62230000D02*
X153730000Y-62230000D01*
X151070000Y-60960000D02*
X151070000Y-59630000D01*
X151070000Y-59630000D02*
X152400000Y-59630000D01*
%TO.C,J4*%
X153610000Y-59630000D02*
X154940000Y-59630000D01*
X153610000Y-60960000D02*
X153610000Y-59630000D01*
X153610000Y-62230000D02*
X156270000Y-62230000D01*
X156270000Y-62230000D02*
X156270000Y-85150000D01*
X153610000Y-62230000D02*
X153610000Y-85150000D01*
X153610000Y-85150000D02*
X156270000Y-85150000D01*
%TO.C,J9*%
X172780000Y-49590000D02*
X171450000Y-49590000D01*
X172780000Y-48260000D02*
X172780000Y-49590000D01*
X172780000Y-46990000D02*
X170120000Y-46990000D01*
X170120000Y-46990000D02*
X170120000Y-44390000D01*
X172780000Y-46990000D02*
X172780000Y-44390000D01*
X172780000Y-44390000D02*
X170120000Y-44390000D01*
%TO.C,J3*%
D10*
X171116666Y-58082380D02*
X171116666Y-58796666D01*
X171069047Y-58939523D01*
X170973809Y-59034761D01*
X170830952Y-59082380D01*
X170735714Y-59082380D01*
X171497619Y-58082380D02*
X172116666Y-58082380D01*
X171783333Y-58463333D01*
X171926190Y-58463333D01*
X172021428Y-58510952D01*
X172069047Y-58558571D01*
X172116666Y-58653809D01*
X172116666Y-58891904D01*
X172069047Y-58987142D01*
X172021428Y-59034761D01*
X171926190Y-59082380D01*
X171640476Y-59082380D01*
X171545238Y-59034761D01*
X171497619Y-58987142D01*
%TO.C,J8*%
X170946380Y-30305333D02*
X171660666Y-30305333D01*
X171803523Y-30352952D01*
X171898761Y-30448190D01*
X171946380Y-30591047D01*
X171946380Y-30686285D01*
X171374952Y-29686285D02*
X171327333Y-29781523D01*
X171279714Y-29829142D01*
X171184476Y-29876761D01*
X171136857Y-29876761D01*
X171041619Y-29829142D01*
X170994000Y-29781523D01*
X170946380Y-29686285D01*
X170946380Y-29495809D01*
X170994000Y-29400571D01*
X171041619Y-29352952D01*
X171136857Y-29305333D01*
X171184476Y-29305333D01*
X171279714Y-29352952D01*
X171327333Y-29400571D01*
X171374952Y-29495809D01*
X171374952Y-29686285D01*
X171422571Y-29781523D01*
X171470190Y-29829142D01*
X171565428Y-29876761D01*
X171755904Y-29876761D01*
X171851142Y-29829142D01*
X171898761Y-29781523D01*
X171946380Y-29686285D01*
X171946380Y-29495809D01*
X171898761Y-29400571D01*
X171851142Y-29352952D01*
X171755904Y-29305333D01*
X171565428Y-29305333D01*
X171470190Y-29352952D01*
X171422571Y-29400571D01*
X171374952Y-29495809D01*
%TO.C,J7*%
X127936666Y-37762380D02*
X127936666Y-38476666D01*
X127889047Y-38619523D01*
X127793809Y-38714761D01*
X127650952Y-38762380D01*
X127555714Y-38762380D01*
X128317619Y-37762380D02*
X128984285Y-37762380D01*
X128555714Y-38762380D01*
X124079523Y-48502380D02*
X124079523Y-47502380D01*
X124650952Y-48502380D01*
X124650952Y-47502380D01*
X125079523Y-47597619D02*
X125127142Y-47550000D01*
X125222380Y-47502380D01*
X125460476Y-47502380D01*
X125555714Y-47550000D01*
X125603333Y-47597619D01*
X125650952Y-47692857D01*
X125650952Y-47788095D01*
X125603333Y-47930952D01*
X125031904Y-48502380D01*
X125650952Y-48502380D01*
X126270000Y-47502380D02*
X126460476Y-47502380D01*
X126555714Y-47550000D01*
X126650952Y-47645238D01*
X126698571Y-47835714D01*
X126698571Y-48169047D01*
X126650952Y-48359523D01*
X126555714Y-48454761D01*
X126460476Y-48502380D01*
X126270000Y-48502380D01*
X126174761Y-48454761D01*
X126079523Y-48359523D01*
X126031904Y-48169047D01*
X126031904Y-47835714D01*
X126079523Y-47645238D01*
X126174761Y-47550000D01*
X126270000Y-47502380D01*
X127841428Y-48454761D02*
X127984285Y-48502380D01*
X128222380Y-48502380D01*
X128317619Y-48454761D01*
X128365238Y-48407142D01*
X128412857Y-48311904D01*
X128412857Y-48216666D01*
X128365238Y-48121428D01*
X128317619Y-48073809D01*
X128222380Y-48026190D01*
X128031904Y-47978571D01*
X127936666Y-47930952D01*
X127889047Y-47883333D01*
X127841428Y-47788095D01*
X127841428Y-47692857D01*
X127889047Y-47597619D01*
X127936666Y-47550000D01*
X128031904Y-47502380D01*
X128270000Y-47502380D01*
X128412857Y-47550000D01*
X129222380Y-48454761D02*
X129127142Y-48502380D01*
X128936666Y-48502380D01*
X128841428Y-48454761D01*
X128793809Y-48359523D01*
X128793809Y-47978571D01*
X128841428Y-47883333D01*
X128936666Y-47835714D01*
X129127142Y-47835714D01*
X129222380Y-47883333D01*
X129270000Y-47978571D01*
X129270000Y-48073809D01*
X128793809Y-48169047D01*
X129698571Y-47835714D02*
X129698571Y-48502380D01*
X129698571Y-47930952D02*
X129746190Y-47883333D01*
X129841428Y-47835714D01*
X129984285Y-47835714D01*
X130079523Y-47883333D01*
X130127142Y-47978571D01*
X130127142Y-48502380D01*
X130555714Y-48454761D02*
X130650952Y-48502380D01*
X130841428Y-48502380D01*
X130936666Y-48454761D01*
X130984285Y-48359523D01*
X130984285Y-48311904D01*
X130936666Y-48216666D01*
X130841428Y-48169047D01*
X130698571Y-48169047D01*
X130603333Y-48121428D01*
X130555714Y-48026190D01*
X130555714Y-47978571D01*
X130603333Y-47883333D01*
X130698571Y-47835714D01*
X130841428Y-47835714D01*
X130936666Y-47883333D01*
X131555714Y-48502380D02*
X131460476Y-48454761D01*
X131412857Y-48407142D01*
X131365238Y-48311904D01*
X131365238Y-48026190D01*
X131412857Y-47930952D01*
X131460476Y-47883333D01*
X131555714Y-47835714D01*
X131698571Y-47835714D01*
X131793809Y-47883333D01*
X131841428Y-47930952D01*
X131889047Y-48026190D01*
X131889047Y-48311904D01*
X131841428Y-48407142D01*
X131793809Y-48454761D01*
X131698571Y-48502380D01*
X131555714Y-48502380D01*
X132317619Y-48502380D02*
X132317619Y-47835714D01*
X132317619Y-48026190D02*
X132365238Y-47930952D01*
X132412857Y-47883333D01*
X132508095Y-47835714D01*
X132603333Y-47835714D01*
%TO.C,J5*%
X126666666Y-50462380D02*
X126666666Y-51176666D01*
X126619047Y-51319523D01*
X126523809Y-51414761D01*
X126380952Y-51462380D01*
X126285714Y-51462380D01*
X127619047Y-50462380D02*
X127142857Y-50462380D01*
X127095238Y-50938571D01*
X127142857Y-50890952D01*
X127238095Y-50843333D01*
X127476190Y-50843333D01*
X127571428Y-50890952D01*
X127619047Y-50938571D01*
X127666666Y-51033809D01*
X127666666Y-51271904D01*
X127619047Y-51367142D01*
X127571428Y-51414761D01*
X127476190Y-51462380D01*
X127238095Y-51462380D01*
X127142857Y-51414761D01*
X127095238Y-51367142D01*
X123404761Y-61107142D02*
X123357142Y-61154761D01*
X123214285Y-61202380D01*
X123119047Y-61202380D01*
X122976190Y-61154761D01*
X122880952Y-61059523D01*
X122833333Y-60964285D01*
X122785714Y-60773809D01*
X122785714Y-60630952D01*
X122833333Y-60440476D01*
X122880952Y-60345238D01*
X122976190Y-60250000D01*
X123119047Y-60202380D01*
X123214285Y-60202380D01*
X123357142Y-60250000D01*
X123404761Y-60297619D01*
X124023809Y-60202380D02*
X124214285Y-60202380D01*
X124309523Y-60250000D01*
X124404761Y-60345238D01*
X124452380Y-60535714D01*
X124452380Y-60869047D01*
X124404761Y-61059523D01*
X124309523Y-61154761D01*
X124214285Y-61202380D01*
X124023809Y-61202380D01*
X123928571Y-61154761D01*
X123833333Y-61059523D01*
X123785714Y-60869047D01*
X123785714Y-60535714D01*
X123833333Y-60345238D01*
X123928571Y-60250000D01*
X124023809Y-60202380D01*
X124833333Y-60297619D02*
X124880952Y-60250000D01*
X124976190Y-60202380D01*
X125214285Y-60202380D01*
X125309523Y-60250000D01*
X125357142Y-60297619D01*
X125404761Y-60392857D01*
X125404761Y-60488095D01*
X125357142Y-60630952D01*
X124785714Y-61202380D01*
X125404761Y-61202380D01*
X126547619Y-61154761D02*
X126690476Y-61202380D01*
X126928571Y-61202380D01*
X127023809Y-61154761D01*
X127071428Y-61107142D01*
X127119047Y-61011904D01*
X127119047Y-60916666D01*
X127071428Y-60821428D01*
X127023809Y-60773809D01*
X126928571Y-60726190D01*
X126738095Y-60678571D01*
X126642857Y-60630952D01*
X126595238Y-60583333D01*
X126547619Y-60488095D01*
X126547619Y-60392857D01*
X126595238Y-60297619D01*
X126642857Y-60250000D01*
X126738095Y-60202380D01*
X126976190Y-60202380D01*
X127119047Y-60250000D01*
X127928571Y-61154761D02*
X127833333Y-61202380D01*
X127642857Y-61202380D01*
X127547619Y-61154761D01*
X127500000Y-61059523D01*
X127500000Y-60678571D01*
X127547619Y-60583333D01*
X127642857Y-60535714D01*
X127833333Y-60535714D01*
X127928571Y-60583333D01*
X127976190Y-60678571D01*
X127976190Y-60773809D01*
X127500000Y-60869047D01*
X128404761Y-60535714D02*
X128404761Y-61202380D01*
X128404761Y-60630952D02*
X128452380Y-60583333D01*
X128547619Y-60535714D01*
X128690476Y-60535714D01*
X128785714Y-60583333D01*
X128833333Y-60678571D01*
X128833333Y-61202380D01*
X129261904Y-61154761D02*
X129357142Y-61202380D01*
X129547619Y-61202380D01*
X129642857Y-61154761D01*
X129690476Y-61059523D01*
X129690476Y-61011904D01*
X129642857Y-60916666D01*
X129547619Y-60869047D01*
X129404761Y-60869047D01*
X129309523Y-60821428D01*
X129261904Y-60726190D01*
X129261904Y-60678571D01*
X129309523Y-60583333D01*
X129404761Y-60535714D01*
X129547619Y-60535714D01*
X129642857Y-60583333D01*
X130261904Y-61202380D02*
X130166666Y-61154761D01*
X130119047Y-61107142D01*
X130071428Y-61011904D01*
X130071428Y-60726190D01*
X130119047Y-60630952D01*
X130166666Y-60583333D01*
X130261904Y-60535714D01*
X130404761Y-60535714D01*
X130500000Y-60583333D01*
X130547619Y-60630952D01*
X130595238Y-60726190D01*
X130595238Y-61011904D01*
X130547619Y-61107142D01*
X130500000Y-61154761D01*
X130404761Y-61202380D01*
X130261904Y-61202380D01*
X131023809Y-61202380D02*
X131023809Y-60535714D01*
X131023809Y-60726190D02*
X131071428Y-60630952D01*
X131119047Y-60583333D01*
X131214285Y-60535714D01*
X131309523Y-60535714D01*
%TO.C,J70*%
X138890476Y-35222380D02*
X138890476Y-35936666D01*
X138842857Y-36079523D01*
X138747619Y-36174761D01*
X138604761Y-36222380D01*
X138509523Y-36222380D01*
X139271428Y-35222380D02*
X139938095Y-35222380D01*
X139509523Y-36222380D01*
X140509523Y-35222380D02*
X140604761Y-35222380D01*
X140700000Y-35270000D01*
X140747619Y-35317619D01*
X140795238Y-35412857D01*
X140842857Y-35603333D01*
X140842857Y-35841428D01*
X140795238Y-36031904D01*
X140747619Y-36127142D01*
X140700000Y-36174761D01*
X140604761Y-36222380D01*
X140509523Y-36222380D01*
X140414285Y-36174761D01*
X140366666Y-36127142D01*
X140319047Y-36031904D01*
X140271428Y-35841428D01*
X140271428Y-35603333D01*
X140319047Y-35412857D01*
X140366666Y-35317619D01*
X140414285Y-35270000D01*
X140509523Y-35222380D01*
%TO.C,J71*%
X136350476Y-35222380D02*
X136350476Y-35936666D01*
X136302857Y-36079523D01*
X136207619Y-36174761D01*
X136064761Y-36222380D01*
X135969523Y-36222380D01*
X136731428Y-35222380D02*
X137398095Y-35222380D01*
X136969523Y-36222380D01*
X138302857Y-36222380D02*
X137731428Y-36222380D01*
X138017142Y-36222380D02*
X138017142Y-35222380D01*
X137921904Y-35365238D01*
X137826666Y-35460476D01*
X137731428Y-35508095D01*
%TO.C,J50*%
X138890476Y-53002380D02*
X138890476Y-53716666D01*
X138842857Y-53859523D01*
X138747619Y-53954761D01*
X138604761Y-54002380D01*
X138509523Y-54002380D01*
X139842857Y-53002380D02*
X139366666Y-53002380D01*
X139319047Y-53478571D01*
X139366666Y-53430952D01*
X139461904Y-53383333D01*
X139700000Y-53383333D01*
X139795238Y-53430952D01*
X139842857Y-53478571D01*
X139890476Y-53573809D01*
X139890476Y-53811904D01*
X139842857Y-53907142D01*
X139795238Y-53954761D01*
X139700000Y-54002380D01*
X139461904Y-54002380D01*
X139366666Y-53954761D01*
X139319047Y-53907142D01*
X140509523Y-53002380D02*
X140604761Y-53002380D01*
X140700000Y-53050000D01*
X140747619Y-53097619D01*
X140795238Y-53192857D01*
X140842857Y-53383333D01*
X140842857Y-53621428D01*
X140795238Y-53811904D01*
X140747619Y-53907142D01*
X140700000Y-53954761D01*
X140604761Y-54002380D01*
X140509523Y-54002380D01*
X140414285Y-53954761D01*
X140366666Y-53907142D01*
X140319047Y-53811904D01*
X140271428Y-53621428D01*
X140271428Y-53383333D01*
X140319047Y-53192857D01*
X140366666Y-53097619D01*
X140414285Y-53050000D01*
X140509523Y-53002380D01*
%TO.C,J51*%
X136350476Y-53002380D02*
X136350476Y-53716666D01*
X136302857Y-53859523D01*
X136207619Y-53954761D01*
X136064761Y-54002380D01*
X135969523Y-54002380D01*
X137302857Y-53002380D02*
X136826666Y-53002380D01*
X136779047Y-53478571D01*
X136826666Y-53430952D01*
X136921904Y-53383333D01*
X137160000Y-53383333D01*
X137255238Y-53430952D01*
X137302857Y-53478571D01*
X137350476Y-53573809D01*
X137350476Y-53811904D01*
X137302857Y-53907142D01*
X137255238Y-53954761D01*
X137160000Y-54002380D01*
X136921904Y-54002380D01*
X136826666Y-53954761D01*
X136779047Y-53907142D01*
X138302857Y-54002380D02*
X137731428Y-54002380D01*
X138017142Y-54002380D02*
X138017142Y-53002380D01*
X137921904Y-53145238D01*
X137826666Y-53240476D01*
X137731428Y-53288095D01*
%TO.C,J60*%
X147780476Y-98302380D02*
X147780476Y-99016666D01*
X147732857Y-99159523D01*
X147637619Y-99254761D01*
X147494761Y-99302380D01*
X147399523Y-99302380D01*
X148685238Y-98302380D02*
X148494761Y-98302380D01*
X148399523Y-98350000D01*
X148351904Y-98397619D01*
X148256666Y-98540476D01*
X148209047Y-98730952D01*
X148209047Y-99111904D01*
X148256666Y-99207142D01*
X148304285Y-99254761D01*
X148399523Y-99302380D01*
X148590000Y-99302380D01*
X148685238Y-99254761D01*
X148732857Y-99207142D01*
X148780476Y-99111904D01*
X148780476Y-98873809D01*
X148732857Y-98778571D01*
X148685238Y-98730952D01*
X148590000Y-98683333D01*
X148399523Y-98683333D01*
X148304285Y-98730952D01*
X148256666Y-98778571D01*
X148209047Y-98873809D01*
X149399523Y-98302380D02*
X149494761Y-98302380D01*
X149590000Y-98350000D01*
X149637619Y-98397619D01*
X149685238Y-98492857D01*
X149732857Y-98683333D01*
X149732857Y-98921428D01*
X149685238Y-99111904D01*
X149637619Y-99207142D01*
X149590000Y-99254761D01*
X149494761Y-99302380D01*
X149399523Y-99302380D01*
X149304285Y-99254761D01*
X149256666Y-99207142D01*
X149209047Y-99111904D01*
X149161428Y-98921428D01*
X149161428Y-98683333D01*
X149209047Y-98492857D01*
X149256666Y-98397619D01*
X149304285Y-98350000D01*
X149399523Y-98302380D01*
%TO.C,J61*%
X145240476Y-98302380D02*
X145240476Y-99016666D01*
X145192857Y-99159523D01*
X145097619Y-99254761D01*
X144954761Y-99302380D01*
X144859523Y-99302380D01*
X146145238Y-98302380D02*
X145954761Y-98302380D01*
X145859523Y-98350000D01*
X145811904Y-98397619D01*
X145716666Y-98540476D01*
X145669047Y-98730952D01*
X145669047Y-99111904D01*
X145716666Y-99207142D01*
X145764285Y-99254761D01*
X145859523Y-99302380D01*
X146050000Y-99302380D01*
X146145238Y-99254761D01*
X146192857Y-99207142D01*
X146240476Y-99111904D01*
X146240476Y-98873809D01*
X146192857Y-98778571D01*
X146145238Y-98730952D01*
X146050000Y-98683333D01*
X145859523Y-98683333D01*
X145764285Y-98730952D01*
X145716666Y-98778571D01*
X145669047Y-98873809D01*
X147192857Y-99302380D02*
X146621428Y-99302380D01*
X146907142Y-99302380D02*
X146907142Y-98302380D01*
X146811904Y-98445238D01*
X146716666Y-98540476D01*
X146621428Y-98588095D01*
%TO.C,R1*%
X171283333Y-98242380D02*
X170950000Y-97766190D01*
X170711904Y-98242380D02*
X170711904Y-97242380D01*
X171092857Y-97242380D01*
X171188095Y-97290000D01*
X171235714Y-97337619D01*
X171283333Y-97432857D01*
X171283333Y-97575714D01*
X171235714Y-97670952D01*
X171188095Y-97718571D01*
X171092857Y-97766190D01*
X170711904Y-97766190D01*
X172235714Y-98242380D02*
X171664285Y-98242380D01*
X171950000Y-98242380D02*
X171950000Y-97242380D01*
X171854761Y-97385238D01*
X171759523Y-97480476D01*
X171664285Y-97528095D01*
%TO.C,R2*%
X171283333Y-93162380D02*
X170950000Y-92686190D01*
X170711904Y-93162380D02*
X170711904Y-92162380D01*
X171092857Y-92162380D01*
X171188095Y-92210000D01*
X171235714Y-92257619D01*
X171283333Y-92352857D01*
X171283333Y-92495714D01*
X171235714Y-92590952D01*
X171188095Y-92638571D01*
X171092857Y-92686190D01*
X170711904Y-92686190D01*
X171664285Y-92257619D02*
X171711904Y-92210000D01*
X171807142Y-92162380D01*
X172045238Y-92162380D01*
X172140476Y-92210000D01*
X172188095Y-92257619D01*
X172235714Y-92352857D01*
X172235714Y-92448095D01*
X172188095Y-92590952D01*
X171616666Y-93162380D01*
X172235714Y-93162380D01*
%TO.C,R3*%
X164933333Y-42362380D02*
X164600000Y-41886190D01*
X164361904Y-42362380D02*
X164361904Y-41362380D01*
X164742857Y-41362380D01*
X164838095Y-41410000D01*
X164885714Y-41457619D01*
X164933333Y-41552857D01*
X164933333Y-41695714D01*
X164885714Y-41790952D01*
X164838095Y-41838571D01*
X164742857Y-41886190D01*
X164361904Y-41886190D01*
X165266666Y-41362380D02*
X165885714Y-41362380D01*
X165552380Y-41743333D01*
X165695238Y-41743333D01*
X165790476Y-41790952D01*
X165838095Y-41838571D01*
X165885714Y-41933809D01*
X165885714Y-42171904D01*
X165838095Y-42267142D01*
X165790476Y-42314761D01*
X165695238Y-42362380D01*
X165409523Y-42362380D01*
X165314285Y-42314761D01*
X165266666Y-42267142D01*
%TO.C,R4*%
X164933333Y-47442380D02*
X164600000Y-46966190D01*
X164361904Y-47442380D02*
X164361904Y-46442380D01*
X164742857Y-46442380D01*
X164838095Y-46490000D01*
X164885714Y-46537619D01*
X164933333Y-46632857D01*
X164933333Y-46775714D01*
X164885714Y-46870952D01*
X164838095Y-46918571D01*
X164742857Y-46966190D01*
X164361904Y-46966190D01*
X165790476Y-46775714D02*
X165790476Y-47442380D01*
X165552380Y-46394761D02*
X165314285Y-47109047D01*
X165933333Y-47109047D01*
%TO.C,U6*%
X131343495Y-98715580D02*
X131343495Y-99525104D01*
X131391114Y-99620342D01*
X131438733Y-99667961D01*
X131533971Y-99715580D01*
X131724447Y-99715580D01*
X131819685Y-99667961D01*
X131867304Y-99620342D01*
X131914923Y-99525104D01*
X131914923Y-98715580D01*
X132819685Y-98715580D02*
X132629209Y-98715580D01*
X132533971Y-98763200D01*
X132486352Y-98810819D01*
X132391114Y-98953676D01*
X132343495Y-99144152D01*
X132343495Y-99525104D01*
X132391114Y-99620342D01*
X132438733Y-99667961D01*
X132533971Y-99715580D01*
X132724447Y-99715580D01*
X132819685Y-99667961D01*
X132867304Y-99620342D01*
X132914923Y-99525104D01*
X132914923Y-99287009D01*
X132867304Y-99191771D01*
X132819685Y-99144152D01*
X132724447Y-99096533D01*
X132533971Y-99096533D01*
X132438733Y-99144152D01*
X132391114Y-99191771D01*
X132343495Y-99287009D01*
%TO.C,J1*%
X168576666Y-58082380D02*
X168576666Y-58796666D01*
X168529047Y-58939523D01*
X168433809Y-59034761D01*
X168290952Y-59082380D01*
X168195714Y-59082380D01*
X169576666Y-59082380D02*
X169005238Y-59082380D01*
X169290952Y-59082380D02*
X169290952Y-58082380D01*
X169195714Y-58225238D01*
X169100476Y-58320476D01*
X169005238Y-58368095D01*
%TO.C,J2*%
X152066666Y-58082380D02*
X152066666Y-58796666D01*
X152019047Y-58939523D01*
X151923809Y-59034761D01*
X151780952Y-59082380D01*
X151685714Y-59082380D01*
X152495238Y-58177619D02*
X152542857Y-58130000D01*
X152638095Y-58082380D01*
X152876190Y-58082380D01*
X152971428Y-58130000D01*
X153019047Y-58177619D01*
X153066666Y-58272857D01*
X153066666Y-58368095D01*
X153019047Y-58510952D01*
X152447619Y-59082380D01*
X153066666Y-59082380D01*
%TO.C,J4*%
X154606666Y-58082380D02*
X154606666Y-58796666D01*
X154559047Y-58939523D01*
X154463809Y-59034761D01*
X154320952Y-59082380D01*
X154225714Y-59082380D01*
X155511428Y-58415714D02*
X155511428Y-59082380D01*
X155273333Y-58034761D02*
X155035238Y-58749047D01*
X155654285Y-58749047D01*
%TO.C,J9*%
X171116666Y-50042380D02*
X171116666Y-50756666D01*
X171069047Y-50899523D01*
X170973809Y-50994761D01*
X170830952Y-51042380D01*
X170735714Y-51042380D01*
X171640476Y-51042380D02*
X171830952Y-51042380D01*
X171926190Y-50994761D01*
X171973809Y-50947142D01*
X172069047Y-50804285D01*
X172116666Y-50613809D01*
X172116666Y-50232857D01*
X172069047Y-50137619D01*
X172021428Y-50090000D01*
X171926190Y-50042380D01*
X171735714Y-50042380D01*
X171640476Y-50090000D01*
X171592857Y-50137619D01*
X171545238Y-50232857D01*
X171545238Y-50470952D01*
X171592857Y-50566190D01*
X171640476Y-50613809D01*
X171735714Y-50661428D01*
X171926190Y-50661428D01*
X172021428Y-50613809D01*
X172069047Y-50566190D01*
X172116666Y-50470952D01*
%TD*%
%LPC*%
D12*
%TO.C,J3*%
X171450000Y-83820000D03*
X171450000Y-81280000D03*
X171450000Y-78740000D03*
X171450000Y-76200000D03*
X171450000Y-73660000D03*
X171450000Y-71120000D03*
X171450000Y-68580000D03*
X171450000Y-66040000D03*
X171450000Y-63500000D03*
D13*
X171450000Y-60960000D03*
%TD*%
D14*
%TO.C,REF\u002A\u002A*%
X124460000Y-101600000D03*
%TD*%
%TO.C,REF\u002A\u002A*%
X124460000Y-25400000D03*
%TD*%
%TO.C,REF\u002A\u002A*%
X175260000Y-25400000D03*
%TD*%
%TO.C,REF\u002A\u002A*%
X175260000Y-101600000D03*
%TD*%
D12*
%TO.C,J8*%
X131064000Y-31242000D03*
X131064000Y-28702000D03*
X133604000Y-31242000D03*
X133604000Y-28702000D03*
X136144000Y-31242000D03*
X136144000Y-28702000D03*
X138684000Y-31242000D03*
X138684000Y-28702000D03*
X141224000Y-31242000D03*
X141224000Y-28702000D03*
X143764000Y-31242000D03*
X143764000Y-28702000D03*
X146304000Y-31242000D03*
X146304000Y-28702000D03*
X148844000Y-31242000D03*
X148844000Y-28702000D03*
X151384000Y-31242000D03*
X151384000Y-28702000D03*
X153924000Y-31242000D03*
X153924000Y-28702000D03*
X156464000Y-31242000D03*
X156464000Y-28702000D03*
X159004000Y-31242000D03*
X159004000Y-28702000D03*
X161544000Y-31242000D03*
X161544000Y-28702000D03*
X164084000Y-31242000D03*
X164084000Y-28702000D03*
X166624000Y-31242000D03*
X166624000Y-28702000D03*
X169164000Y-31242000D03*
D13*
X169164000Y-28702000D03*
%TD*%
D12*
%TO.C,J7*%
X129540000Y-45720000D03*
X127000000Y-45720000D03*
X129540000Y-43180000D03*
X127000000Y-43180000D03*
X129540000Y-40640000D03*
D13*
X127000000Y-40640000D03*
%TD*%
D12*
%TO.C,J5*%
X127000000Y-58420000D03*
X127000000Y-55880000D03*
D13*
X127000000Y-53340000D03*
%TD*%
%TO.C,J70*%
X139700000Y-38100000D03*
D12*
X139700000Y-40640000D03*
X139700000Y-43180000D03*
X139700000Y-45720000D03*
X139700000Y-48260000D03*
X139700000Y-50800000D03*
%TD*%
%TO.C,J71*%
X137160000Y-50800000D03*
X137160000Y-48260000D03*
X137160000Y-45720000D03*
X137160000Y-43180000D03*
X137160000Y-40640000D03*
D13*
X137160000Y-38100000D03*
%TD*%
%TO.C,J50*%
X139700000Y-55880000D03*
D12*
X139700000Y-58420000D03*
X139700000Y-60960000D03*
%TD*%
%TO.C,J51*%
X137160000Y-60960000D03*
X137160000Y-58420000D03*
D13*
X137160000Y-55880000D03*
%TD*%
D12*
%TO.C,J60*%
X148590000Y-93980000D03*
D13*
X148590000Y-96520000D03*
%TD*%
%TO.C,J61*%
X146050000Y-96520000D03*
D12*
X146050000Y-93980000D03*
%TD*%
D15*
%TO.C,R1*%
X167750000Y-97790000D03*
X158750000Y-97790000D03*
%TD*%
%TO.C,R2*%
X158750000Y-92710000D03*
X167750000Y-92710000D03*
%TD*%
%TO.C,R3*%
X161400000Y-41910000D03*
X152400000Y-41910000D03*
%TD*%
%TO.C,R4*%
X152400000Y-46990000D03*
X161400000Y-46990000D03*
%TD*%
D16*
%TO.C,U6*%
X140970000Y-88900000D03*
X140970000Y-91440000D03*
X140970000Y-93980000D03*
D17*
X140970000Y-96520000D03*
%TD*%
D13*
%TO.C,J1*%
X168910000Y-60960000D03*
D12*
X168910000Y-63500000D03*
X168910000Y-66040000D03*
X168910000Y-68580000D03*
X168910000Y-71120000D03*
X168910000Y-73660000D03*
X168910000Y-76200000D03*
X168910000Y-78740000D03*
X168910000Y-81280000D03*
X168910000Y-83820000D03*
%TD*%
D13*
%TO.C,J2*%
X152400000Y-60960000D03*
D12*
X152400000Y-63500000D03*
X152400000Y-66040000D03*
X152400000Y-68580000D03*
X152400000Y-71120000D03*
X152400000Y-73660000D03*
X152400000Y-76200000D03*
X152400000Y-78740000D03*
X152400000Y-81280000D03*
X152400000Y-83820000D03*
%TD*%
%TO.C,J4*%
X154940000Y-83820000D03*
X154940000Y-81280000D03*
X154940000Y-78740000D03*
X154940000Y-76200000D03*
X154940000Y-73660000D03*
X154940000Y-71120000D03*
X154940000Y-68580000D03*
X154940000Y-66040000D03*
X154940000Y-63500000D03*
D13*
X154940000Y-60960000D03*
%TD*%
D12*
%TO.C,J9*%
X171450000Y-45720000D03*
D13*
X171450000Y-48260000D03*
%TD*%
M02*
